<?xml version="1.0" encoding="utf-8"?><svg width="183" height="76" viewBox="0 0 183 76" fill="none" xmlns="http://www.w3.org/2000/svg">
<path d="M151.264 10.0163C151.089 9.79946 150.936 9.56098 150.826 9.27914C149.622 10.5366 147.696 11.1653 145.092 11.1653C143.691 11.1653 142.553 10.9919 141.634 10.6667C140.715 10.3415 140.058 9.84282 139.642 9.14905C139.511 8.93225 139.401 8.69377 139.336 8.45529C139.27 8.21681 139.226 7.97832 139.204 7.73984C139.183 7.50136 139.183 7.28456 139.204 7.04607C139.226 6.82927 139.27 6.61247 139.314 6.39567C139.379 6.17887 139.423 5.98374 139.489 5.8103C139.555 5.63686 139.598 5.4851 139.642 5.35502C139.686 5.22494 139.73 5.13822 139.773 5.05149C139.817 4.98645 139.839 4.94309 139.839 4.92141L141.021 5.57182C141.021 5.57182 140.999 5.61518 140.955 5.7019C140.912 5.78862 140.868 5.89702 140.824 6.04878C140.78 6.17887 140.715 6.35231 140.671 6.54743C140.627 6.74255 140.583 6.93767 140.583 7.13279C140.561 7.32792 140.583 7.54472 140.627 7.76152C140.671 7.97832 140.736 8.17345 140.846 8.36857C141.13 8.82385 141.612 9.17073 142.334 9.40922C143.056 9.6477 143.976 9.7561 145.092 9.7561C146.099 9.7561 146.974 9.66938 147.675 9.49594C148.375 9.3225 148.966 9.04065 149.447 8.67209C149.666 8.49865 149.841 8.32521 149.995 8.13009C150.148 7.93496 150.279 7.73984 150.389 7.52304C150.498 7.30624 150.586 7.11111 150.651 6.89431C150.717 6.67751 150.782 6.48239 150.848 6.26559L152.161 6.61247C152.139 6.69919 152.118 6.80759 152.096 6.91599C152.074 7.02439 152.03 7.15448 152.008 7.28456C151.942 7.54472 151.921 7.7832 151.942 7.95664C151.942 8.15176 151.986 8.34689 152.03 8.56369C152.074 8.78049 152.183 8.97561 152.315 9.12737C152.643 9.5393 153.19 9.73442 153.956 9.73442C154.153 9.73442 154.306 9.79946 154.438 9.92954C154.569 10.0596 154.635 10.2114 154.635 10.4065C154.635 10.6016 154.569 10.7534 154.438 10.8835C154.306 11.0136 154.153 11.0786 153.956 11.0786H153.89C152.709 11.122 151.833 10.7534 151.264 10.0163ZM145.355 4.44445L144.238 5.55014L143.1 4.44445L144.216 3.33876L145.355 4.44445ZM148.178 4.44445L147.062 5.55014L145.924 4.42277L147.04 3.31708L148.178 4.44445Z" fill="#191C1D"/>
<path d="M153.365 10.4715C153.365 10.2764 153.431 10.1247 153.562 9.99458C153.694 9.8645 153.869 9.79946 154.044 9.79946C154.547 9.79946 155.029 9.77778 155.444 9.73441C155.882 9.69105 156.254 9.62601 156.583 9.53929C156.911 9.47425 157.195 9.38753 157.436 9.27913C157.677 9.19241 157.852 9.10569 157.961 9.01897C158.027 8.97561 158.071 8.93225 158.115 8.88889C158.158 8.84553 158.18 8.80217 158.224 8.75881H157.524C157.283 8.75881 157.042 8.73713 156.801 8.69377C156.561 8.65041 156.342 8.60704 156.145 8.52032C155.948 8.4336 155.751 8.34688 155.576 8.23848C155.401 8.13008 155.269 8 155.138 7.84824C155.072 7.76152 155.007 7.67479 154.941 7.54471C154.875 7.43631 154.832 7.28455 154.788 7.13279C154.744 6.98103 154.722 6.80759 154.722 6.61247C154.722 6.41734 154.722 6.22222 154.766 5.98374C154.832 5.63686 154.919 5.31165 155.051 5.02981C155.182 4.74797 155.335 4.4878 155.51 4.24932C155.707 3.98916 155.948 3.77236 156.211 3.64228C156.473 3.51219 156.736 3.44715 156.998 3.44715C157.611 3.44715 158.158 3.70732 158.64 4.24932C158.859 4.4878 159.034 4.74797 159.209 5.05149C159.362 5.35501 159.494 5.68022 159.603 6.0271C159.712 6.37398 159.778 6.74255 159.8 7.11111C159.844 7.47967 159.844 7.84824 159.8 8.2168C159.778 8.39024 159.734 8.58536 159.69 8.75881C159.669 8.82385 159.647 8.88889 159.625 8.97561C159.603 9.06233 159.559 9.17073 159.494 9.27913C159.428 9.38753 159.34 9.51761 159.231 9.64769C159.121 9.77778 158.99 9.90786 158.815 10.0379C158.596 10.2114 158.312 10.3631 157.983 10.4932C157.655 10.6233 157.283 10.7317 156.867 10.8184C156.451 10.9051 156.014 10.9702 155.554 11.0135C155.094 11.0569 154.613 11.0786 154.153 11.0786H154.044C153.847 11.0786 153.694 11.0135 153.562 10.8835C153.453 10.8184 153.365 10.6667 153.365 10.4715ZM157.94 1.12737L156.823 2.23306L155.685 1.10569L156.801 0L157.94 1.12737ZM156.998 4.81301C156.933 4.81301 156.867 4.83469 156.78 4.89973C156.692 4.96477 156.604 5.05149 156.517 5.18157C156.429 5.31165 156.342 5.46341 156.276 5.63686C156.21 5.8103 156.145 6.0271 156.101 6.2439C156.035 6.59078 156.079 6.82927 156.211 7.00271C156.298 7.11111 156.429 7.19783 156.604 7.26287C156.78 7.32791 156.998 7.37127 157.239 7.39295C157.48 7.39295 157.699 7.41463 157.896 7.41463C158.093 7.41463 158.268 7.41463 158.421 7.39295C158.399 6.95935 158.312 6.52574 158.158 6.1355C158.027 5.74526 157.83 5.42005 157.589 5.15989C157.524 5.07317 157.414 5.00813 157.305 4.92141C157.261 4.85637 157.152 4.81301 156.998 4.81301Z" fill="#191C1D"/>
<path d="M164.877 11.1436C164.374 11.1436 163.936 11.0786 163.586 10.9702C163.236 10.8618 162.93 10.6667 162.667 10.4282C162.514 10.2764 162.404 10.1247 162.317 9.95123C162.229 9.77778 162.185 9.60434 162.142 9.4309C162.098 9.25746 162.076 9.1057 162.076 8.95394C162.076 8.80217 162.076 8.67209 162.076 8.56369V8.43361C162.076 8.43361 162.076 8.34689 162.076 8.19513C162.076 8.04337 162.076 7.82657 162.076 7.54472C162.076 7.26288 162.076 6.95936 162.076 6.59079C162.076 6.24391 162.076 5.85367 162.076 5.46342C162.076 5.07318 162.076 4.66126 162.054 4.24933C162.054 3.81573 162.032 3.42548 162.01 3.01356C161.988 2.62331 161.967 2.25475 161.945 1.92955C161.923 1.60435 161.879 1.3225 161.835 1.1057L163.192 0.867218C163.236 1.1057 163.28 1.38754 163.302 1.71275C163.323 2.05963 163.367 2.40651 163.389 2.81844C163.411 3.20868 163.433 3.6206 163.433 4.05421C163.433 4.48781 163.455 4.89974 163.455 5.31166C163.455 5.70191 163.455 6.09215 163.455 6.46071C163.455 6.82928 163.455 7.15448 163.455 7.43632C163.455 7.71816 163.455 7.95665 163.455 8.15177C163.455 8.34689 163.455 8.45529 163.455 8.47697V8.60705C163.455 8.80218 163.455 8.97562 163.477 9.12738C163.499 9.27914 163.564 9.40922 163.674 9.49594C163.871 9.71274 164.265 9.82114 164.834 9.82114H164.899C164.987 9.82114 165.074 9.84283 165.162 9.88619C165.25 9.92955 165.315 9.97291 165.381 10.0379C165.447 10.103 165.49 10.168 165.534 10.2547C165.578 10.3415 165.6 10.4282 165.6 10.5149C165.6 10.71 165.534 10.8618 165.403 10.9919C165.293 11.122 165.074 11.1436 164.877 11.1436Z" fill="#191C1D"/>
<path d="M163.849 10.4715C163.849 10.2764 163.915 10.1247 164.046 9.99457C164.177 9.86449 164.331 9.79945 164.528 9.79945H165.294C165.447 9.79945 165.622 9.79945 165.819 9.79945C166.016 9.79945 166.191 9.77777 166.388 9.77777C166.585 9.77777 166.76 9.73441 166.957 9.69105C167.132 9.64769 167.307 9.60433 167.46 9.53929C167.614 9.47425 167.745 9.40921 167.876 9.30081C167.986 9.21409 168.073 9.10568 168.139 8.9756C168.226 8.78048 168.248 8.49864 168.226 8.15176C168.183 7.78319 168.095 7.37127 167.942 6.8943C167.898 6.74254 167.833 6.59078 167.767 6.41734C167.701 6.2439 167.636 6.09214 167.57 5.94037C167.504 5.76693 167.417 5.59349 167.351 5.42005L168.577 4.813C168.577 4.813 168.599 4.85636 168.642 4.94308C168.686 5.02981 168.73 5.15989 168.796 5.28997C168.861 5.44173 168.927 5.61517 169.014 5.81029C169.102 6.00541 169.168 6.22222 169.233 6.43902C169.671 7.73983 169.715 8.7588 169.386 9.49593C169.058 10.2331 168.489 10.71 167.657 10.9485C167.526 10.9919 167.373 11.0135 167.176 11.0352C166.979 11.0569 166.782 11.0786 166.585 11.0786C166.388 11.0786 166.191 11.1003 166.016 11.1003C165.841 11.1003 165.688 11.1003 165.6 11.1003H164.593H164.528C164.331 11.1003 164.177 11.0352 164.046 10.9051C163.893 10.8184 163.849 10.6667 163.849 10.4715ZM167.154 13.4851L166.038 14.5908L164.9 13.4851L166.016 12.3794L167.154 13.4851ZM169.999 13.5068L168.883 14.6125L167.745 13.4851L168.861 12.3794L169.999 13.5068Z" fill="#191C1D"/>
<path d="M174.245 6.72087C174.376 7.13279 174.486 7.5664 174.617 7.97832C174.661 8.15176 174.705 8.34689 174.77 8.52033C174.836 8.69377 174.858 8.91057 174.902 9.08401C174.945 9.27913 174.989 9.45258 175.011 9.6477C175.033 9.82114 175.077 9.99458 175.077 10.1463C175.077 10.1897 175.077 10.2547 175.099 10.3198C175.099 10.3848 175.099 10.4499 175.099 10.5366C175.099 10.9268 175.033 11.3171 174.924 11.6856C174.814 12.0542 174.639 12.4228 174.442 12.748C174.245 13.0949 173.982 13.4201 173.698 13.7236C173.413 14.0488 173.107 14.3306 172.757 14.6125C172.429 14.8943 172.056 15.1328 171.684 15.3713C171.312 15.6098 170.94 15.8266 170.546 16L169.955 14.8076C170.437 14.5691 170.896 14.2873 171.356 13.9837C171.816 13.6802 172.21 13.3333 172.56 12.9648C172.91 12.5962 173.195 12.206 173.413 11.794C173.632 11.3821 173.742 10.9485 173.742 10.5149C173.742 10.4932 173.742 10.4499 173.742 10.4065C173.742 10.3631 173.742 10.2981 173.72 10.2547C173.698 10.1247 173.676 9.95122 173.654 9.79946C173.632 9.62602 173.589 9.45258 173.545 9.27913C173.501 9.10569 173.457 8.93225 173.413 8.75881C173.37 8.58537 173.326 8.41193 173.282 8.26017C173.173 7.86992 173.063 7.50136 172.932 7.11111L174.245 6.72087Z" fill="#191C1D"/>
<path d="M179.695 11.122C179.476 11.122 179.214 11.1003 178.907 11.0352C178.601 10.9702 178.316 10.9051 178.01 10.8184C177.703 10.7317 177.441 10.645 177.2 10.5366C176.959 10.4282 176.762 10.3198 176.653 10.2114L177.222 8.93225C177.397 9.04065 177.594 9.14905 177.835 9.25745C178.075 9.36585 178.316 9.45257 178.601 9.51761C178.863 9.58266 179.148 9.6477 179.432 9.69106C179.717 9.73442 180.002 9.73442 180.264 9.71274C180.527 9.69106 180.768 9.62602 181.008 9.5393C181.227 9.45258 181.424 9.30081 181.577 9.12737C181.709 8.99729 181.709 8.71545 181.621 8.34688C181.577 8.13008 181.49 7.8916 181.38 7.65312C181.271 7.41463 181.14 7.17615 180.965 6.91599C180.811 6.67751 180.636 6.43903 180.439 6.20054C180.242 5.96206 180.045 5.74526 179.826 5.55014C179.608 5.35502 179.411 5.18157 179.192 5.02981C178.973 4.87805 178.754 4.74797 178.557 4.66125L179.104 3.42548C179.367 3.55556 179.651 3.70732 179.914 3.90244C180.198 4.09756 180.461 4.31437 180.724 4.55285C180.986 4.79133 181.227 5.07317 181.468 5.35502C181.709 5.63686 181.928 5.94038 182.103 6.2439C182.3 6.54743 182.453 6.85095 182.606 7.15447C182.737 7.458 182.847 7.76152 182.912 8.04336C182.978 8.30352 183 8.52033 183 8.73713C183 8.93225 182.978 9.12737 182.934 9.27913C182.891 9.43089 182.847 9.58266 182.781 9.69106C182.715 9.82114 182.65 9.90786 182.584 9.99458C182.168 10.4932 181.577 10.8401 180.811 10.9919C180.636 11.0352 180.461 11.0786 180.264 11.0786C180.089 11.122 179.87 11.122 179.695 11.122Z" fill="#191C1D"/>
<g clip-path="url(#clip0_6_5380)">
<path d="M55.0609 12.5724L61.1953 1.87902C61.5415 1.27955 61.3321 0.518041 60.7445 0.169693C60.1568 -0.178648 59.392 0.0238722 59.0539 0.623352L52.839 11.4545C48.0973 9.27529 42.76 8.06012 37.02 8.06012C31.2801 8.06012 25.9427 9.27528 21.201 11.4545L14.9862 0.623352C14.64 0.0238722 13.8833 -0.178648 13.2875 0.169693C12.6918 0.518041 12.4905 1.27955 12.8367 1.87902L18.9711 12.5724C8.3929 18.3404 1.22805 29.1148 0.0446777 41.7281H73.9955C72.812 29.1147 65.6471 18.3403 55.0609 12.5724ZM20.0418 31.2778C18.3271 31.2778 16.9424 29.8763 16.9424 28.1589C16.9424 26.4334 18.3351 25.04 20.0418 25.04C21.7565 25.04 23.1412 26.4415 23.1412 28.1589C23.1493 29.8763 21.7565 31.2778 20.0418 31.2778ZM53.9903 31.2778C52.2756 31.2778 50.8909 29.8763 50.8909 28.1589C50.8909 26.4334 52.2836 25.04 53.9903 25.04C55.705 25.04 57.0897 26.4415 57.0897 28.1589C57.0977 29.8763 55.705 31.2778 53.9903 31.2778Z" fill="#32DE84"/>
</g>
<path d="M22.7077 46.3811C17.4854 46.3811 12.1155 50.6118 12.1155 58.017C12.1155 64.7869 16.8369 69.5687 22.7077 69.5687C27.5537 69.5687 29.7135 66.2803 29.7135 66.2803V67.7137C29.7135 68.3912 30.3471 69.1471 31.1314 69.1471H34.6343V46.8869H29.7135V49.7116C29.7135 49.7116 27.5356 46.3811 22.7077 46.3811ZM23.5842 50.9328C27.8833 50.9328 30.1384 54.7552 30.1384 58.0154C30.1384 61.6468 27.4609 65.0956 23.5934 65.0956C20.3604 65.0956 17.1218 62.4484 17.1218 57.9675C17.1218 53.9226 19.9088 50.9328 23.5842 50.9328Z" fill="#191C1D"/>
<path d="M41.4735 69.1468C40.7175 69.1468 40.0557 68.5986 40.0557 67.7134V46.8867H44.9764V49.6414C46.0915 47.947 48.2699 46.374 51.6137 46.374C57.0788 46.374 59.989 50.7784 59.989 54.897V69.1468H56.5695C55.6728 69.1468 55.0682 68.388 55.0682 67.6291V55.9931C55.0682 53.7102 53.6847 50.9377 50.4849 50.9377C47.0323 50.9377 44.9765 54.2364 44.9765 57.3422V69.1468L41.4735 69.1468Z" fill="#191C1D"/>
<path d="M74.3338 46.3811C69.1116 46.3811 63.7417 50.6118 63.7417 58.017C63.7417 64.7869 68.4631 69.5687 74.3338 69.5687C79.1799 69.5687 81.3397 66.2803 81.3397 66.2803V67.7137C81.3397 68.3912 81.9733 69.1471 82.7575 69.1471H86.2605V35.7569H81.3397V49.7116C81.3397 49.7116 79.1618 46.3811 74.3338 46.3811ZM75.2104 50.9328C79.5094 50.9328 81.7645 54.7552 81.7645 58.0154C81.7645 61.6468 79.087 65.0955 75.2195 65.0956C71.9865 65.0956 68.748 62.4484 68.748 57.9675C68.748 53.9226 71.5349 50.9328 75.2104 50.9328Z" fill="#191C1D"/>
<path d="M93.0995 69.1468C92.3435 69.1468 91.6816 68.5986 91.6816 67.7134V46.8867H96.6024V50.5967C97.4494 48.5184 99.2771 46.6338 102.524 46.6338C103.429 46.6338 104.275 46.8024 104.275 46.8024V51.9458C104.275 51.9458 103.219 51.5242 101.94 51.5242C98.4876 51.5242 96.6024 54.823 96.6024 57.9288V69.1468H93.0995Z" fill="#191C1D"/>
<path d="M134.134 69.1468C133.378 69.1468 132.716 68.5986 132.716 67.7134V46.8867H137.637V69.1468L134.134 69.1468Z" fill="#191C1D"/>
<path d="M152.065 46.3811C146.843 46.3811 141.473 50.6118 141.473 58.017C141.473 64.7869 146.195 69.5687 152.065 69.5687C156.911 69.5687 159.071 66.2803 159.071 66.2803V67.7137C159.071 68.3912 159.705 69.1471 160.489 69.1471H163.992V35.7569H159.071V49.7116C159.071 49.7116 156.893 46.3811 152.065 46.3811ZM152.942 50.9328C157.241 50.9328 159.496 54.7552 159.496 58.0154C159.496 61.6468 156.819 65.0955 152.951 65.0956C149.718 65.0956 146.479 62.4484 146.479 57.9675C146.479 53.9226 149.266 50.9328 152.942 50.9328Z" fill="#191C1D"/>
<path d="M135.142 42.0865C136.939 42.0865 138.395 40.6138 138.395 38.7971C138.395 36.9804 136.939 35.5077 135.142 35.5077C133.345 35.5077 131.888 36.9804 131.888 38.7971C131.888 40.6138 133.345 42.0865 135.142 42.0865Z" fill="#191C1D"/>
<path d="M117.253 46.3734C111.784 46.3734 105.776 50.5006 105.776 57.9772C105.776 64.7903 110.894 69.5692 117.242 69.5692C125.065 69.5692 128.885 63.2112 128.885 58.0204C128.885 51.6508 123.966 46.3734 117.253 46.3734ZM117.271 51.0191C121.053 51.0191 123.875 54.1008 123.875 57.9912C123.875 61.9491 120.88 65.0032 117.283 65.0032C113.943 65.0032 110.697 62.2559 110.697 58.0578C110.697 53.7897 113.785 51.0191 117.271 51.0191Z" fill="#191C1D"/>
<defs>
<clipPath id="clip0_6_5380">
<rect width="74" height="46" fill="white"/>
</clipPath>
</defs>
</svg>
