<?xml version="1.0" encoding="utf-8"?><svg width="24" height="24" viewBox="0 0 24 24" fill="none" xmlns="http://www.w3.org/2000/svg">
<path d="M10.7685 3.52686L9.11153 3.09483C8.75763 3.00054 8.38862 2.97693 8.02559 3.02534C7.66256 3.07375 7.31263 3.19324 6.99581 3.37697C6.67899 3.5607 6.40148 3.80508 6.17916 4.09612C5.95684 4.38717 5.79407 4.71918 5.70014 5.07318L5.28656 6.6353C6.65044 4.93779 8.61155 3.82577 10.7685 3.52686Z" fill="#3F484A"/>
<path d="M3.50051 13.3606L3.09483 14.8911C2.90519 15.6055 3.00708 16.3659 3.37809 17.0052C3.74909 17.6444 4.35882 18.1101 5.07317 18.2999L6.65373 18.7214C4.96604 17.3944 3.8402 15.4804 3.50051 13.3606Z" fill="#3F484A"/>
<path d="M18.9268 5.70013L17.1539 5.2286C18.0498 5.91769 18.7998 6.77785 19.3606 7.75914C19.9213 8.74044 20.2816 9.82333 20.4204 10.945L20.9078 9.10098C21.0949 8.38735 20.9915 7.62863 20.6202 6.99113C20.2488 6.35364 19.6399 5.88938 18.9268 5.70013Z" fill="#3F484A"/>
<path d="M13.192 20.4547L14.8911 20.9131C15.6055 21.1027 16.3659 21.0008 17.0052 20.6298C17.6444 20.2588 18.1101 19.6491 18.2999 18.9347L18.7793 17.1329C17.4275 18.9333 15.4195 20.1272 13.192 20.4547Z" fill="#3F484A"/>
<path d="M12.0013 4.19596C10.4574 4.19544 8.94808 4.65277 7.66415 5.51012C6.38022 6.36747 5.37938 7.58631 4.78821 9.01251C4.19703 10.4387 4.04208 12.0082 4.34296 13.5225C4.64383 15.0367 5.38701 16.4277 6.47851 17.5196C7.57 18.6115 8.96078 19.3551 10.4749 19.6565C11.9891 19.9579 13.5586 19.8035 14.985 19.2128C16.4114 18.6221 17.6306 17.6217 18.4884 16.338C19.3462 15.0544 19.804 13.5452 19.804 12.0013C19.804 9.93166 18.982 7.94674 17.5188 6.48303C16.0556 5.01932 14.0709 4.19666 12.0013 4.19596ZM7.58098 8.08942C7.66444 7.65668 7.87433 7.2584 8.18412 6.94493C8.4939 6.63146 8.88968 6.41688 9.3214 6.32832C9.75313 6.23975 10.2014 6.28118 10.6096 6.44737C11.0178 6.61355 11.3675 6.89703 11.6146 7.26196C11.8617 7.62689 11.9951 8.05689 11.9978 8.4976C12.0005 8.93831 11.8726 9.36993 11.63 9.73791C11.3875 10.1059 11.0413 10.3937 10.6352 10.5649C10.2291 10.7362 9.78137 10.7832 9.34858 10.7C9.06106 10.6447 8.78725 10.5333 8.54279 10.3722C8.29834 10.2111 8.08803 10.0034 7.92387 9.76095C7.75972 9.51851 7.64495 9.24611 7.58612 8.9593C7.52728 8.67249 7.52553 8.3769 7.58098 8.08942ZM10.8238 14.8332C10.7397 15.2657 10.5293 15.6637 10.2191 15.9767C9.90896 16.2898 9.51295 16.5038 9.08115 16.5918C8.64936 16.6798 8.20116 16.6378 7.79322 16.4712C7.38528 16.3045 7.03591 16.0206 6.78926 15.6555C6.54262 15.2903 6.40977 14.8602 6.40752 14.4195C6.40527 13.9788 6.53371 13.5474 6.77661 13.1797C7.01951 12.812 7.36596 12.5246 7.77218 12.3538C8.17839 12.1829 8.62613 12.1364 9.05881 12.22C9.34635 12.2755 9.62013 12.3872 9.86449 12.5486C10.1088 12.71 10.319 12.9181 10.4829 13.1608C10.6468 13.4034 10.7613 13.6761 10.8198 13.963C10.8783 14.25 10.8796 14.5457 10.8238 14.8332ZM11.7695 13.0287C11.5774 12.9915 11.4006 12.8983 11.2615 12.7608C11.1223 12.6233 11.0269 12.4477 10.9875 12.256C10.948 12.0644 10.9662 11.8654 11.0397 11.6841C11.1132 11.5028 11.2387 11.3473 11.4005 11.2373C11.5622 11.1272 11.753 11.0676 11.9486 11.0658C12.1442 11.064 12.336 11.1202 12.4998 11.2273C12.6635 11.3344 12.7918 11.4876 12.8686 11.6675C12.9454 11.8474 12.9672 12.0461 12.9312 12.2384C12.9072 12.3668 12.858 12.4891 12.7865 12.5984C12.7151 12.7077 12.6227 12.8017 12.5147 12.8752C12.4067 12.9486 12.2853 13 12.1574 13.0263C12.0295 13.0527 11.8977 13.0535 11.7695 13.0287ZM16.419 15.9079C16.3355 16.3407 16.1256 16.739 15.8158 17.0524C15.506 17.3659 15.1103 17.5805 14.6785 17.669C14.2468 17.7576 13.7985 17.7162 13.3903 17.55C12.9822 17.3838 12.6324 17.1003 12.3853 16.7354C12.1382 16.3705 12.0049 15.9405 12.0021 15.4998C11.9994 15.0591 12.1274 14.6274 12.3699 14.2595C12.6125 13.8915 12.9587 13.6037 13.3648 13.4324C13.7708 13.2612 14.2186 13.2142 14.6514 13.2974C14.9389 13.3526 15.2127 13.464 15.4572 13.6251C15.7016 13.7863 15.9119 13.994 16.0761 14.2364C16.2402 14.4789 16.355 14.7513 16.4138 15.0381C16.4727 15.3249 16.4744 15.6205 16.419 15.9079ZM14.9438 11.7774C14.511 11.6939 14.1128 11.4841 13.7993 11.1743C13.4858 10.8645 13.2712 10.4687 13.1827 10.037C13.0941 9.60525 13.1355 9.15696 13.3017 8.74878C13.4679 8.3406 13.7514 7.99085 14.1163 7.74376C14.4812 7.49666 14.9113 7.36332 15.352 7.36058C15.7927 7.35784 16.2243 7.48583 16.5923 7.72837C16.9602 7.9709 17.248 8.3171 17.4193 8.72318C17.5905 9.12927 17.6375 9.57701 17.5543 10.0098C17.4994 10.2976 17.3882 10.5717 17.2272 10.8164C17.0662 11.0612 16.8586 11.2718 16.6161 11.4362C16.3736 11.6006 16.1011 11.7156 15.8142 11.7746C15.5272 11.8336 15.2314 11.8355 14.9438 11.78V11.7774Z" fill="#3F484A"/>
</svg>
