<?xml version="1.0" encoding="utf-8"?> 
<svg width="48" height="48" viewBox="0 0 48 48" fill="none" xmlns="http://www.w3.org/2000/svg">
<g clip-path="url(#clip0_4740_8148)">
<mask id="mask0_4740_8148" style="mask-type:luminance" maskUnits="userSpaceOnUse" x="4" y="4" width="40" height="40">
<path d="M44 4H4V44H44V4Z" fill="white"/>
</mask>
<g mask="url(#mask0_4740_8148)">
<path d="M38.7368 36.1368H24C21.0947 36.1368 18.7368 33.7789 18.7368 30.8737V9.26316C18.7368 6.35789 21.0947 4 24 4H31.9473C33.7368 4 35.4526 4.69474 36.7263 5.95789L41.8421 10.9684C43.221 12.3368 44 14.1895 44.0105 16.1368V30.8737C44.0105 33.7789 41.6526 36.1368 38.7473 36.1368C38.7473 36.1368 38.7473 36.1368 38.7368 36.1368ZM23.9894 6.10526C22.2421 6.10526 20.8316 7.51579 20.8316 9.26316V30.8316C20.8316 32.5789 22.2421 33.9895 23.9894 33.9895H38.7263C40.4737 33.9895 41.8842 32.5789 41.8842 30.8316V16.0947C41.8842 14.7158 41.3158 13.4 40.3368 12.4316L35.2421 7.46316C34.3579 6.58947 33.1789 6.10526 31.9368 6.10526H23.9894Z" fill="#3F484A"/>
<path d="M24.8507 13.4737H17.8861C11.3197 13.4737 8.03654 13.4737 5.99663 15.5812C4.59211 17.0323 4.15463 19.0923 4.01837 22.449C3.99135 23.1148 3.97784 23.4477 4.09786 23.6697C4.21788 23.8918 4.69704 24.1689 5.65535 24.7233C6.71964 25.3387 7.43906 26.5149 7.43906 27.8646C7.43906 29.2144 6.71964 30.3905 5.65536 31.0061C4.69705 31.5604 4.21788 31.8375 4.09786 32.0596C3.97784 32.2817 3.99135 32.6145 4.01837 33.2802C4.15463 36.637 4.59211 38.697 5.99663 40.1481C8.03654 42.2557 11.3197 42.2557 17.8861 42.2557H24.8507C31.4172 42.2557 34.7003 42.2557 36.7402 40.1481C38.1447 38.697 38.5822 36.637 38.7185 33.2802C38.7455 32.6145 38.7591 32.2817 38.639 32.0596C38.519 31.8375 38.0398 31.5604 37.0815 31.0061C36.0172 30.3905 35.2978 29.2144 35.2978 27.8646C35.2978 26.5149 36.0172 25.3387 37.0815 24.7233C38.0398 24.1689 38.519 23.8918 38.639 23.6697C38.7591 23.4477 38.7455 23.1148 38.7185 22.4492C38.5822 19.0924 38.1447 17.0323 36.7402 15.5812C34.7003 13.4737 31.4172 13.4737 24.8507 13.4737Z" fill="#3F484A"/>
<path d="M16.8871 29.2845H18.9603V36.5472C18.9603 36.7863 19.0687 36.9319 19.2856 36.9839C19.5025 37.036 19.6691 36.9616 19.7856 36.7608L25.3531 27.0195C25.5326 26.7202 25.5351 26.428 25.3603 26.143C25.1856 25.858 24.933 25.7155 24.6025 25.7155H22.5293V18.4528C22.5293 18.2137 22.4209 18.0681 22.204 18.0161C21.9871 17.964 21.8204 18.0384 21.704 18.2392L16.1365 27.9805C15.9569 28.2798 15.9545 28.572 16.1293 28.857C16.304 29.142 16.5566 29.2845 16.8871 29.2845Z" fill="#FBFCFD"/>
</g>
</g>
<defs>
<clipPath id="clip0_4740_8148">
<rect width="40" height="40" fill="white" transform="translate(4 4)"/>
</clipPath>
</defs>
</svg>
