<?xml version="1.0" encoding="utf-8"?> 
<svg width="48" height="48" viewBox="0 0 48 48" fill="none" xmlns="http://www.w3.org/2000/svg">
<g clip-path="url(#clip0_4772_51813)">
<mask id="mask0_4772_51813" style="mask-type:luminance" maskUnits="userSpaceOnUse" x="0" y="0" width="48" height="48">
<path d="M48 0H0V48H48V0Z" fill="white"/>
</mask>
<g mask="url(#mask0_4772_51813)">
<mask id="mask1_4772_51813" style="mask-type:luminance" maskUnits="userSpaceOnUse" x="18" y="4" width="26" height="33">
<path d="M43.9999 4H18.7329V36.1284H43.9999V4Z" fill="white"/>
</mask>
<g mask="url(#mask1_4772_51813)">
<path d="M38.7276 36.1284H23.9947C21.0902 36.1284 18.7329 33.7711 18.7329 30.8666V9.26177C18.7329 6.35727 21.0902 4 23.9947 4H31.94C33.729 4 35.4443 4.69455 36.7176 5.95738L41.8321 10.9666C43.2107 12.3346 43.9894 14.1868 43.9999 16.1336V30.8666C43.9999 33.7711 41.6427 36.1284 38.7382 36.1284C38.7382 36.1284 38.7382 36.1284 38.7276 36.1284ZM23.9842 6.10471C22.2373 6.10471 20.8271 7.51486 20.8271 9.26177V30.8245C20.8271 32.5714 22.2373 33.9816 23.9842 33.9816H38.7171C40.464 33.9816 41.8742 32.5714 41.8742 30.8245V16.0916C41.8742 14.713 41.3059 13.3975 40.3272 12.4294L35.2338 7.46225C34.3499 6.58879 33.1712 6.10471 31.9294 6.10471H23.9842Z" fill="#899294"/>
</g>
<path d="M24.8453 13.4712H17.8825C11.3178 13.4712 8.03548 13.4712 5.99611 15.5781C4.59195 17.0289 4.15459 19.0883 4.01837 22.4442C3.99135 23.1098 3.97784 23.4426 4.09784 23.6645C4.21783 23.8865 4.69686 24.1636 5.65491 24.7178C6.71893 25.3331 7.43816 26.509 7.43816 27.8583C7.43816 29.2078 6.71893 30.3836 5.65492 30.999C4.69687 31.5532 4.21783 31.8301 4.09783 32.0522C3.97784 32.2742 3.99135 32.607 4.01837 33.2725C4.15459 36.6284 4.59195 38.6879 5.99611 40.1386C8.03548 42.2456 11.3178 42.2456 17.8825 42.2456H24.8453C31.4099 42.2456 34.6922 42.2456 36.7316 40.1386C38.1358 38.6879 38.5731 36.6284 38.7094 33.2725C38.7363 32.607 38.7499 32.2742 38.6298 32.0522C38.5099 31.8301 38.0308 31.5532 37.0728 30.999C36.0087 30.3836 35.2896 29.2078 35.2896 27.8583C35.2896 26.509 36.0087 25.3331 37.0728 24.7178C38.0308 24.1636 38.5099 23.8865 38.6298 23.6645C38.7499 23.4426 38.7363 23.1098 38.7094 22.4443C38.5731 19.0884 38.1358 17.0289 36.7316 15.5781C34.6922 13.4712 31.4099 13.4712 24.8453 13.4712Z" fill="#A72B77"/>
<path fill-rule="evenodd" clip-rule="evenodd" d="M17.4232 21.1348C17.8403 21.5396 17.8503 22.2058 17.4455 22.6229C15.3035 24.83 15.3035 28.4211 17.4455 30.6283C17.8503 31.0453 17.8403 31.7116 17.4232 32.1163C17.0061 32.5211 16.3399 32.5111 15.9351 32.0941C13.0006 29.0704 13.0006 24.1808 15.9351 21.1571C16.3399 20.74 17.0061 20.73 17.4232 21.1348ZM26.3568 21.1348C26.7738 20.73 27.4401 20.74 27.8449 21.1571C30.7794 24.1808 30.7794 29.0704 27.8449 32.0941C27.4401 32.5111 26.7738 32.5211 26.3568 32.1163C25.9397 31.7116 25.9297 31.0453 26.3345 30.6283C28.4765 28.4211 28.4765 24.83 26.3345 22.6229C25.9297 22.2058 25.9397 21.5396 26.3568 21.1348ZM19.4658 23.2395C19.8829 23.6442 19.8929 24.3105 19.4881 24.7276C18.4742 25.7724 18.4742 27.4788 19.4881 28.5235C19.8929 28.9406 19.8829 29.6069 19.4658 30.0116C19.0488 30.4164 18.3825 30.4064 17.9778 29.9894C16.1713 28.1281 16.1714 25.1231 17.9777 23.2618C18.3825 22.8447 19.0487 22.8347 19.4658 23.2395ZM24.3142 23.2395C24.7313 22.8347 25.3975 22.8447 25.8023 23.2618C27.6086 25.1231 27.6086 28.1281 25.8022 29.9894C25.3975 30.4064 24.7312 30.4164 24.3141 30.0116C23.8971 29.6069 23.8871 28.9406 24.2919 28.5235C25.3058 27.4788 25.3058 25.7724 24.2919 24.7276C23.8871 24.3105 23.8971 23.6442 24.3142 23.2395ZM20.0484 26.6256C20.0484 25.6085 20.8729 24.7839 21.89 24.7839C22.9071 24.7839 23.7316 25.6085 23.7316 26.6256C23.7316 27.2514 23.4195 27.8043 22.9423 28.1371V34.2551H23.4685C24.0497 34.2551 24.5209 34.7263 24.5209 35.3075C24.5209 35.8887 24.0497 36.3598 23.4685 36.3598H20.3115C19.7303 36.3598 19.2591 35.8887 19.2591 35.3075C19.2591 34.7263 19.7303 34.2551 20.3115 34.2551H20.8376V28.1371C20.3605 27.8043 20.0484 27.2514 20.0484 26.6256Z" fill="white"/>
</g>
</g>
<defs>
<clipPath id="clip0_4772_51813">
<rect width="48" height="48" fill="white"/>
</clipPath>
</defs>
</svg>
