<?xml version="1.0" encoding="utf-8"?>
<svg width="96" height="96" viewBox="0 0 96 96" fill="none" xmlns="http://www.w3.org/2000/svg">
<path d="M78.3474 33.23C78.3474 31.0842 77.9584 22.9502 77.3748 20.9042C75.77 14.8161 72.3173 10.275 66.7734 7.48047C63.1262 5.63409 59.1871 4.23683 55.1022 4.23683C45.4247 4.13703 25.8267 4.08712 25.8267 4.08712C19.0671 3.98732 15.9548 7.43057 16.052 13.9179C16.052 13.9179 16.052 37.5715 16.052 49.4482C16.3924 49.4482 18.9212 47.7016 19.9424 47.4521C19.8938 38.8191 19.8938 22.2515 19.8938 13.8181C19.8938 10.7241 22.763 8.22901 25.7781 8.22901C35.4555 8.22901 45.2788 8.22901 54.9563 8.22901C58.1659 8.22901 61.4241 9.17715 64.3905 10.5245C69.1077 12.7202 71.9769 16.9619 73.3385 22.002C73.9221 24.2476 74.4084 32.5314 74.4084 34.8269C74.4084 35.3259 74.4084 35.8249 74.4084 36.3239C74.5056 36.3239 74.6515 36.3239 74.7488 36.3239C76.0618 36.3239 77.2776 36.6234 78.3474 37.1723C78.3961 35.8748 78.3474 34.5275 78.3474 33.23Z" fill="#A72B77"/>
<path d="M78.3474 34.0284C78.3474 31.8826 77.9584 23.7486 77.3748 21.7026C75.77 15.6145 72.3173 11.0734 66.7734 8.27891C63.1262 6.43253 59.1871 5.03527 55.1022 5.03527C45.3761 4.98536 25.7781 4.93546 25.7781 4.93546C19.0671 4.78575 15.9548 8.22901 16.052 14.7662C16.052 14.7662 16.052 38.4198 16.052 50.2966C16.3924 50.2966 18.9212 48.55 19.9424 48.3005C19.8938 39.6674 19.8938 23.0999 19.8938 14.6664C19.8938 11.5725 22.763 9.07734 25.7781 9.07734C35.4555 9.07734 45.2788 9.07734 54.9563 9.07734C58.1659 9.07734 61.4241 10.0255 64.3905 11.3728C69.1077 13.5685 71.9769 17.8102 73.3385 22.8503C73.9221 25.0959 74.4084 33.3797 74.4084 35.6752C74.4084 36.1742 74.4084 36.6733 74.4084 37.1723C74.5056 37.1723 74.6515 37.1723 74.7488 37.1723C76.0618 37.1723 77.2776 37.4717 78.3474 38.0206C78.3961 36.7232 78.3474 35.3758 78.3474 34.0284Z" fill="#A72B77"/>
<path d="M22.7143 91.8152C21.4499 91.8152 20.1369 92.0148 18.9211 91.4659C16.5869 90.3181 15.2738 86.7252 16.3923 84.2799C16.7327 83.5314 17.3163 83.1322 18.0944 83.1821C19.067 83.232 19.6019 83.8807 19.7965 84.8289C20.5259 88.0725 20.5259 88.0725 23.8328 88.1224C24.465 88.1224 25.1458 88.1224 25.7294 88.2721C26.6533 88.5216 27.1396 89.2203 27.0424 90.2682C26.9451 91.1665 26.3616 91.7154 25.4862 91.7653C24.5622 91.8651 23.6383 91.8152 22.7143 91.8152Z" fill="#A72B77"/>
<path d="M71.8308 91.8152C71.3931 91.8152 70.8582 91.8651 70.2746 91.8152C69.2047 91.7154 68.5726 91.1166 68.5239 90.0187C68.5239 89.0207 69.1075 88.2721 70.0315 88.2222C71.8308 88.1224 73.4842 87.823 74.9918 86.6753C75.6726 86.1263 76.4993 86.5256 77.0829 87.2242C77.6664 87.9228 77.6664 88.6713 77.2288 89.4199C76.013 91.5158 74.165 92.0647 71.8308 91.8152Z" fill="#A72B77"/>
<path d="M78.2501 80.6371C78.2501 81.3357 78.2987 82.0344 78.2501 82.733C78.1528 83.5314 77.6179 84.0304 76.5966 84.0803C75.5754 84.1302 74.8946 83.6312 74.7973 82.8827C74.6514 81.3856 74.6514 79.8885 74.7487 78.3915C74.7973 77.643 75.4781 77.1439 76.4994 77.1439C77.5692 77.1439 78.2014 77.6929 78.2501 78.5911C78.2987 79.2897 78.2501 79.9884 78.2501 80.6371Z" fill="#A72B77"/>
<path d="M78.2987 71.7046C78.2987 72.3533 78.3474 73.0021 78.2987 73.6009C78.2501 74.4492 77.8124 75.0979 76.6453 75.1478C75.5268 75.1977 74.846 74.6488 74.7487 73.8005C74.6515 72.3533 74.6515 70.9062 74.7487 69.459C74.7974 68.7105 75.4782 68.1615 76.4508 68.1615C77.5207 68.1615 78.1528 68.7105 78.2015 69.5588C78.2987 70.3073 78.2501 71.006 78.2987 71.7046C78.2501 71.7046 78.2501 71.7046 78.2987 71.7046Z" fill="#A72B77"/>
<path d="M33.5589 88.1224C34.7746 88.2721 36.9144 87.5735 36.963 89.9189C37.0116 92.5138 34.726 91.6655 33.2671 91.8152C32.6349 91.8651 32.0027 91.8152 31.3705 91.8152C30.1548 91.7653 29.2308 91.2663 29.2794 89.9189C29.3281 88.5715 30.3007 88.1224 31.4678 88.0725C32.0514 88.1224 32.6835 88.1224 33.5589 88.1224Z" fill="#A72B77"/>
<path d="M42.4583 91.8152C41.4857 91.6655 39.3459 92.5138 39.2487 90.1185C39.1514 87.5735 41.3884 88.2222 42.8959 88.1224C43.674 88.0725 44.4521 88.0725 45.2302 88.1723C46.2514 88.322 46.9809 88.8709 46.9809 89.9688C46.9809 91.0666 46.3001 91.6655 45.2302 91.7653C44.4521 91.8651 43.674 91.8152 42.4583 91.8152Z" fill="#A72B77"/>
<path d="M63.0773 91.915C62.2506 91.8651 61.3753 91.915 60.5486 91.7653C59.6246 91.6156 59.041 90.9668 59.041 89.9688C59.041 89.0706 59.576 88.4218 60.4027 88.2721C62.0561 87.9727 63.7582 87.9727 65.4602 88.2721C66.3842 88.4218 66.9191 89.1704 66.8705 90.1684C66.8219 91.1665 66.1897 91.7653 65.2171 91.8152C64.4876 91.8651 63.0773 91.8651 63.0773 91.915Z" fill="#A72B77"/>
<path d="M19.7965 67.2633C19.6993 68.1615 20.3801 70.3572 18.0458 70.4071C15.6629 70.457 16.2951 68.2613 16.1979 66.8142C16.1492 66.0157 16.1979 65.2173 16.2465 64.4189C16.2951 63.2711 16.8787 62.4727 18.0945 62.4727C19.1643 62.5226 19.6993 63.2711 19.7965 64.3191C19.8452 65.1175 19.7965 65.9159 19.7965 67.2633Z" fill="#A72B77"/>
<path d="M19.8937 76.6948C19.845 77.5432 19.845 78.4414 19.6991 79.2897C19.5532 80.1381 18.9211 80.687 18.0457 80.687C17.0731 80.687 16.3923 80.1381 16.295 79.14C16.1978 77.643 16.1978 76.096 16.1978 74.5989C16.2464 73.4013 16.8299 72.6527 18.0457 72.7026C19.1156 72.7525 19.6991 73.4512 19.7478 74.549C19.7964 75.2476 19.7478 75.9962 19.7478 76.6948C19.845 76.6948 19.8937 76.6948 19.8937 76.6948Z" fill="#A72B77"/>
<path d="M52.8165 91.8152C52.1843 91.8152 51.5521 91.8651 50.9199 91.8152C49.85 91.7154 49.1692 91.2164 49.1692 90.0686C49.1692 88.9708 49.8986 88.2721 50.9199 88.2222C52.3302 88.1224 53.7404 88.1224 55.1507 88.2222C56.2692 88.322 56.9987 89.0207 56.9014 90.2682C56.8042 91.416 55.9774 91.8152 54.9562 91.8651C54.2267 91.8651 53.4973 91.8651 52.8165 91.8152Z" fill="#A72B77"/>
<path d="M16.1979 56.0852C16.0034 54.0392 16.9273 52.1928 19.1157 51.1449C20.2342 50.596 21.3527 50.596 21.9849 51.8934C22.5685 53.0911 21.9849 53.9893 20.8664 54.4384C19.7965 54.8876 19.7479 55.7359 19.7479 56.7339C19.7479 58.1312 19.7479 59.778 17.9486 59.778C16.0034 59.7281 16.2465 57.9316 16.1979 56.0852Z" fill="#A72B77"/>
<path d="M37.6437 54.3885C36.5738 54.2388 34.4341 54.9874 34.4341 52.5921C34.4341 50.2966 36.5252 50.7956 37.9841 50.7457C38.6649 50.6958 39.3944 50.7457 40.0752 50.7956C41.1451 50.8954 41.9718 51.3944 41.9718 52.642C41.9718 53.8895 41.1937 54.3885 40.0752 54.4384C39.3457 54.3885 38.6649 54.3885 37.6437 54.3885Z" fill="#A72B77"/>
<path d="M27.8206 54.3386C27.1397 54.3386 26.4103 54.3885 25.7295 54.3386C24.8055 54.2388 24.1733 53.7398 24.1247 52.6919C24.076 51.6938 24.6596 50.9952 25.5349 50.8455C27.0911 50.5461 28.7445 50.596 30.3007 50.8455C31.2247 50.9952 31.8082 51.6938 31.711 52.6919C31.6623 53.6899 31.0302 54.2388 30.0575 54.3386C29.3767 54.3885 28.5986 54.3386 27.8206 54.3386Z" fill="#A72B77"/>
<path d="M72.6091 51.4942C72.2687 51.4443 71.4906 51.5441 71.0043 51.1948C69.1077 49.9472 67.7461 51.1449 66.2872 52.093C65.9467 52.2926 65.5091 52.4922 65.8009 53.0911C66.2385 53.9893 69.205 55.1371 70.1776 54.6879C73.6303 53.2408 77.5694 54.638 79.2228 57.9815C80.1954 59.9776 80.2441 62.0236 79.0283 63.9199C77.8126 65.7662 76.0132 66.5148 73.9221 66.4649C70.4207 66.3651 67.5029 63.6703 67.1625 60.0774C67.0166 58.7799 66.2872 58.2809 65.4118 57.732C58.409 53.3905 51.4063 49.049 44.4035 44.7075C43.82 44.3582 42.8473 44.1586 42.9932 43.2603C43.1391 42.3122 44.0631 42.0128 44.8412 41.7134C46.1542 41.2144 47.2727 41.7633 48.3912 42.412C52.1357 44.7075 55.8803 47.003 59.5762 49.3983C60.7919 50.1968 61.8618 50.2466 63.0289 49.3484C63.6125 48.8993 64.2447 48.55 64.8769 48.2007C66.2385 47.4521 67.1139 46.6038 67.357 44.7574C67.7947 41.2643 71.6851 38.6693 75.0893 39.1684C79.4174 39.8171 81.4112 44.5578 78.931 48.2506C77.4235 50.3964 75.4297 51.4942 72.6091 51.4942ZM73.0954 48.0011C74.9434 47.9511 76.5482 46.4042 76.4509 44.7075C76.3536 43.2603 75.4297 42.7114 74.1653 42.6615C72.4632 42.6116 70.5666 44.3083 70.5666 45.8054C70.518 47.1527 71.5392 48.0011 73.0954 48.0011ZM72.8523 57.6322C71.7824 57.6322 70.6639 57.9815 70.518 59.5784C70.3721 61.1253 72.1228 62.8719 73.9221 62.9218C75.1865 62.9218 76.3536 62.6224 76.4509 60.9756C76.5482 59.229 74.992 57.732 72.8523 57.6322Z" fill="#A72B77"/>
<path d="M45.8136 64.0197C45.619 63.9698 45.0841 63.9199 44.6464 63.7202C43.917 63.4208 43.1389 62.9717 42.993 62.1234C42.8471 61.1752 43.8197 61.0255 44.3547 60.6762C47.9047 58.4306 51.4547 56.2349 55.0047 54.0392C56.2205 53.2907 59.3328 54.2388 59.9164 55.4864C60.2081 56.1351 59.7218 56.3347 59.3328 56.5343C55.5396 58.8797 51.7951 61.2251 48.0019 63.5206C47.467 63.9199 46.8348 64.0197 45.8136 64.0197Z" fill="#A72B77"/>
</svg>
