<?xml version="1.0" encoding="utf-8"?>
<svg width="96" height="96" viewBox="0 0 96 96" fill="none" xmlns="http://www.w3.org/2000/svg">
<path d="M14 48.0378C14 35.5053 14 22.9728 14 10.4402C14 5.45886 17.2814 1.35712 22.1442 0.269918C22.8756 0.101895 23.6366 0.0228254 24.3878 0.0228254C35.2895 0.00305803 46.1912 -0.0167094 57.0929 0.0228254C61.6691 0.0425928 66.0673 0.981544 70.1987 3.02747C76.4155 6.11118 80.2899 11.1024 82.1085 17.7443C82.7312 20.0175 83.1661 22.3402 83.1859 24.6925C83.2649 33.3704 83.2847 42.0483 83.2946 50.7262C83.3143 62.3395 83.3045 73.943 83.2946 85.5563C83.2946 90.3895 80.2207 94.4319 75.5952 95.6278C74.7155 95.8551 73.7766 95.9836 72.8673 95.9836C56.7074 96.0034 40.5575 96.0034 24.3976 95.9935C19.4261 95.9935 15.3442 92.7319 14.257 87.8889C14.0791 87.1081 14 86.2976 14 85.497C14 73.004 14 60.5209 14 48.0378ZM18.7738 47.9686C18.7738 47.9686 18.7837 47.9686 18.7738 47.9686C18.7738 60.5308 18.7738 73.1029 18.7837 85.665C18.7837 88.7389 21.2349 91.1999 24.2988 91.1999C40.5377 91.1999 56.7766 91.1999 73.0155 91.1999C76.0597 91.1999 78.5208 88.7488 78.5208 85.7145C78.5306 65.9866 78.5306 46.2489 78.5208 26.521C78.5208 23.9809 78.2045 21.4704 77.5324 19.0193C76.0103 13.4844 72.7684 9.3728 67.4807 6.98095C64.1795 5.49839 60.7005 4.78677 57.0929 4.77688C46.2406 4.767 35.3883 4.767 24.5261 4.767C21.1459 4.767 18.7738 7.13909 18.7738 10.5094C18.7738 23.0024 18.7738 35.4855 18.7738 47.9686Z" fill="#3F484A"/>
<path d="M62.1765 39.7179L62.0553 39.6027C62.0553 39.7482 62.1098 39.833 62.1159 39.9178C62.1284 40.0407 62.1284 40.1646 62.1159 40.2875C62.0606 40.7495 61.8464 41.1779 61.5099 41.4994C61.2591 41.7492 60.9919 41.982 60.71 42.1962C60.2253 42.5659 59.7344 42.9295 59.2315 43.2749C57.347 44.5716 55.3897 45.7714 53.4203 46.9106C51.1783 48.268 48.9019 49.5546 46.5911 50.7706C45.4398 51.3766 44.2703 51.9341 43.0887 52.4794C41.8336 53.0588 40.4715 53.3704 39.0893 53.3944C38.3206 53.4139 37.5517 53.3611 36.7927 53.2369C35.7689 53.0664 34.7697 52.7714 33.8175 52.3582C33.6417 52.2794 33.466 52.1886 33.2903 52.1098C33.238 52.1029 33.185 52.1029 33.1327 52.1098L33.3448 52.2673L34.1568 52.8127C36.7443 54.5094 39.4166 56.0667 42.1555 57.515C43.2826 58.1209 44.4157 58.6784 45.5852 59.1874C46.116 59.429 46.6677 59.6217 47.2335 59.7631C47.4924 59.8253 47.7623 59.8253 48.0212 59.7631C48.365 59.68 48.703 59.5748 49.0332 59.448C49.833 59.1389 50.6087 58.7754 51.3782 58.3997C53.5233 57.3453 55.62 56.1818 57.656 54.9699C59.2557 54.0246 60.8312 53.043 62.3522 51.9765C62.8954 51.6044 63.4154 51.1997 63.9095 50.7645C64.1104 50.5732 64.3006 50.3709 64.4791 50.1586C64.6443 49.971 64.7571 49.7432 64.8063 49.4981C65.1827 47.8415 65.1411 46.1172 64.6852 44.4807C64.1862 42.7372 63.3321 41.1156 62.1765 39.7179Z" fill="#3F484A"/>
<path d="M66.5455 38.4575C66.5512 36.175 66.442 33.8937 66.2182 31.6222C66.1645 31.0076 66.055 30.3991 65.891 29.8043C65.8135 29.5313 65.6699 29.2815 65.4729 29.0772C65.1987 28.8118 64.9072 28.5648 64.6003 28.3379C63.9398 27.8168 63.2551 27.332 62.5522 26.8715C59.648 24.9456 56.6421 23.1776 53.5476 21.5754C52.5477 21.0542 51.5297 20.5574 50.4814 20.1271C50.0686 19.9466 49.6408 19.8026 49.2028 19.6969C48.8862 19.6165 48.5539 19.6207 48.2394 19.709C47.0978 20.0633 46.0272 20.615 45.0762 21.3391C43.2533 22.7768 41.8647 24.6919 41.0648 26.8715C41.061 26.9158 41.061 26.9604 41.0648 27.0048L41.2284 26.8715C41.3947 26.724 41.5911 26.6144 41.804 26.5503C42.18 26.4409 42.5794 26.4409 42.9554 26.5503C43.253 26.6345 43.5463 26.7336 43.834 26.8472C44.6278 27.1502 45.3913 27.5199 46.1548 27.8895C48.1303 28.859 50.0633 29.9073 51.9781 30.992C54.3414 32.3312 56.6743 33.7128 58.9467 35.1913C59.8799 35.7973 60.7949 36.4033 61.7099 37.0638C62.4438 37.5734 63.1009 38.1856 63.6611 38.8816C64.8928 40.4503 65.7247 42.2949 66.0849 44.2565C66.1777 44.6976 66.2345 45.1454 66.2546 45.5957C66.2546 45.6623 66.2546 45.7411 66.3334 45.7957C66.3334 45.7472 66.3334 45.7229 66.3334 45.6987C66.3818 44.9049 66.4424 44.1111 66.4788 43.3173C66.5455 41.6933 66.5576 40.0754 66.5455 38.4575Z" fill="#3F484A"/>
<path d="M38.3925 51.8977C38.8712 51.8977 39.3438 51.8492 39.8226 51.8068C40.0589 51.8068 40.2952 51.7401 40.5861 51.6977L40.3619 51.6068C40.1319 51.5247 39.9243 51.3898 39.7559 51.213C39.61 51.0587 39.4857 50.8855 39.3863 50.6979C39.2564 50.436 39.1666 50.1562 39.1196 49.8677C38.9972 49.2513 38.9122 48.6281 38.8651 48.0014C38.7561 46.85 38.6955 45.6926 38.653 44.5353C38.6167 43.6445 38.5985 42.7477 38.5803 41.8569C38.5137 39.2028 38.544 36.5547 38.6288 33.9006C38.6773 32.2645 38.7864 30.6345 38.9257 29.0045C38.9257 28.7075 38.9863 28.3985 39.0287 28.1076C39.2056 27.0062 39.5683 25.9427 40.1013 24.9627C41.0307 23.2049 42.3665 21.6945 43.9976 20.5574C44.0582 20.5149 44.1431 20.4846 44.1734 20.3756H44.1067L43.3432 20.7452C40.2869 22.2826 37.3136 23.9796 34.4356 25.8292C33.46 26.4352 32.4965 27.0957 31.5815 27.8047C31.213 28.0847 30.8666 28.3926 30.5453 28.7257C30.3553 28.912 30.2156 29.1434 30.1393 29.3983C30.0484 29.7316 29.9696 30.0649 29.909 30.4042C29.7855 31.1629 29.7005 31.9274 29.6545 32.6948C29.5697 33.8219 29.5151 34.953 29.4909 36.0882C29.4545 38.6453 29.4545 41.2207 29.5757 43.7899C29.6363 44.8746 29.7091 45.9593 29.8545 47.0379C29.8988 47.4017 29.9676 47.762 30.0605 48.1165C30.1621 48.5663 30.4197 48.9656 30.7877 49.2436L30.8483 49.2981C31.9482 50.2635 33.2445 50.9788 34.6476 51.3947C35.8621 51.7563 37.1256 51.926 38.3925 51.8977Z" fill="#3F484A"/>
<path d="M58.4523 73.5548C58.1219 73.9274 57.7187 74.2252 57.2686 74.429C56.8185 74.6328 56.3315 74.7381 55.8391 74.7381C55.3466 74.7381 54.8597 74.6328 54.4096 74.429C53.9595 74.2252 53.5562 73.9274 53.2258 73.5548C52.8957 73.9284 52.4923 74.2271 52.0418 74.4315C51.5914 74.636 51.1039 74.7416 50.6109 74.7416C50.1179 74.7416 49.6303 74.636 49.1799 74.4315C48.7294 74.2271 48.3261 73.9284 47.9959 73.5548C47.6655 73.9274 47.2623 74.2252 46.8122 74.429C46.3621 74.6328 45.8751 74.7381 45.3827 74.7381C44.8902 74.7381 44.4033 74.6328 43.9532 74.429C43.503 74.2252 43.0998 73.9274 42.7694 73.5548C42.439 73.9274 42.0357 74.2252 41.5856 74.429C41.1355 74.6328 40.6485 74.7381 40.1561 74.7381C39.6637 74.7381 39.1767 74.6328 38.7266 74.429C38.2765 74.2252 37.8732 73.9274 37.5428 73.5548C37.2125 73.9257 36.8098 74.2221 36.3607 74.4249C35.9115 74.6277 35.4257 74.7325 34.9346 74.7325C34.4434 74.7325 33.9576 74.6277 33.5085 74.4249C33.0593 74.2221 32.6566 73.9257 32.3263 73.5548L32.1897 73.6942L29.0718 76.8791C29.0273 76.9297 28.971 76.9681 28.9081 76.9907C28.8452 77.0133 28.7778 77.0193 28.712 77.0082C28.5113 76.979 28.3159 76.9195 28.1324 76.8315C27.8682 76.7035 27.6199 76.5438 27.3929 76.3556C27.2563 76.2434 27.253 76.1653 27.3929 76.0395C28.5344 74.8725 29.678 73.7078 30.824 72.5453C31.0067 72.3766 31.159 72.1764 31.2737 71.9539C31.3798 71.7236 31.4359 71.4727 31.4381 71.2183C31.4403 70.9639 31.3885 70.712 31.2864 70.4799C31.1842 70.2478 31.034 70.041 30.8462 69.8737C30.6583 69.7064 30.4372 69.5826 30.1981 69.5106C29.9589 69.4387 29.7073 69.4204 29.4605 69.457C29.2138 69.4937 28.9777 69.5843 28.7685 69.7227C28.5593 69.8612 28.382 70.0442 28.2486 70.2591C28.1152 70.4741 28.029 70.716 27.9958 70.9681C27.9611 71.2226 27.9822 71.4818 28.0577 71.727C28.1331 71.9721 28.2611 72.197 28.4322 72.3855C28.5588 72.5283 28.7054 72.6541 28.8419 72.79L29.5082 73.4698C29.6148 73.5786 29.6148 73.6704 29.5082 73.7621C29.2126 74.0173 28.874 74.2154 28.5088 74.3468C28.3844 74.3845 28.2575 74.4129 28.1291 74.4317C28.0816 74.4438 28.0318 74.4433 27.9846 74.4302C27.9374 74.4171 27.8942 74.3919 27.8592 74.357C27.5561 74.0409 27.233 73.7417 26.9598 73.3984C26.395 72.7061 26.1198 71.8148 26.1937 70.9172C26.2599 70.0508 26.6336 69.2388 27.2447 68.6336C27.8557 68.0283 28.6623 67.6714 29.5129 67.6297C30.3636 67.5879 31.1999 67.8644 31.8651 68.407C32.5302 68.9497 32.9785 69.7214 33.1258 70.5772C33.1557 70.7608 33.1657 70.9477 33.1791 71.1313C33.19 71.4621 33.2767 71.7857 33.4322 72.0762C33.6087 72.3851 33.8729 72.632 34.1899 72.7842C34.507 72.9363 34.8618 72.9867 35.2075 72.9284C35.5532 72.8702 35.8734 72.7062 36.1256 72.4581C36.3779 72.21 36.5504 71.8895 36.6201 71.5392C36.6362 71.4495 36.6441 71.3584 36.6434 71.2673C36.6434 70.8016 36.6434 70.3325 36.6434 69.8669C36.6434 69.7173 36.7134 69.6459 36.85 69.6629C37.1939 69.695 37.531 69.781 37.8493 69.9178C37.9834 69.9861 38.1135 70.0621 38.2391 70.1456C38.3012 70.1813 38.3519 70.2347 38.385 70.2993C38.4181 70.3638 38.4322 70.4367 38.4256 70.5093C38.4256 70.7438 38.4256 70.9817 38.4256 71.2163C38.4206 71.4357 38.4597 71.6539 38.5405 71.8573C38.6213 72.0607 38.742 72.2451 38.8953 72.3991C39.1088 72.6376 39.3846 72.809 39.6902 72.8933C39.9958 72.9775 40.3186 72.9712 40.6208 72.875C40.9317 72.7991 41.2139 72.6317 41.4324 72.3937C41.6509 72.1556 41.7961 71.8573 41.85 71.5358C41.9025 71.2939 41.9041 71.0434 41.8547 70.8008C41.8053 70.5583 41.706 70.3292 41.5634 70.1287C41.4207 69.9282 41.238 69.7609 41.0273 69.6378C40.8166 69.5148 40.5827 69.4387 40.341 69.4148C40.2577 69.4148 40.1711 69.4148 40.0878 69.4148H36.9033C36.6834 69.4148 36.6401 69.374 36.6634 69.1531C36.6949 68.8064 36.7827 68.4676 36.9233 68.1503C36.9914 68.0151 37.0682 67.8845 37.1531 67.7595C37.1854 67.7063 37.2313 67.6633 37.286 67.6351C37.3406 67.607 37.4019 67.5947 37.4629 67.5997H40.1611C40.6698 67.5971 41.1723 67.7133 41.6301 67.9396C42.1617 68.1831 42.6239 68.5604 42.9734 69.036C43.323 69.5116 43.5485 70.07 43.6288 70.6588C43.657 70.8421 43.6715 71.0273 43.6721 71.2129C43.6753 71.6585 43.8436 72.0863 44.1432 72.4105C44.4429 72.7346 44.8516 72.9311 45.2874 72.9603C45.7231 72.9896 46.1536 72.8495 46.4923 72.5682C46.831 72.287 47.0528 71.8853 47.1132 71.444C47.1169 71.3908 47.1169 71.3374 47.1132 71.2842C47.1132 70.1512 47.1132 69.0273 47.1132 67.9124C47.1132 67.6711 47.1532 67.6303 47.383 67.6575C47.7093 67.6904 48.0285 67.7752 48.329 67.909C48.4587 67.975 48.5844 68.0488 48.7055 68.1299C48.7665 68.1668 48.816 68.2205 48.8484 68.2848C48.8809 68.3492 48.8948 68.4216 48.8887 68.4936C48.8887 68.6976 48.8887 68.8981 48.8887 69.1021C48.8887 69.7955 48.8887 70.49 48.8887 71.1857C48.8887 71.6535 49.0708 72.1022 49.395 72.4331C49.7193 72.7639 50.159 72.9498 50.6175 72.9498C51.076 72.9498 51.5158 72.7639 51.84 72.4331C52.1642 72.1022 52.3464 71.6535 52.3464 71.1857C52.3464 68.6613 52.3464 66.1358 52.3464 63.6092C52.3464 63.5684 52.3464 63.5277 52.3464 63.4869C52.3464 63.3543 52.4097 63.2897 52.5329 63.2999C53.0349 63.3296 53.52 63.4951 53.9387 63.7792C53.9943 63.8161 54.0401 63.8664 54.072 63.9257C54.104 63.985 54.1211 64.0514 54.1219 64.1191C54.1219 65.1388 54.1219 66.1857 54.1219 67.219C54.1219 68.5242 54.1219 69.8306 54.1219 71.1381C54.1258 71.5786 54.2909 72.0018 54.5847 72.3247C54.8785 72.6475 55.2799 72.8468 55.7101 72.8834C56.1404 72.92 56.5686 72.7912 56.9107 72.5225C57.2528 72.2537 57.4843 71.8642 57.5596 71.4304C57.5636 71.3772 57.5636 71.3238 57.5596 71.2707C57.5596 70.1512 57.5596 69.0307 57.5596 67.909C57.5596 67.875 57.5596 67.8444 57.5596 67.8104C57.5596 67.6575 57.6229 67.5997 57.7728 67.6133C58.1739 67.6493 58.5642 67.7648 58.922 67.9532C59.0204 68.0102 59.115 68.0738 59.2052 68.1435C59.2454 68.1721 59.2783 68.2103 59.3009 68.2547C59.3235 68.2991 59.3353 68.3484 59.3351 68.3985C59.3351 68.4495 59.3351 68.497 59.3351 68.548C59.3351 69.4216 59.3351 70.2917 59.3351 71.1653C59.3322 71.5447 59.4492 71.9149 59.6689 72.2211C59.8885 72.5272 60.199 72.753 60.5543 72.8648C60.717 72.917 60.8867 72.9434 61.0573 72.943H66.2105C66.4941 72.9566 66.7768 72.9031 67.0367 72.7866C67.3419 72.6518 67.6013 72.4279 67.7821 72.143C67.9629 71.8581 68.057 71.525 68.0527 71.1857C68.0619 70.9587 68.053 70.7314 68.026 70.5059C67.9599 70.1023 67.758 69.7348 67.4552 69.4666C67.1524 69.1983 66.7674 69.0461 66.3665 69.0361C65.9656 69.026 65.5738 69.1588 65.2584 69.4115C64.943 69.6642 64.7237 70.0211 64.6383 70.4209C64.6125 70.5415 64.5991 70.6645 64.5983 70.788C64.5983 71.1641 64.5983 71.5403 64.5983 71.9165C64.6018 71.9883 64.587 72.0598 64.5555 72.1241C64.524 72.1884 64.4768 72.2433 64.4184 72.2836C64.1457 72.4793 63.836 72.6147 63.509 72.6812C63.3474 72.7179 63.1839 72.7451 63.0193 72.7628C62.8794 72.7628 62.8195 72.722 62.8195 72.5827C62.8195 71.9301 62.8195 71.2774 62.8195 70.6248C62.8431 69.8065 63.1554 69.0244 63.6989 68.4223C64.2816 67.7352 65.1063 67.3102 65.994 67.2394C66.8584 67.1562 67.722 67.4053 68.4158 67.9378C69.1096 68.4703 69.5835 69.2479 69.7449 70.1184C69.7835 70.3498 69.8058 70.5839 69.8115 70.8186C69.8274 71.1159 69.8152 71.4142 69.7749 71.7091C69.6576 72.4998 69.2843 73.2277 68.7143 73.7766C68.1444 74.3255 67.4107 74.6639 66.6303 74.7377C66.4537 74.7547 66.2738 74.7377 66.0973 74.7377H61.1006C60.6142 74.7445 60.1319 74.647 59.6849 74.4514C59.2378 74.2558 58.8361 73.9666 58.5056 73.6024L58.4723 73.5684L58.4523 73.5548ZM45.4609 76.4338C45.3184 76.2637 45.1346 76.1348 44.928 76.0599C44.7149 75.9797 44.4841 75.9621 44.2617 76.0089C43.9712 76.0641 43.7093 76.2228 43.5229 76.4568C43.3365 76.6908 43.2377 76.9848 43.2441 77.2862C43.2505 77.5877 43.3617 77.8771 43.5579 78.1026C43.7541 78.3281 44.0224 78.4751 44.315 78.5174C44.6408 78.5631 44.9714 78.4786 45.2376 78.2817C45.5039 78.0847 45.6853 77.7905 45.7441 77.4603C45.7872 77.6878 45.8857 77.9005 46.0306 78.0789C46.173 78.2491 46.3568 78.3781 46.5635 78.4528C46.7766 78.5329 47.0074 78.5506 47.2298 78.5038C47.5203 78.449 47.7824 78.2906 47.969 78.0569C48.1557 77.8232 48.2549 77.5293 48.2489 77.2279C48.2429 76.9264 48.1321 76.637 47.9363 76.4112C47.7404 76.1854 47.4723 76.038 47.1798 75.9953C46.8543 75.9453 46.5225 76.0257 46.2537 76.2195C45.9849 76.4133 45.7999 76.7057 45.7374 77.0354C45.6921 76.8128 45.5937 76.605 45.4509 76.4304L45.4609 76.4338ZM57.8194 78.514C58.1152 78.4695 58.3854 78.318 58.5807 78.0871C58.7761 77.8562 58.8836 77.5614 58.8836 77.2563C58.8836 76.9513 58.7761 76.6565 58.5807 76.4256C58.3854 76.1947 58.1152 76.0432 57.8194 75.9987C57.4916 75.9421 57.1551 76.0189 56.8823 76.2128C56.6094 76.4067 56.422 76.702 56.3604 77.0354C56.2949 76.7072 56.1075 76.4177 55.8373 76.2276C55.5671 76.0374 55.2352 75.9615 54.9114 76.0157C54.6156 76.0602 54.3454 76.2117 54.1501 76.4426C53.9547 76.6735 53.8472 76.9683 53.8472 77.2733C53.8472 77.5784 53.9547 77.8732 54.1501 78.1041C54.3454 78.335 54.6156 78.4865 54.9114 78.531C55.2356 78.5809 55.5661 78.5008 55.8337 78.3075C56.1014 78.1143 56.2853 77.8228 56.3471 77.4943C56.4132 77.8246 56.603 78.1155 56.8761 78.3053C57.1492 78.4951 57.484 78.5687 57.8094 78.5106L57.8194 78.514ZM66.1473 65.822C66.3947 65.8227 66.6368 65.7483 66.8429 65.6084C67.0489 65.4684 67.2095 65.2692 67.3043 65.0359C67.3992 64.8027 67.424 64.5459 67.3757 64.2983C67.3273 64.0506 67.2079 63.8232 67.0327 63.6449C66.8575 63.4665 66.6343 63.3453 66.3914 63.2967C66.1486 63.248 65.897 63.274 65.6687 63.3714C65.4404 63.4688 65.2455 63.6332 65.1089 63.8438C64.9723 64.0544 64.9001 64.3016 64.9014 64.5542C64.904 64.8893 65.0359 65.2099 65.2684 65.4465C65.501 65.6831 65.8155 65.8168 66.1439 65.8186L66.1473 65.822Z" fill="#3F484A"/>
</svg>
