<?xml version="1.0" encoding="utf-8"?><svg width="24" height="24" viewBox="0 0 24 24" fill="none" xmlns="http://www.w3.org/2000/svg">
<path d="M20.6271 14.437C20.8352 13.733 20.9597 13.007 20.9978 12.2739V11.5805C20.9728 11.0675 20.9079 10.5572 20.8038 10.0542C20.4475 8.41271 19.6333 6.90587 18.4554 5.70844C16.7788 4.00375 14.4966 3.03052 12.1058 3.00071C9.71502 2.97089 7.40927 3.88691 5.69073 5.54927C5.04 6.17861 4.49121 6.90542 4.06408 7.7036C3.41595 8.91177 3.05202 10.2519 3 11.6219L3 12.1344C3.03359 12.7359 3.11895 13.3333 3.25512 13.9202C3.65432 15.5967 4.53683 17.1191 5.79322 18.2986C7.12087 19.5558 8.79813 20.3813 10.6041 20.6666C12.4101 20.9519 14.2602 20.6836 15.9107 19.8969C16.1706 19.7526 16.4485 19.6434 16.7371 19.572C16.938 19.5744 17.1339 19.6342 17.3019 19.7443C18.2878 20.1824 19.3698 20.3596 20.444 20.2589C20.6456 20.246 20.8379 20.1697 20.9935 20.0408V19.8948C20.8861 19.7151 20.7481 19.5557 20.5857 19.4238C20.2596 19.1419 19.9928 18.7979 19.8007 18.412C19.56 17.8086 19.5562 17.1365 19.7898 16.5302C20.0319 15.8172 20.444 15.1674 20.6271 14.437ZM14.7398 12.843H8.94185C8.77732 12.8432 8.6161 12.7968 8.47681 12.7092C8.33753 12.6216 8.22586 12.4964 8.15469 12.3481C8.07383 12.1447 8.04752 11.9237 8.07838 11.707C8.0997 11.561 8.15769 11.4229 8.24692 11.3054C8.33615 11.188 8.45371 11.0951 8.58861 11.0354C8.79193 10.9635 9.00844 10.9367 9.22314 10.9569H15.0233C15.2342 10.9547 15.4389 11.029 15.5993 11.1661C15.7596 11.3032 15.8649 11.4939 15.8955 11.7026C15.9366 11.8979 15.9169 12.101 15.8389 12.2847C15.7609 12.4684 15.6284 12.6237 15.4594 12.7296C15.2357 12.8344 14.987 12.8737 14.742 12.843H14.7398ZM11.1245 15.73C10.3744 15.73 9.62217 15.73 8.87208 15.73C8.65315 15.7102 8.44926 15.6101 8.29956 15.4492C8.14985 15.2882 8.06487 15.0776 8.06093 14.8578C8.04793 14.7388 8.05857 14.6184 8.09222 14.5035C8.12588 14.3886 8.1819 14.2814 8.25706 14.1883C8.33223 14.0951 8.42506 14.0176 8.53022 13.9604C8.63539 13.9032 8.75082 13.8673 8.8699 13.8548C9.60691 13.8395 10.3461 13.8548 11.0853 13.8548C11.2501 13.8497 11.4129 13.8915 11.555 13.9753C11.697 14.059 11.8124 14.1813 11.8877 14.3279C12.0025 14.5939 12.021 14.8915 11.94 15.1696C11.8739 15.3326 11.7614 15.4726 11.6164 15.5722C11.4714 15.6718 11.3004 15.7267 11.1245 15.73ZM12.8406 8.05902H15.0603C15.2487 8.06531 15.4299 8.13245 15.577 8.25037C15.724 8.36829 15.8288 8.53066 15.8758 8.71317C15.9183 8.87113 15.9253 9.03655 15.8963 9.19753C15.8673 9.35851 15.8029 9.51107 15.7079 9.64424C15.6228 9.74217 15.5176 9.82068 15.3994 9.87448C15.2813 9.92827 15.153 9.95608 15.0233 9.95605C14.2972 9.95605 13.5689 9.95605 12.8428 9.95605C12.6917 9.95126 12.5442 9.90887 12.4136 9.83273C12.283 9.75658 12.1734 9.64908 12.0949 9.51995C11.981 9.26596 11.9556 8.98109 12.0229 8.71099C12.0704 8.52854 12.1758 8.3664 12.3232 8.24886C12.4706 8.13132 12.6521 8.06472 12.8406 8.05902Z" fill="#3F484A"/>
</svg>
