<?xml version="1.0" encoding="utf-8"?>
<svg width="48" height="48" viewBox="0 0 48 48" fill="none" xmlns="http://www.w3.org/2000/svg">
<path d="M7 24.0189C7 17.7526 7 11.4864 7 5.22012C7 2.72943 8.60978 0.678562 10.9953 0.134959C11.3542 0.0509475 11.7275 0.0114127 12.096 0.0114127C17.4442 0.00152901 22.7923 -0.00835468 28.1404 0.0114127C30.3854 0.0212964 32.5431 0.490772 34.5698 1.51373C37.6197 3.05559 39.5204 5.55122 40.4126 8.87215C40.718 10.0088 40.9314 11.1701 40.9411 12.3463C40.9799 16.6852 40.9896 21.0241 40.9944 25.3631C41.0041 31.1698 40.9992 36.9715 40.9944 42.7782C40.9944 45.1947 39.4864 47.2159 37.2172 47.8139C36.7857 47.9276 36.3251 47.9918 35.879 47.9918C27.9513 48.0017 20.0285 48.0017 12.1009 47.9968C9.66195 47.9968 7.65943 46.3659 7.12607 43.9444C7.03879 43.554 7 43.1488 7 42.7485C7 36.502 7 30.2605 7 24.0189ZM9.34193 23.9843C9.34193 30.2654 9.34193 36.5514 9.34678 42.8325C9.34678 44.3694 10.5493 45.6 12.0524 45.6C20.0188 45.6 27.9853 45.6 35.9517 45.6C37.4451 45.6 38.6525 44.3744 38.6525 42.8572C38.6573 32.9933 38.6573 23.1244 38.6525 13.2605C38.6525 11.9905 38.4973 10.7352 38.1676 9.50964C37.4209 6.74221 35.8305 4.6864 33.2364 3.49047C31.617 2.7492 29.9102 2.39338 28.1404 2.38844C22.8165 2.3835 17.4926 2.3835 12.1639 2.3835C10.5056 2.3835 9.34193 3.56954 9.34193 5.25471C9.34193 11.5012 9.34193 17.7428 9.34193 23.9843Z" fill="#3F484A"/>
<path d="M23.25 32.5C23.8833 32.5 24.4167 32.2833 24.85 31.85C25.2833 31.4167 25.5 30.8833 25.5 30.25C25.5 29.6167 25.2833 29.0833 24.85 28.65C24.4167 28.2167 23.8833 28 23.25 28C22.6167 28 22.0833 28.2167 21.65 28.65C21.2167 29.0833 21 29.6167 21 30.25C21 30.8833 21.2167 31.4167 21.65 31.85C22.0833 32.2833 22.6167 32.5 23.25 32.5ZM23.25 34.5C22.0667 34.5 21.0625 34.0875 20.2375 33.2625C19.4125 32.4375 19 31.4333 19 30.25C19 29.0667 19.4125 28.0625 20.2375 27.2375C21.0625 26.4125 22.0667 26 23.25 26C24.4333 26 25.4375 26.4125 26.2625 27.2375C27.0875 28.0625 27.5 29.0667 27.5 30.25C27.5 30.6333 27.4458 31.0125 27.3375 31.3875C27.2292 31.7625 27.0667 32.1167 26.85 32.45L28.8 34.4C29 34.6 29.0958 34.8333 29.0875 35.1C29.0792 35.3667 28.975 35.6 28.775 35.8C28.575 35.9833 28.3417 36.0792 28.075 36.0875C27.8083 36.0958 27.575 36 27.375 35.8L25.45 33.875C25.1167 34.0917 24.7625 34.25 24.3875 34.35C24.0125 34.45 23.6333 34.5 23.25 34.5ZM17 40C16.45 40 15.9792 39.8042 15.5875 39.4125C15.1958 39.0208 15 38.55 15 38V35C15 34.7167 15.0958 34.4792 15.2875 34.2875C15.4792 34.0958 15.7167 34 16 34C16.2833 34 16.5208 34.0958 16.7125 34.2875C16.9042 34.4792 17 34.7167 17 35V38H20C20.2833 38 20.5208 38.0958 20.7125 38.2875C20.9042 38.4792 21 38.7167 21 39C21 39.2833 20.9042 39.5208 20.7125 39.7125C20.5208 39.9042 20.2833 40 20 40H17ZM31 40H28C27.7167 40 27.4792 39.9042 27.2875 39.7125C27.0958 39.5208 27 39.2833 27 39C27 38.7167 27.0958 38.4792 27.2875 38.2875C27.4792 38.0958 27.7167 38 28 38H31V35C31 34.7167 31.0958 34.4792 31.2875 34.2875C31.4792 34.0958 31.7167 34 32 34C32.2833 34 32.5208 34.0958 32.7125 34.2875C32.9042 34.4792 33 34.7167 33 35V38C33 38.55 32.8042 39.0208 32.4125 39.4125C32.0208 39.8042 31.55 40 31 40ZM15 27V24C15 23.45 15.1958 22.9792 15.5875 22.5875C15.9792 22.1958 16.45 22 17 22H20C20.2833 22 20.5208 22.0958 20.7125 22.2875C20.9042 22.4792 21 22.7167 21 23C21 23.2833 20.9042 23.5208 20.7125 23.7125C20.5208 23.9042 20.2833 24 20 24H17V27C17 27.2833 16.9042 27.5208 16.7125 27.7125C16.5208 27.9042 16.2833 28 16 28C15.7167 28 15.4792 27.9042 15.2875 27.7125C15.0958 27.5208 15 27.2833 15 27ZM31 27V24H28C27.7167 24 27.4792 23.9042 27.2875 23.7125C27.0958 23.5208 27 23.2833 27 23C27 22.7167 27.0958 22.4792 27.2875 22.2875C27.4792 22.0958 27.7167 22 28 22H31C31.55 22 32.0208 22.1958 32.4125 22.5875C32.8042 22.9792 33 23.45 33 24V27C33 27.2833 32.9042 27.5208 32.7125 27.7125C32.5208 27.9042 32.2833 28 32 28C31.7167 28 31.4792 27.9042 31.2875 27.7125C31.0958 27.5208 31 27.2833 31 27Z" fill="#3F484A"/>
</svg>
