<?xml version="1.0" encoding="utf-8"?><svg width="183" height="76" viewBox="0 0 183 76" fill="none" xmlns="http://www.w3.org/2000/svg">
<path d="M151.264 14.0163C151.089 13.7995 150.936 13.561 150.826 13.2792C149.622 14.5366 147.696 15.1654 145.092 15.1654C143.691 15.1654 142.553 14.9919 141.634 14.6667C140.715 14.3415 140.058 13.8429 139.642 13.1491C139.511 12.9323 139.401 12.6938 139.336 12.4553C139.27 12.2169 139.226 11.9784 139.204 11.7399C139.183 11.5014 139.183 11.2846 139.204 11.0461C139.226 10.8293 139.27 10.6125 139.314 10.3957C139.379 10.1789 139.423 9.9838 139.489 9.81036C139.555 9.63692 139.598 9.48516 139.642 9.35508C139.686 9.225 139.73 9.13828 139.773 9.05156C139.817 8.98651 139.839 8.94315 139.839 8.92147L141.021 9.57188C141.021 9.57188 140.999 9.61524 140.955 9.70196C140.912 9.78868 140.868 9.89708 140.824 10.0488C140.78 10.1789 140.715 10.3524 140.671 10.5475C140.627 10.7426 140.583 10.9377 140.583 11.1329C140.561 11.328 140.583 11.5448 140.627 11.7616C140.671 11.9784 140.736 12.1735 140.846 12.3686C141.13 12.8239 141.612 13.1708 142.334 13.4093C143.056 13.6478 143.976 13.7562 145.092 13.7562C146.099 13.7562 146.974 13.6694 147.675 13.496C148.375 13.3226 148.966 13.0407 149.447 12.6722C149.666 12.4987 149.841 12.3253 149.995 12.1301C150.148 11.935 150.279 11.7399 150.389 11.5231C150.498 11.3063 150.586 11.1112 150.651 10.8944C150.717 10.6776 150.782 10.4824 150.848 10.2656L152.161 10.6125C152.139 10.6993 152.118 10.8077 152.096 10.9161C152.074 11.0245 152.03 11.1545 152.008 11.2846C151.942 11.5448 151.921 11.7833 151.942 11.9567C151.942 12.1518 151.986 12.3469 152.03 12.5638C152.074 12.7806 152.183 12.9757 152.315 13.1274C152.643 13.5394 153.19 13.7345 153.956 13.7345C154.153 13.7345 154.306 13.7995 154.438 13.9296C154.569 14.0597 154.635 14.2114 154.635 14.4066C154.635 14.6017 154.569 14.7535 154.438 14.8835C154.306 15.0136 154.153 15.0787 153.956 15.0787H153.89C152.709 15.122 151.833 14.7535 151.264 14.0163ZM145.355 8.44451L144.238 9.5502L143.1 8.44451L144.216 7.33882L145.355 8.44451ZM148.178 8.44451L147.062 9.5502L145.924 8.42283L147.04 7.31714L148.178 8.44451Z" fill="#191C1D"/>
<path d="M153.365 14.4715C153.365 14.2764 153.431 14.1247 153.562 13.9946C153.694 13.8645 153.869 13.7995 154.044 13.7995C154.547 13.7995 155.029 13.7778 155.444 13.7344C155.882 13.6911 156.254 13.626 156.583 13.5393C156.911 13.4743 157.195 13.3875 157.436 13.2791C157.677 13.1924 157.852 13.1057 157.961 13.019C158.027 12.9756 158.071 12.9322 158.115 12.8889C158.158 12.8455 158.18 12.8022 158.224 12.7588H157.524C157.283 12.7588 157.042 12.7371 156.801 12.6938C156.561 12.6504 156.342 12.607 156.145 12.5203C155.948 12.4336 155.751 12.3469 155.576 12.2385C155.401 12.1301 155.269 12 155.138 11.8482C155.072 11.7615 155.007 11.6748 154.941 11.5447C154.875 11.4363 154.832 11.2846 154.788 11.1328C154.744 10.981 154.722 10.8076 154.722 10.6125C154.722 10.4173 154.722 10.2222 154.766 9.98374C154.832 9.63686 154.919 9.31165 155.051 9.02981C155.182 8.74797 155.335 8.4878 155.51 8.24932C155.707 7.98916 155.948 7.77236 156.211 7.64228C156.473 7.51219 156.736 7.44715 156.998 7.44715C157.611 7.44715 158.158 7.70732 158.64 8.24932C158.859 8.4878 159.034 8.74797 159.209 9.05149C159.362 9.35501 159.494 9.68022 159.603 10.0271C159.712 10.374 159.778 10.7425 159.8 11.1111C159.844 11.4797 159.844 11.8482 159.8 12.2168C159.778 12.3902 159.734 12.5854 159.69 12.7588C159.669 12.8238 159.647 12.8889 159.625 12.9756C159.603 13.0623 159.559 13.1707 159.494 13.2791C159.428 13.3875 159.34 13.5176 159.231 13.6477C159.121 13.7778 158.99 13.9079 158.815 14.0379C158.596 14.2114 158.312 14.3631 157.983 14.4932C157.655 14.6233 157.283 14.7317 156.867 14.8184C156.451 14.9051 156.014 14.9702 155.554 15.0135C155.094 15.0569 154.613 15.0786 154.153 15.0786H154.044C153.847 15.0786 153.694 15.0135 153.562 14.8835C153.453 14.8184 153.365 14.6667 153.365 14.4715ZM157.94 5.12737L156.823 6.23306L155.685 5.10569L156.801 4L157.94 5.12737ZM156.998 8.81301C156.933 8.81301 156.867 8.83469 156.78 8.89973C156.692 8.96477 156.604 9.05149 156.517 9.18157C156.429 9.31165 156.342 9.46341 156.276 9.63686C156.21 9.8103 156.145 10.0271 156.101 10.2439C156.035 10.5908 156.079 10.8293 156.211 11.0027C156.298 11.1111 156.429 11.1978 156.604 11.2629C156.78 11.3279 156.998 11.3713 157.239 11.393C157.48 11.393 157.699 11.4146 157.896 11.4146C158.093 11.4146 158.268 11.4146 158.421 11.393C158.399 10.9593 158.312 10.5257 158.158 10.1355C158.027 9.74526 157.83 9.42005 157.589 9.15989C157.524 9.07317 157.414 9.00813 157.305 8.92141C157.261 8.85637 157.152 8.81301 156.998 8.81301Z" fill="#191C1D"/>
<path d="M164.877 15.1436C164.374 15.1436 163.936 15.0786 163.586 14.9702C163.236 14.8618 162.93 14.6666 162.667 14.4282C162.514 14.2764 162.404 14.1246 162.317 13.9512C162.229 13.7778 162.185 13.6043 162.142 13.4309C162.098 13.2574 162.076 13.1057 162.076 12.9539C162.076 12.8021 162.076 12.6721 162.076 12.5637V12.4336C162.076 12.4336 162.076 12.3469 162.076 12.1951C162.076 12.0433 162.076 11.8265 162.076 11.5447C162.076 11.2628 162.076 10.9593 162.076 10.5908C162.076 10.2439 162.076 9.85364 162.076 9.46339C162.076 9.07315 162.076 8.66122 162.054 8.2493C162.054 7.8157 162.032 7.42545 162.01 7.01353C161.988 6.62328 161.967 6.25472 161.945 5.92952C161.923 5.60431 161.879 5.32247 161.835 5.10567L163.192 4.86719C163.236 5.10567 163.28 5.38751 163.302 5.71272C163.323 6.0596 163.367 6.40648 163.389 6.81841C163.411 7.20865 163.433 7.62057 163.433 8.05418C163.433 8.48778 163.455 8.89971 163.455 9.31163C163.455 9.70188 163.455 10.0921 163.455 10.4607C163.455 10.8292 163.455 11.1544 163.455 11.4363C163.455 11.7181 163.455 11.9566 163.455 12.1517C163.455 12.3469 163.455 12.4553 163.455 12.4769V12.607C163.455 12.8021 163.455 12.9756 163.477 13.1273C163.499 13.2791 163.564 13.4092 163.674 13.4959C163.871 13.7127 164.265 13.8211 164.834 13.8211H164.899C164.987 13.8211 165.074 13.8428 165.162 13.8862C165.25 13.9295 165.315 13.9729 165.381 14.0379C165.447 14.103 165.49 14.168 165.534 14.2547C165.578 14.3414 165.6 14.4282 165.6 14.5149C165.6 14.71 165.534 14.8618 165.403 14.9918C165.293 15.1219 165.074 15.1436 164.877 15.1436Z" fill="#191C1D"/>
<path d="M163.849 14.4715C163.849 14.2764 163.915 14.1246 164.046 13.9946C164.177 13.8645 164.331 13.7994 164.528 13.7994H165.294C165.447 13.7994 165.622 13.7994 165.819 13.7994C166.016 13.7994 166.191 13.7778 166.388 13.7778C166.585 13.7778 166.76 13.7344 166.957 13.691C167.132 13.6477 167.307 13.6043 167.46 13.5393C167.614 13.4742 167.745 13.4092 167.876 13.3008C167.986 13.2141 168.073 13.1057 168.139 12.9756C168.226 12.7805 168.248 12.4986 168.226 12.1517C168.183 11.7832 168.095 11.3713 167.942 10.8943C167.898 10.7425 167.833 10.5908 167.767 10.4173C167.701 10.2439 167.636 10.0921 167.57 9.94036C167.504 9.76692 167.417 9.59348 167.351 9.42003L168.577 8.81299C168.577 8.81299 168.599 8.85635 168.642 8.94307C168.686 9.02979 168.73 9.15987 168.796 9.28995C168.861 9.44171 168.927 9.61516 169.014 9.81028C169.102 10.0054 169.168 10.2222 169.233 10.439C169.671 11.7398 169.715 12.7588 169.386 13.4959C169.058 14.233 168.489 14.71 167.657 14.9485C167.526 14.9918 167.373 15.0135 167.176 15.0352C166.979 15.0569 166.782 15.0786 166.585 15.0786C166.388 15.0786 166.191 15.1002 166.016 15.1002C165.841 15.1002 165.688 15.1002 165.6 15.1002H164.593H164.528C164.331 15.1002 164.177 15.0352 164.046 14.9051C163.893 14.8184 163.849 14.6666 163.849 14.4715ZM167.154 17.4851L166.038 18.5908L164.9 17.4851L166.016 16.3794L167.154 17.4851ZM169.999 17.5068L168.883 18.6124L167.745 17.4851L168.861 16.3794L169.999 17.5068Z" fill="#191C1D"/>
<path d="M174.245 10.7209C174.376 11.1329 174.486 11.5665 174.617 11.9784C174.661 12.1518 174.705 12.347 174.77 12.5204C174.836 12.6938 174.858 12.9106 174.902 13.0841C174.945 13.2792 174.989 13.4527 175.011 13.6478C175.033 13.8212 175.077 13.9947 175.077 14.1464C175.077 14.1898 175.077 14.2548 175.099 14.3199C175.099 14.3849 175.099 14.4499 175.099 14.5367C175.099 14.9269 175.033 15.3172 174.924 15.6857C174.814 16.0543 174.639 16.4228 174.442 16.748C174.245 17.0949 173.982 17.4201 173.698 17.7237C173.413 18.0489 173.107 18.3307 172.757 18.6125C172.429 18.8944 172.056 19.1329 171.684 19.3713C171.312 19.6098 170.94 19.8266 170.546 20.0001L169.955 18.8077C170.437 18.5692 170.896 18.2873 171.356 17.9838C171.816 17.6803 172.21 17.3334 172.56 16.9648C172.91 16.5963 173.195 16.206 173.413 15.7941C173.632 15.3822 173.742 14.9486 173.742 14.515C173.742 14.4933 173.742 14.4499 173.742 14.4066C173.742 14.3632 173.742 14.2982 173.72 14.2548C173.698 14.1247 173.676 13.9513 173.654 13.7995C173.632 13.6261 173.589 13.4527 173.545 13.2792C173.501 13.1058 173.457 12.9323 173.413 12.7589C173.37 12.5854 173.326 12.412 173.282 12.2602C173.173 11.87 173.063 11.5014 172.932 11.1112L174.245 10.7209Z" fill="#191C1D"/>
<path d="M179.695 15.122C179.476 15.122 179.214 15.1003 178.907 15.0353C178.601 14.9703 178.316 14.9052 178.01 14.8185C177.703 14.7318 177.441 14.645 177.2 14.5366C176.959 14.4282 176.762 14.3198 176.653 14.2114L177.222 12.9323C177.397 13.0407 177.594 13.1491 177.835 13.2575C178.075 13.3659 178.316 13.4526 178.601 13.5177C178.863 13.5827 179.148 13.6478 179.432 13.6911C179.717 13.7345 180.002 13.7345 180.264 13.7128C180.527 13.6911 180.768 13.6261 181.008 13.5394C181.227 13.4526 181.424 13.3009 181.577 13.1274C181.709 12.9974 181.709 12.7155 181.621 12.3469C181.577 12.1301 181.49 11.8917 181.38 11.6532C181.271 11.4147 181.14 11.1762 180.965 10.9161C180.811 10.6776 180.636 10.4391 180.439 10.2006C180.242 9.96212 180.045 9.74532 179.826 9.5502C179.608 9.35508 179.411 9.18163 179.192 9.02987C178.973 8.87811 178.754 8.74803 178.557 8.66131L179.104 7.42554C179.367 7.55562 179.651 7.70738 179.914 7.9025C180.198 8.09762 180.461 8.31443 180.724 8.55291C180.986 8.79139 181.227 9.07323 181.468 9.35508C181.709 9.63692 181.928 9.94044 182.103 10.244C182.3 10.5475 182.453 10.851 182.606 11.1545C182.737 11.4581 182.847 11.7616 182.912 12.0434C182.978 12.3036 183 12.5204 183 12.7372C183 12.9323 182.978 13.1274 182.934 13.2792C182.891 13.431 182.847 13.5827 182.781 13.6911C182.715 13.8212 182.65 13.9079 182.584 13.9946C182.168 14.4933 181.577 14.8402 180.811 14.9919C180.636 15.0353 180.461 15.0787 180.264 15.0787C180.089 15.122 179.87 15.122 179.695 15.122Z" fill="#191C1D"/>
<g clip-path="url(#clip0_1862_5848)">
<path d="M55.8892 55.0961C54.9376 57.2972 53.8113 59.3232 52.5063 61.1859C50.7275 63.7253 49.271 65.483 48.1485 66.4591C46.4086 68.0613 44.5443 68.8818 42.5479 68.9285C41.1148 68.9285 39.3864 68.5202 37.3745 67.6919C35.3561 66.8674 33.5011 66.4591 31.805 66.4591C30.0262 66.4591 28.1184 66.8674 26.0778 67.6919C24.034 68.5202 22.3877 68.9518 21.1289 68.9946C19.2145 69.0763 17.3063 68.2324 15.4016 66.4591C14.186 65.3975 12.6654 63.5775 10.8439 60.9993C8.88947 58.246 7.28269 55.0533 6.02391 51.4135C4.6758 47.4819 4 43.6748 4 39.989C4 35.767 4.91117 32.1255 6.73622 29.074C8.17056 26.6229 10.0787 24.6894 12.4669 23.27C14.8552 21.8506 17.4357 21.1273 20.2146 21.081C21.7352 21.081 23.7292 21.552 26.2071 22.4775C28.6781 23.4061 30.2646 23.8771 30.9602 23.8771C31.4803 23.8771 33.2428 23.3264 36.2307 22.2286C39.0563 21.2105 41.441 20.789 43.3946 20.9551C48.6884 21.3828 52.6655 23.4723 55.3105 27.2366C50.576 30.1088 48.234 34.1318 48.2806 39.2926C48.3233 43.3124 49.7798 46.6575 52.6422 49.3135C53.9395 50.5463 55.3882 51.499 57 52.1757C56.6505 53.1906 56.2815 54.1628 55.8892 55.0961ZM43.7481 7.26036C43.7481 10.4111 42.5984 13.3529 40.3069 16.0758C37.5415 19.3128 34.1967 21.1833 30.5695 20.8882C30.5233 20.5102 30.4965 20.1124 30.4965 19.6943C30.4965 16.6696 31.8116 13.4326 34.147 10.7859C35.313 9.44585 36.7958 8.3316 38.5941 7.44274C40.3885 6.56714 42.0857 6.08292 43.682 6C43.7286 6.4212 43.7481 6.84247 43.7481 7.26036Z" fill="#191C1D"/>
</g>
<g clip-path="url(#clip1_1862_5848)">
<path d="M69.3347 68.4375H75.2887V43.6052H69.3347V68.4375ZM72.2998 40.3486C74.1649 40.3486 75.6235 38.943 75.6235 37.186C75.6235 35.4056 74.1649 34 72.2998 34C70.4586 34 69 35.4056 69 37.186C69 38.9431 70.4586 40.3486 72.2998 40.3486ZM95.1123 34.0701C85.0457 34.0701 78.7327 40.7936 78.7327 51.5467C78.7327 62.2999 85.0451 69 95.1123 69C105.155 69 111.468 62.2999 111.468 51.5467C111.468 40.7936 105.156 34.0701 95.1123 34.0701ZM95.1123 39.224C101.258 39.224 105.179 44.0031 105.179 51.5466C105.179 59.0666 101.257 63.8458 95.1123 63.8458C88.9432 63.8458 85.0457 59.0667 85.0457 51.5466C85.0457 44.0033 88.9433 39.224 95.1123 39.224ZM113.98 58.9263C114.243 65.158 119.455 68.9999 127.394 68.9999C135.739 68.9999 141 64.9704 141 58.5514C141 53.5147 138.035 50.68 131.029 49.1105L127.06 48.2203C122.827 47.2364 121.082 45.9245 121.082 43.6755C121.082 40.8643 123.712 38.9901 127.609 38.9901C131.555 38.9901 134.257 40.8877 134.544 44.0503H140.426C140.283 38.0999 135.261 34.0703 127.657 34.0703C120.149 34.0703 114.817 38.1231 114.817 44.1205C114.817 48.9465 117.83 51.9451 124.19 53.3743L128.661 54.4051C133.013 55.4125 134.783 56.818 134.783 59.2544C134.783 62.0657 131.889 64.0804 127.729 64.0804C123.52 64.0804 120.34 62.0423 119.958 58.9264L113.98 58.9263Z" fill="#191C1D"/>
</g>
<defs>
<clipPath id="clip0_1862_5848">
<rect width="53" height="63" fill="white" transform="translate(4 6)"/>
</clipPath>
<clipPath id="clip1_1862_5848">
<rect width="72" height="35" fill="white" transform="translate(69 34)"/>
</clipPath>
</defs>
</svg>
