<?xml version="1.0" encoding="utf-8"?> 
<svg width="48" height="48" viewBox="0 0 48 48" fill="none" xmlns="http://www.w3.org/2000/svg">
<path d="M38.9921 36H24.9979C22.2391 36 20 33.6521 20 30.7593V9.24075C20 6.34785 22.2391 4 24.9979 4H32.5448C34.2441 4 35.8734 4.69178 37.0829 5.94956L41.9409 10.9387C43.2503 12.3013 43.99 14.1461 44 16.0852V30.7593C44 33.6521 41.7609 36 39.0021 36C39.0021 36 39.0021 36 38.9921 36ZM24.9879 6.0963C23.3286 6.0963 21.9892 7.50082 21.9892 9.24075V30.7173C21.9892 32.4573 23.3286 33.8618 24.9879 33.8618H38.9821C40.6414 33.8618 41.9808 32.4573 41.9808 30.7173V16.0432C41.9808 14.6702 41.4411 13.36 40.5114 12.3957L35.6735 7.44841C34.8338 6.57845 33.7143 6.0963 32.5348 6.0963H24.9879Z" fill="#3F484A"/>
<path d="M23.8082 15H17.1918C10.9537 15 7.83471 15 5.8968 17.0021C4.5625 18.3807 4.1469 20.3377 4.01745 23.5266C3.99178 24.1591 3.97895 24.4753 4.09297 24.6862C4.20699 24.8972 4.66219 25.1605 5.57258 25.6871C6.58366 26.2718 7.26711 27.3892 7.26711 28.6714C7.26711 29.9537 6.58366 31.071 5.57259 31.6558C4.6622 32.1824 4.20699 32.4456 4.09297 32.6566C3.97895 32.8676 3.99178 33.1838 4.01745 33.8162C4.1469 37.0052 4.5625 38.9622 5.8968 40.3407C7.83471 42.3429 10.9537 42.3429 17.1918 42.3429H23.8082C30.0463 42.3429 33.1653 42.3429 35.1032 40.3407C36.4375 38.9622 36.8531 37.0052 36.9826 33.8162C37.0082 33.1838 37.0211 32.8676 36.907 32.6566C36.793 32.4456 36.3378 32.1824 35.4274 31.6558C34.4163 31.071 33.7329 29.9537 33.7329 28.6714C33.7329 27.3892 34.4163 26.2718 35.4274 25.6871C36.3378 25.1605 36.793 24.8972 36.907 24.6862C37.0211 24.4753 37.0082 24.1591 36.9826 23.5267C36.8531 20.3378 36.4375 18.3807 35.1032 17.0021C33.1653 15 30.0463 15 23.8082 15Z" fill="#3F484A"/>
<path d="M18.9154 25.053C18.9075 25.053 18.8967 25.0583 18.8888 25.0583C18.3703 24.8018 17.9481 24.3769 17.689 23.8585C17.689 23.8506 17.6943 23.8398 17.6943 23.8318C18.0203 23.928 18.357 24.0002 18.691 24.0562C18.7498 24.3929 18.8192 24.727 18.9154 25.053Z" fill="white"/>
<path d="M22.4664 23.8612C22.2019 24.3929 21.7609 24.8232 21.2239 25.0823C21.3254 24.743 21.4109 24.401 21.467 24.0562C21.8037 24.0002 22.135 23.928 22.4611 23.8318C22.4584 23.8425 22.4664 23.8532 22.4664 23.8612Z" fill="white"/>
<path d="M22.4877 21.5257C22.151 21.424 21.8117 21.3412 21.467 21.2824C21.4109 20.9378 21.328 20.5958 21.2239 20.2617C21.777 20.5262 22.2232 20.9725 22.4877 21.5257Z" fill="white"/>
<path d="M18.9154 20.2912C18.8192 20.6172 18.7496 20.9485 18.6936 21.2852C18.3488 21.3387 18.0068 21.4242 17.6675 21.5257C17.9267 20.9886 18.3569 20.5477 18.8886 20.2832C18.8966 20.2832 18.9073 20.2912 18.9154 20.2912Z" fill="white"/>
<path d="M21.0101 21.2266C20.3903 21.1571 19.765 21.1571 19.145 21.2266C19.2118 20.8605 19.2973 20.4944 19.4176 20.1416C19.4229 20.1203 19.4202 20.1043 19.4229 20.0829C19.634 20.0321 19.8505 20 20.0776 20C20.302 20 20.5212 20.0321 20.7296 20.0829C20.7323 20.1043 20.7323 20.1203 20.7376 20.1416C20.8579 20.497 20.9433 20.8605 21.0101 21.2266Z" fill="white"/>
<path d="M18.6321 23.6046C18.2633 23.5378 17.8999 23.4524 17.5472 23.3321C17.5258 23.3267 17.5098 23.3294 17.4884 23.3267C17.4376 23.1157 17.4055 22.8992 17.4055 22.6721C17.4055 22.4476 17.4376 22.2285 17.4884 22.02C17.5098 22.0174 17.5258 22.0174 17.5472 22.0121C17.9025 21.8945 18.2633 21.8063 18.6321 21.7395C18.5653 22.3595 18.5653 22.9847 18.6321 23.6046Z" fill="white"/>
<path d="M22.7495 22.6721C22.7495 22.8992 22.7174 23.1157 22.6666 23.3267C22.6452 23.3294 22.6292 23.3267 22.6079 23.3321C22.2525 23.4497 21.889 23.5378 21.5229 23.6046C21.5924 22.9847 21.5924 22.3595 21.5229 21.7395C21.889 21.8063 22.2551 21.8918 22.6079 22.0121C22.6292 22.0174 22.6452 22.02 22.6666 22.02C22.7174 22.2312 22.7495 22.4476 22.7495 22.6721Z" fill="white"/>
<path d="M21.0101 24.1177C20.9433 24.4864 20.8579 24.8499 20.7376 25.2026C20.7323 25.2239 20.7323 25.24 20.7296 25.2613C20.5212 25.3122 20.302 25.3442 20.0776 25.3442C19.8505 25.3442 19.634 25.3122 19.4229 25.2613C19.4202 25.24 19.4229 25.2239 19.4176 25.2026C19.3 24.8472 19.2118 24.4864 19.145 24.1177C19.455 24.1524 19.765 24.1765 20.0776 24.1765C20.3903 24.1765 20.7029 24.1524 21.0101 24.1177Z" fill="white"/>
<path d="M21.083 23.6777C20.4147 23.7621 19.7402 23.7621 19.0718 23.6777C18.9875 23.0095 18.9875 22.3349 19.0718 21.6666C19.7402 21.5822 20.4147 21.5822 21.083 21.6666C21.1674 22.3349 21.1674 23.0095 21.083 23.6777Z" fill="white"/>
<path d="M27.8266 24.6572H25.1545C24.417 24.6572 23.8184 25.3382 23.8184 26.178V28.0042V28.3096C23.8184 29.1494 24.417 29.8304 25.1545 29.8304H25.5553C25.6274 29.8304 25.7236 29.8854 25.769 29.9526L26.1699 30.5603C26.3462 30.829 26.6348 30.829 26.8112 30.5603L27.212 29.9526C27.2627 29.8762 27.3429 29.8304 27.4257 29.8304H27.8266C28.5641 29.8304 29.1627 29.1494 29.1627 28.3096V26.178C29.1627 25.3382 28.5641 24.6572 27.8266 24.6572ZM25.4216 27.7111C25.272 27.7111 25.1545 27.5736 25.1545 27.4057C25.1545 27.2377 25.2747 27.1003 25.4216 27.1003C25.5687 27.1003 25.6889 27.2377 25.6889 27.4057C25.6889 27.5736 25.5713 27.7111 25.4216 27.7111ZM26.4905 27.7111C26.3409 27.7111 26.2233 27.5736 26.2233 27.4057C26.2233 27.2377 26.3436 27.1003 26.4905 27.1003C26.6375 27.1003 26.7578 27.2377 26.7578 27.4057C26.7578 27.5736 26.6401 27.7111 26.4905 27.7111ZM27.5594 27.7111C27.4097 27.7111 27.2922 27.5736 27.2922 27.4057C27.2922 27.2377 27.4125 27.1003 27.5594 27.1003C27.7064 27.1003 27.8266 27.2377 27.8266 27.4057C27.8266 27.5736 27.709 27.7111 27.5594 27.7111Z" fill="white"/>
<path d="M16.2184 30.654L14.9473 31.9252C14.6793 32.1932 14.2533 32.1932 13.9784 31.9321C13.9028 31.8565 13.8273 31.7878 13.7517 31.7122C13.0439 30.9976 12.4049 30.2486 11.8346 29.4653C11.2712 28.682 10.8177 27.8987 10.4879 27.1223C10.1649 26.3389 10 25.59 10 24.8754C10 24.4081 10.0825 23.9615 10.2474 23.5492C10.4123 23.1301 10.6734 22.7453 11.0375 22.4018C11.4773 21.9689 11.9583 21.7559 12.4668 21.7559C12.6592 21.7559 12.8515 21.7971 13.0233 21.8795C13.202 21.962 13.36 22.0857 13.4837 22.2643L15.0778 24.5112C15.2015 24.683 15.2908 24.841 15.3527 24.9922C15.4145 25.1365 15.4489 25.2808 15.4489 25.4113C15.4489 25.5762 15.4008 25.7411 15.3046 25.8992C15.2152 26.0572 15.0847 26.2221 14.9198 26.387L14.3976 26.9299C14.322 27.0054 14.2876 27.0948 14.2876 27.2047C14.2876 27.2597 14.2945 27.3078 14.3082 27.3627C14.3288 27.4177 14.3495 27.4589 14.3632 27.5002C14.4869 27.7269 14.6999 28.0224 15.0022 28.3797C15.3114 28.737 15.6412 29.1012 15.9985 29.4653C16.0673 29.534 16.1428 29.6028 16.2116 29.6715C16.4864 29.9394 16.4933 30.3792 16.2184 30.654Z" fill="white"/>
<path d="M23.7218 32.9765C23.7218 33.1689 23.6875 33.3682 23.6188 33.5606C23.5981 33.6156 23.5775 33.6705 23.5501 33.7255C23.4332 33.9729 23.2821 34.2065 23.0828 34.4264C22.7461 34.7974 22.3751 35.0654 21.9559 35.2372C21.9491 35.2372 21.9422 35.244 21.9353 35.244C21.5299 35.4089 21.0902 35.4983 20.6161 35.4983C19.9152 35.4983 19.1662 35.3334 18.376 34.9967C17.5859 34.66 16.7957 34.2065 16.0124 33.6362C15.7444 33.4369 15.4764 33.2377 15.2222 33.0246L17.469 30.7778C17.6614 30.9221 17.8332 31.032 17.9775 31.1076C18.0119 31.1213 18.0531 31.1419 18.1012 31.1626C18.1562 31.1832 18.2111 31.19 18.273 31.19C18.3898 31.19 18.4791 31.1488 18.5547 31.0732L19.0769 30.5579C19.2487 30.3861 19.4136 30.2556 19.5716 30.1731C19.7297 30.0769 19.8877 30.0288 20.0595 30.0288C20.19 30.0288 20.3275 30.0563 20.4786 30.1181C20.6298 30.18 20.7878 30.2693 20.9596 30.3861L23.234 32.0008C23.4126 32.1245 23.5363 32.2688 23.6119 32.4406C23.6806 32.6124 23.7218 32.7842 23.7218 32.9765Z" fill="white"/>
</svg>
