<svg xmlns="http://www.w3.org/2000/svg" width="62" height="36" fill="none">
    <g clip-path="url(#a)">
        <path fill="url(#b)" d="M49.984 6.009H37.952c-3.323 0-6.016 2.685-6.016 5.998v11.995c0 3.313 2.693 5.998 6.016 5.998h12.032C53.306 30 56 27.315 56 24.002V12.007c0-3.313-2.694-5.998-6.016-5.998Z"/>
        <path fill="#fff" d="M44.86 26.002a.894.894 0 0 1-.892-.89.888.888 0 0 1 .892-.89h5.355V11.787H44.86a.894.894 0 0 1-.876-1.064.888.888 0 0 1 .244-.456.862.862 0 0 1 .632-.26h5.355a1.698 1.698 0 0 1 1.253.52 1.709 1.709 0 0 1 .521 1.26v12.435a1.706 1.706 0 0 1-.521 1.26 1.695 1.695 0 0 1-1.254.52H44.86Zm-1.624-7.108h-6.397a.895.895 0 0 1-.893-.89.886.886 0 0 1 .551-.822.895.895 0 0 1 .342-.067h6.397l-1.675-1.67a.81.81 0 0 1-.24-.6.908.908 0 0 1 .24-.62.883.883 0 0 1 1.274 0l3.188 3.18a.85.85 0 0 1 0 1.24l-3.188 3.158a.852.852 0 0 1-.632.26.924.924 0 0 1-.642-.28.918.918 0 0 1 0-1.25l1.675-1.639Z"/>
        <path fill="url(#c)" d="M24.506 17.105v2.099h2.075a3.665 3.665 0 0 0 2.578-1.069 3.643 3.643 0 0 0 1.072-2.57V9.847h-2.066v5.718a1.514 1.514 0 0 1-1.513 1.51h-2.116l-.03.03Z"/>
        <path fill="url(#d)" d="M24.536 15.565V6.2h2.005v9.366h-2.005Z"/>
        <path fill="url(#e)" fill-rule="evenodd" d="M8.162 24.653c0 1.339.54 2.623 1.504 3.569A5.184 5.184 0 0 0 13.3 29.7c1.37 0 2.686-.529 3.664-1.473a5.091 5.091 0 0 0 1.561-3.574v-.465h1.502v.563c.013.805.351 1.573.94 2.133.59.56 1.381.869 2.201.856a3.119 3.119 0 0 0 2.172-.924 3.01 3.01 0 0 0 .87-2.163v-4.037h-2.074a4.764 4.764 0 0 1-2.43 1.485h-3.21v-1.485H16.42v4.542a2.133 2.133 0 0 1-.24.962 2.175 2.175 0 0 1-.649.756 3.716 3.716 0 0 1-2.173.757c-.402.003-.8-.073-1.171-.223a3.028 3.028 0 0 1-.993-.65 2.91 2.91 0 0 1-.674-.96 2.868 2.868 0 0 1 .674-3.243l1.433-1.407-1.433-1.446h-.069L9.693 21.11a5.08 5.08 0 0 0-1.531 3.542Zm15.864-1.746v1.746a.962.962 0 0 1-.289.687.997.997 0 0 1-1.397 0 .962.962 0 0 1-.29-.687v-.592a5.602 5.602 0 0 0 1.976-1.154Z" clip-rule="evenodd"/>
        <path fill="url(#f)" d="m13.812 25.222-1.509-1.48v-.07l1.479-1.45h.06l1.469 1.45v.07l-1.499 1.48Z"/>
        <path fill="url(#g)" d="M19.743 19.004c1.073-.013 2.145.05 3.209.19l.11-1.05v-1.07a17.729 17.729 0 0 0-3.209-.19 18.413 18.413 0 0 0-3.228.22v2.1a17.82 17.82 0 0 1 3.118-.2Z"/>
        <path fill="url(#h)" d="M18.48 8.298a24.135 24.135 0 0 0-3.2-.16 19.106 19.106 0 0 0-3.208.19v-2.09a17.427 17.427 0 0 1 3.239-.23 17.8 17.8 0 0 1 3.209.19v1.07l-.04 1.03Z"/>
        <path fill="url(#i)" d="M0 15.807a5.45 5.45 0 0 0 1.541 3.809 5.202 5.202 0 0 0 3.721 1.577 5.329 5.329 0 0 0 3.733-1.555 5.44 5.44 0 0 0 1.53-3.79v-1.236l1.952 1.03c.388.172.805.263 1.227.268h3.542v-1.267l2.012.968c.388.172.805.263 1.228.268h.946a1.557 1.557 0 0 0 1.154-.465 1.661 1.661 0 0 0 .476-1.172V9.958h-2.113v3.728h-.423a2.88 2.88 0 0 1-1.197-.268l-2.013-.968V9.958h-2.113v3.728h-1.459a2.96 2.96 0 0 1-1.207-.268l-2.012-.968V6.199H8.442v9.608c0 .847-.329 1.659-.914 2.258A3.083 3.083 0 0 1 5.323 19c-.828 0-1.62-.337-2.206-.935a3.231 3.231 0 0 1-.913-2.258c.04-.602.23-1.184.553-1.689a3.662 3.662 0 0 1-1.811-1.164h-.07A5.6 5.6 0 0 0 0 15.807Z"/>
    </g>
    <defs>
        <linearGradient id="b" x1="28" x2="28" y1="6" y2="30" gradientUnits="userSpaceOnUse">
            <stop stop-color="#E3338B"/>
            <stop offset="1" stop-color="#A24682"/>
        </linearGradient>
        <linearGradient id="c" x1="28.147" x2="28.147" y1="-33.436" y2="103.923" gradientUnits="userSpaceOnUse">
            <stop stop-color="#E3338B"/>
            <stop offset="1" stop-color="#A24682"/>
        </linearGradient>
        <linearGradient id="d" x1="27.865" x2="27.865" y1="-24.045" y2="113.168" gradientUnits="userSpaceOnUse">
            <stop stop-color="#E3338B"/>
            <stop offset="1" stop-color="#A24682"/>
        </linearGradient>
        <linearGradient id="e" x1="28.015" x2="28.015" y1="-19.165" y2="105.682" gradientUnits="userSpaceOnUse">
            <stop stop-color="#E3338B"/>
            <stop offset="1" stop-color="#A24682"/>
        </linearGradient>
        <linearGradient id="f" x1="28.094" x2="28.094" y1="-100.56" y2="328.08" gradientUnits="userSpaceOnUse">
            <stop stop-color="#E3338B"/>
            <stop offset="1" stop-color="#A24682"/>
        </linearGradient>
        <linearGradient id="g" x1="27.389" x2="27.389" y1="-224.956" y2="327.105" gradientUnits="userSpaceOnUse">
            <stop stop-color="#E3338B"/>
            <stop offset="1" stop-color="#A24682"/>
        </linearGradient>
        <linearGradient id="h" x1="28.131" x2="28.131" y1="-112.843" y2="439.257" gradientUnits="userSpaceOnUse">
            <stop stop-color="#E3338B"/>
            <stop offset="1" stop-color="#A24682"/>
        </linearGradient>
        <linearGradient id="i" x1="11.531" x2="11.531" y1="-5.881" y2="49.287" gradientUnits="userSpaceOnUse">
            <stop stop-color="#E3338B"/>
            <stop offset="1" stop-color="#A24682"/>
        </linearGradient>
        <clipPath id="a">
            <path fill="#fff" d="M0 0h56v24H0z" transform="translate(0 6)"/>
        </clipPath>
    </defs>
</svg>