<svg xmlns="http://www.w3.org/2000/svg" width="124" height="36" fill="none">
    <path fill="url(#a)" d="m71.5 24.352.052 3.248h3.195a5.677 5.677 0 0 0 5.656-5.648v-8.85a.052.052 0 0 0-.053-.052h-3.203c-.044 0-.044.052-.044.052v8.85a2.348 2.348 0 0 1-2.355 2.348h-3.196a.052.052 0 0 0-.052.052Z"/>
    <path fill="url(#b)" d="M71.552 21.953 71.5 7.447a.045.045 0 0 1 .052-.046h3.195s.053 0 .053.045v14.506a.045.045 0 0 1-.052.044h-3.196v-.044Z"/>
    <path fill="url(#c)" fill-rule="evenodd" d="M16 13.898a8.047 8.047 0 0 0 8.047 8.055 8.25 8.25 0 0 0 8.205-8.055v-.75H34.6v.9a4.852 4.852 0 0 0 9.697-.15v-6.45a.046.046 0 0 0-.013-.032.045.045 0 0 0-.032-.014h-3.255c-.285.3-2.032 2.176-3.817 2.363H32.2V7.447c0-.045-.053-.045-.053-.045h-3.194a.045.045 0 0 0-.049.026.045.045 0 0 0-.004.02V14.7a3.473 3.473 0 0 1-1.402 2.753 5.775 5.775 0 0 1-3.398 1.2 4.785 4.785 0 0 1-4.8-4.8 4.785 4.785 0 0 1 1.447-3.3l2.25-2.25V8.25L20.747 6h-.097L18.4 8.25a8.25 8.25 0 0 0-2.4 5.648Zm24.877-2.73v2.745a1.553 1.553 0 1 1-3.097 0l-.03-.96a8.894 8.894 0 0 0 3.127-1.785Z" clip-rule="evenodd"/>
    <path fill="url(#d)" d="m24.7 14.55-2.302-2.303v-.097l2.25-2.25h.105l2.25 2.25v.098L24.7 14.55Z"/>
    <path fill="url(#e)" d="M64.15 27.3a33 33 0 0 1 4.95.3l.098-1.65-.045-1.65a27 27 0 0 0-4.95-.3 26.75 26.75 0 0 0-5.003.352V27.6c1.637-.25 3.294-.35 4.95-.3Z"/>
    <path fill="url(#f)" d="M62.2 10.703a35.386 35.386 0 0 0-4.95-.255 28.154 28.154 0 0 0-4.95.3V7.5a26.752 26.752 0 0 1 5.003-.353 27.75 27.75 0 0 1 4.95.3l.044 1.65-.097 1.606Z"/>
    <path fill="url(#g)" d="M33.648 21.9a8.1 8.1 0 0 0 8.1 8.1 8.25 8.25 0 0 0 5.752-2.348 8.063 8.063 0 0 0 2.347-5.7V20.1l3 1.5a5.04 5.04 0 0 0 1.905.397h5.445a.044.044 0 0 0 .037-.01.044.044 0 0 0 .016-.034v-1.8l3.097 1.447a5.04 5.04 0 0 0 1.905.397H66.7a2.453 2.453 0 0 0 2.453-2.445v-6.45a.052.052 0 0 0-.053-.052h-3.203c-.044 0-.044.052-.044.052v5.596h-.6A4.582 4.582 0 0 1 63.4 18.3l-3.097-1.448v-3.75a.052.052 0 0 0-.053-.052h-3.203c-.044 0-.044.052-.044.052v5.596h-2.206a4.575 4.575 0 0 1-1.844-.398l-3.106-1.448V7.447s-.044 0 0-.045h-3.194a.045.045 0 0 0-.049.026.045.045 0 0 0-.004.02V21.9a4.8 4.8 0 0 1-9.6 0 5.25 5.25 0 0 1 .847-2.55v-.045h-.067a5.7 5.7 0 0 1-2.7-1.695h-.105a8.407 8.407 0 0 0-1.328 4.29Z"/>
    <path fill="url(#h)" d="M102.497 6h-12a6 6 0 0 0-6 6v12a6 6 0 0 0 6 6h12a6 6 0 0 0 6-6V12a6 6 0 0 0-6-6Z"/>
    <path fill="#fff" d="M97.382 25.957a.831.831 0 0 1-.63-.255.907.907 0 0 1 0-1.26.832.832 0 0 1 .63-.255h5.303V11.813h-5.303a.831.831 0 0 1-.63-.255.907.907 0 0 1 0-1.26.832.832 0 0 1 .63-.255h5.303a1.776 1.776 0 0 1 1.77 1.77v12.376a1.776 1.776 0 0 1-1.77 1.77h-5.303Zm-1.62-7.072h-6.337a.831.831 0 0 1-.63-.255.907.907 0 0 1 0-1.26.832.832 0 0 1 .63-.255h6.338l-1.658-1.657a.824.824 0 0 1-.24-.593.915.915 0 0 1 .24-.623.849.849 0 0 1 .623-.277.817.817 0 0 1 .637.255l3.135 3.158a.87.87 0 0 1 0 1.244l-3.135 3.128a.803.803 0 0 1-.63.255.9.9 0 0 1-.63-.277.93.93 0 0 1 0-1.238l1.657-1.605Z"/>
    <defs>
        <linearGradient id="a" x1="62.21" x2="62.21" y1="-33.217" y2="103.658" gradientUnits="userSpaceOnUse">
            <stop stop-color="#E3338B"/>
            <stop offset="1" stop-color="#A24682"/>
        </linearGradient>
        <linearGradient id="b" x1="62.249" x2="62.249" y1="-23.805" y2="112.635" gradientUnits="userSpaceOnUse">
            <stop stop-color="#E3338B"/>
            <stop offset="1" stop-color="#A24682"/>
        </linearGradient>
        <linearGradient id="c" x1="62.261" x2="62.261" y1="-19.162" y2="105.678" gradientUnits="userSpaceOnUse">
            <stop stop-color="#E3338B"/>
            <stop offset="1" stop-color="#A24682"/>
        </linearGradient>
        <linearGradient id="d" x1="62.249" x2="62.249" y1="-100.452" y2="327.832" gradientUnits="userSpaceOnUse">
            <stop stop-color="#E3338B"/>
            <stop offset="1" stop-color="#A24682"/>
        </linearGradient>
        <linearGradient id="e" x1="62.283" x2="62.283" y1="-224.557" y2="326.601" gradientUnits="userSpaceOnUse">
            <stop stop-color="#E3338B"/>
            <stop offset="1" stop-color="#A24682"/>
        </linearGradient>
        <linearGradient id="f" x1="62.283" x2="62.283" y1="-112.689" y2="438.731" gradientUnits="userSpaceOnUse">
            <stop stop-color="#E3338B"/>
            <stop offset="1" stop-color="#A24682"/>
        </linearGradient>
        <linearGradient id="g" x1="62.249" x2="62.249" y1="-13.251" y2="74.876" gradientUnits="userSpaceOnUse">
            <stop stop-color="#E3338B"/>
            <stop offset="1" stop-color="#A24682"/>
        </linearGradient>
        <linearGradient id="h" x1="62.249" x2="62.249" y1="6" y2="30" gradientUnits="userSpaceOnUse">
            <stop stop-color="#E3338B"/>
            <stop offset="1" stop-color="#A24682"/>
        </linearGradient>
    </defs>
</svg>