<?xml version="1.0" encoding="utf-8"?><svg width="183" height="76" viewBox="0 0 183 76" fill="none" xmlns="http://www.w3.org/2000/svg">
<g clip-path="url(#clip0_1862_6223)">
<path d="M134.581 10.557C134.837 10.5006 135.098 10.4717 135.36 10.4707H135.743C135.957 10.4874 136.171 10.5211 136.38 10.5713L136.947 10.7438L137.188 10.8445L136.55 12.2101H136.409L136.04 12.1095L135.516 12.0376H135.403C135.233 12.0235 135.062 12.0235 134.892 12.0376C134.664 12.0598 134.442 12.1283 134.24 12.2389C134.01 12.3539 133.796 12.4989 133.603 12.6702C133.384 12.8441 133.184 13.0417 133.007 13.2596C132.835 13.4715 132.688 13.703 132.568 13.9496C132.46 14.1826 132.384 14.4292 132.341 14.6827C132.334 14.764 132.334 14.8458 132.341 14.9271C132.313 15.0743 132.313 15.2256 132.341 15.3728C132.403 15.5516 132.523 15.7036 132.681 15.804C132.857 15.9254 133.047 16.0221 133.248 16.0916C133.477 16.1659 133.708 16.2283 133.943 16.2784L134.708 16.4797C134.946 16.5485 135.178 16.635 135.403 16.7384C135.616 16.8451 135.809 16.9914 135.969 17.1697C136.123 17.334 136.239 17.5302 136.31 17.7447C136.325 17.8929 136.325 18.0422 136.31 18.1904C136.322 18.3674 136.322 18.5452 136.31 18.7223C136.21 19.2219 135.985 19.6872 135.658 20.0736C135.262 20.5195 134.78 20.877 134.24 21.123C133.654 21.4241 133.029 21.6418 132.384 21.7699C131.646 21.9139 130.896 21.9813 130.145 21.9712C129.305 21.9896 128.47 21.8532 127.679 21.5686C126.998 21.3295 126.388 20.919 125.907 20.3754C125.506 19.906 125.216 19.3507 125.057 18.751C124.946 18.3292 124.893 17.8937 124.901 17.4572C124.887 17.2082 124.887 16.9587 124.901 16.7097C124.901 16.3934 124.986 16.0484 125.057 15.7034C125.128 15.3584 125.199 15.0134 125.284 14.6827C125.369 14.3521 125.454 14.0502 125.539 13.7483C125.624 13.4464 125.709 13.1877 125.78 12.9577L125.95 12.397C125.968 12.3168 125.996 12.2395 126.035 12.167L127.452 12.6558C127.225 13.3746 127.013 14.0934 126.828 14.7546C126.628 15.4554 126.486 16.1719 126.403 16.8966C126.388 17.0879 126.388 17.2802 126.403 17.4716V17.5435C126.383 17.7394 126.383 17.9369 126.403 18.1329C126.45 18.3495 126.516 18.5612 126.602 18.7654C126.688 18.9861 126.819 19.1867 126.984 19.3548C127.321 19.7356 127.751 20.0184 128.231 20.1742C128.832 20.3628 129.459 20.455 130.088 20.4473C130.725 20.4529 131.361 20.3951 131.987 20.2748C132.477 20.1831 132.953 20.0285 133.404 19.8148C133.753 19.6659 134.07 19.4512 134.34 19.1823C134.535 18.9833 134.664 18.7267 134.708 18.4491C134.703 18.3746 134.678 18.3029 134.636 18.242C134.593 18.181 134.535 18.1333 134.467 18.1041C134.263 18.0021 134.049 17.9203 133.829 17.8597L132.937 17.6297C132.622 17.5564 132.318 17.4454 132.03 17.2991C131.74 17.1583 131.477 16.9687 131.25 16.7384C131.012 16.4901 130.854 16.1743 130.797 15.8328C130.776 15.5793 130.776 15.3244 130.797 15.0709C130.797 14.9271 130.797 14.7259 130.797 14.4527C130.843 14.1287 130.924 13.8106 131.037 13.5039C131.33 12.7666 131.786 12.1074 132.37 11.5776C132.664 11.3199 132.988 11.098 133.333 10.9163C133.73 10.736 134.15 10.615 134.581 10.557Z" fill="#191C1D"/>
<path d="M149.065 6L147.86 7.22193L149.079 8.44386L150.283 7.22193L149.065 6Z" fill="#191C1D"/>
<path d="M180.002 6.10059L178.798 7.32252L180.017 8.54445L181.221 7.32252L180.002 6.10059Z" fill="#191C1D"/>
<path d="M182.398 13.5327C182.35 12.8816 182.221 12.2392 182.015 11.6208C182.015 11.3764 181.873 11.1464 181.788 10.9308C181.703 10.7151 181.618 10.5138 181.547 10.3557L181.377 9.9532V9.80948L180.059 10.4707L180.711 12.0664C180.808 12.3035 180.884 12.5488 180.938 12.7996C180.99 12.9776 181.023 13.1607 181.037 13.3459C181.043 13.4464 181.043 13.5472 181.037 13.6477C181.045 13.7578 181.045 13.8683 181.037 13.9784C181.014 14.1163 180.976 14.2512 180.924 14.3809C180.837 14.5689 180.711 14.7356 180.555 14.8697C180.395 14.9861 180.218 15.0782 180.031 15.1428C179.818 15.2006 179.599 15.2344 179.379 15.2434H177.848C177.666 15.2417 177.486 15.2011 177.32 15.1243C177.154 15.0476 177.006 14.9363 176.885 14.7978C176.53 14.3851 176.277 13.8922 176.148 13.3602C176.148 13.1302 176.02 12.929 175.978 12.7277C175.935 12.5265 175.978 12.3395 175.878 12.1527C175.779 11.9658 175.878 11.8077 175.808 11.6352V11.132L174.39 11.2614C174.39 11.4339 174.39 11.6208 174.39 11.822C174.39 12.0233 174.39 12.1814 174.39 12.3252V12.7421C174.377 13.0356 174.348 13.3283 174.305 13.619C174.277 13.8848 174.215 14.1457 174.121 14.3953C174.039 14.6066 173.913 14.7978 173.753 14.9559C173.593 15.1005 173.385 15.1777 173.172 15.1715C172.955 15.1824 172.743 15.1106 172.576 14.9703C172.432 14.8208 172.325 14.6384 172.265 14.4384C172.204 14.2522 172.165 14.059 172.151 13.8634V13.4752C172.137 13.279 172.137 13.082 172.151 12.8858C172.165 12.6208 172.193 12.3569 172.236 12.0952C172.236 11.8508 172.236 11.6352 172.335 11.4627L170.918 11.1895C170.918 11.4195 170.918 11.6783 170.805 11.9658C170.762 12.2619 170.701 12.5548 170.621 12.8427C170.535 13.1302 170.45 13.4177 170.337 13.7052C170.241 13.9744 170.113 14.2303 169.954 14.4671C169.804 14.6726 169.622 14.8522 169.416 14.999C169.218 15.1303 168.986 15.2002 168.75 15.2003C168.66 15.2081 168.57 15.1923 168.488 15.1546C168.406 15.1168 168.335 15.0583 168.282 14.9846C168.173 14.8485 168.105 14.6841 168.084 14.5103C168.071 14.338 168.071 14.165 168.084 13.9928V13.7052L168.169 12.9146C168.169 12.6415 168.268 12.3971 168.31 12.1814C168.353 11.9658 168.395 11.7789 168.424 11.6495L167.007 11.2614C167.007 11.3764 167.007 11.5201 166.907 11.6783C166.87 11.8628 166.823 12.0452 166.766 12.2246C166.766 12.4258 166.652 12.6271 166.567 12.8571C166.482 13.0871 166.397 13.3027 166.284 13.5327C166.166 13.7404 166.039 13.9419 165.901 14.1365C165.764 14.33 165.607 14.5083 165.433 14.6684C165.268 14.8233 165.082 14.954 164.881 15.0565C164.694 15.1429 164.491 15.187 164.286 15.1859H157.199H156.718L156.179 15.0565C155.998 15.0026 155.822 14.9304 155.655 14.8409C155.491 14.7557 155.343 14.644 155.215 14.5103C155.091 14.3698 154.999 14.2028 154.946 14.0215L155.612 13.6909L156.292 13.4034L156.009 11.9658C155.705 11.9663 155.401 11.9374 155.102 11.8796C154.804 11.8077 154.493 11.7214 154.195 11.6208C153.897 11.5201 153.6 11.3908 153.302 11.247L152.409 10.8445L151.474 10.557C151.205 10.442 150.949 10.327 150.694 10.2407C150.457 10.1425 150.21 10.0703 149.957 10.0251C149.721 9.96809 149.478 9.93914 149.235 9.93885C148.741 9.92658 148.252 10.0455 147.817 10.2838C147.343 10.5551 146.924 10.9162 146.584 11.3476C146.462 11.4988 146.348 11.6572 146.244 11.822L145.975 12.2246C145.918 12.3224 145.866 12.4231 145.819 12.5264V12.6558L147.151 13.2596V13.1158C147.151 13.0296 147.265 12.9146 147.364 12.7708C147.46 12.617 147.564 12.4683 147.676 12.3252C147.807 12.1709 147.949 12.0267 148.101 11.8939C148.245 11.7502 148.413 11.6334 148.597 11.5489C148.779 11.4646 148.977 11.4205 149.178 11.4195C149.346 11.4162 149.514 11.4405 149.674 11.4914C149.873 11.536 150.067 11.5985 150.255 11.6783C150.473 11.7571 150.685 11.8482 150.893 11.9514L151.573 12.2677L152.494 12.6989C152.813 12.8456 153.14 12.9751 153.472 13.0871L151.757 13.9209C151.176 14.194 150.581 14.424 149.972 14.6396C149.347 14.8545 148.707 15.0227 148.058 15.1428C147.362 15.2718 146.655 15.3344 145.947 15.3297H145.025C144.744 15.3456 144.463 15.2965 144.203 15.1859C143.989 15.0648 143.824 14.8716 143.736 14.6396C143.731 14.5727 143.731 14.5054 143.736 14.4384C143.689 14.2679 143.652 14.0952 143.622 13.9209L143.396 12.8571C143.396 12.4546 143.254 11.9227 143.183 11.2758C143.183 11.2758 143.183 11.1608 143.183 11.017C143.183 10.8733 143.183 10.7151 143.183 10.5283C143.183 10.3414 143.183 10.1257 143.183 9.91007C143.183 9.69444 143.183 9.49319 143.183 9.29193C143.183 9.09067 143.183 8.93253 143.183 8.78878C143.189 8.70263 143.189 8.61618 143.183 8.53003L141.766 8.8319C141.766 8.8319 141.766 8.93254 141.766 9.10504C141.766 9.27755 141.766 9.56506 141.851 9.9532C141.686 10.0037 141.525 10.0662 141.369 10.1401C141.163 10.2182 140.964 10.3144 140.774 10.4276C140.549 10.544 140.332 10.6736 140.122 10.8157C139.892 10.9661 139.674 11.1343 139.47 11.3189C139.019 11.7191 138.652 12.2082 138.393 12.7564C138.348 12.8725 138.314 12.9929 138.294 13.1158C138.28 13.2544 138.28 13.3941 138.294 13.5327V13.6621C138.307 13.8567 138.341 14.0494 138.393 14.2371C138.453 14.434 138.555 14.6154 138.69 14.769C139.033 15.1203 139.449 15.3882 139.908 15.5525C140.367 15.7169 140.857 15.7734 141.341 15.7178H142.092C142.361 15.7178 142.645 15.7178 142.956 15.6172C143.189 16.0083 143.529 16.3228 143.934 16.5228C144.178 16.647 144.442 16.725 144.714 16.7529H145.238H146.301C147.033 16.7586 147.763 16.696 148.483 16.566C149.14 16.4548 149.788 16.3011 150.425 16.1059C150.928 15.9124 151.42 15.6916 151.899 15.4447C152.452 15.2003 152.976 14.9559 153.486 14.6972C153.616 15.0169 153.804 15.3094 154.039 15.5597C154.294 15.8134 154.586 16.0266 154.904 16.1922C155.267 16.3777 155.653 16.5131 156.051 16.5947C156.458 16.6763 156.87 16.7196 157.284 16.7241H164.286C164.502 16.721 164.716 16.6871 164.923 16.6235C165.162 16.5526 165.39 16.4512 165.604 16.3216C165.811 16.1935 166.002 16.0389 166.17 15.8616C166.349 15.6754 166.51 15.4733 166.652 15.2578C166.715 15.4774 166.81 15.686 166.936 15.876C167.065 16.0544 167.217 16.214 167.389 16.3503C167.566 16.4819 167.762 16.5839 167.97 16.6522C168.302 16.7598 168.655 16.7873 168.999 16.7324C169.344 16.6775 169.671 16.5417 169.954 16.3359C170.152 16.2059 170.333 16.0514 170.493 15.876C170.663 15.6951 170.815 15.4977 170.946 15.2866C171.113 15.7145 171.399 16.0841 171.768 16.3503C172.153 16.6136 172.609 16.7492 173.072 16.7385C173.313 16.7364 173.552 16.6977 173.781 16.6235C173.998 16.5471 174.203 16.4407 174.39 16.3072C174.584 16.1713 174.756 16.0065 174.901 15.8184C175.048 15.6234 175.172 15.411 175.269 15.1859C175.399 15.4196 175.556 15.6367 175.737 15.8328C175.915 16.0151 176.115 16.1744 176.332 16.3072C176.552 16.4474 176.79 16.554 177.041 16.6235C177.248 16.6861 177.462 16.7199 177.678 16.7241H178.826C179.206 16.7267 179.585 16.6979 179.96 16.6379C180.289 16.5921 180.61 16.4951 180.91 16.3503C181.183 16.2165 181.432 16.0366 181.647 15.8184C181.872 15.5689 182.054 15.282 182.185 14.9703C182.346 14.5891 182.423 14.1771 182.412 13.7628C182.413 13.6858 182.408 13.6089 182.398 13.5327ZM141.695 14.194H141.241H141.001C140.831 14.2083 140.66 14.2083 140.49 14.194C140.306 14.1809 140.125 14.1422 139.952 14.079C139.801 14.0327 139.665 13.9486 139.555 13.8346C139.506 13.7833 139.469 13.7223 139.444 13.6555C139.42 13.5887 139.409 13.5176 139.413 13.4465C139.415 13.2863 139.454 13.1288 139.527 12.9865C139.615 12.8285 139.73 12.6875 139.867 12.5696C140.002 12.4308 140.155 12.3101 140.32 12.2102L140.845 11.8939L141.341 11.6495L141.766 11.4627L141.978 13.0583C141.978 13.4752 142.106 13.8346 142.163 14.1221L141.695 14.194Z" fill="#191C1D"/>
</g>
<g clip-path="url(#clip1_1862_6223)">
<path d="M49.0452 14.3884H8.88928C4.74667 14.3884 1.38843 17.7467 1.38843 21.8893V62.0452C1.38843 66.1878 4.74667 69.546 8.88928 69.546H49.0452C53.1878 69.546 56.546 66.1878 56.546 62.0452V21.8893C56.546 17.7467 53.1878 14.3884 49.0452 14.3884Z" fill="#9E2064"/>
<path d="M49.0493 14.8423C50.9175 14.8434 52.7089 15.5863 54.0296 16.9077C55.3502 18.2291 56.0921 20.0209 56.0921 21.8892V62.0651C56.0921 63.933 55.3501 65.7244 54.0293 67.0452C52.7085 68.366 50.9171 69.108 49.0493 69.108H8.87329C7.94808 69.1085 7.03182 68.9267 6.17688 68.573C5.32194 68.2193 4.54507 67.7006 3.89066 67.0466C3.23624 66.3926 2.71711 65.616 2.36292 64.7612C2.00873 63.9065 1.82643 62.9904 1.82643 62.0651V21.8892C1.82643 20.0202 2.56887 18.2278 3.89041 16.9063C5.21195 15.5847 7.00435 14.8423 8.87329 14.8423H49.0493ZM49.0493 13.9343H8.87329C6.76452 13.9375 4.74303 14.7766 3.2519 16.2678C1.76076 17.7589 0.921645 19.7804 0.918457 21.8892V62.0651C0.921647 64.1736 1.76089 66.1946 3.25214 67.6851C4.74339 69.1756 6.76489 70.0138 8.87329 70.016H49.0493C51.157 70.0128 53.1775 69.1741 54.6678 67.6837C56.1582 66.1933 56.9969 64.1729 57.0001 62.0651V21.8892C56.998 19.7808 56.1597 17.7593 54.6692 16.268C53.1787 14.7768 51.1577 13.9375 49.0493 13.9343Z" fill="white"/>
<g style="mix-blend-mode:multiply" opacity="0.35">
<path d="M44.2923 30.961H42.4643V29.1329C42.4643 28.5043 42.2146 27.9014 41.77 27.4568C41.3255 27.0123 40.7226 26.7626 40.0939 26.7626H37.6834C37.0543 26.7626 36.451 27.0122 36.0058 27.4566C35.5607 27.901 35.31 28.5039 35.309 29.1329V30.961H31.6088V29.1289C31.6088 28.5003 31.359 27.8973 30.9145 27.4528C30.47 27.0083 29.8671 26.7585 29.2384 26.7585H19.094C18.4653 26.7585 17.8624 27.0083 17.4178 27.4528C16.9733 27.8973 16.7236 28.5003 16.7236 29.1289V30.961V34.5005L16.3459 34.1188L15.4982 33.2711L14.6505 32.4033C14.4307 32.1829 14.1696 32.0081 13.8821 31.8888C13.5946 31.7695 13.2864 31.7081 12.9751 31.7081C12.6639 31.7081 12.3557 31.7695 12.0682 31.8888C11.7808 32.0081 11.5196 32.1829 11.2998 32.4033L10.4481 33.251L9.60037 34.0987V34.1188C8.05702 35.6491 7.17439 37.7229 7.1416 39.8961V39.9403C7.14373 42.1591 8.02611 44.2865 9.59507 45.8555C11.164 47.4244 13.2914 48.3068 15.5103 48.3089C16.0497 48.3077 16.5878 48.2552 17.1173 48.1523C16.8387 48.9719 16.6896 49.8299 16.6754 50.6954V50.7396C16.6743 52.5761 17.2774 54.362 18.3917 55.8219C19.506 57.2818 21.0696 58.3345 22.8414 58.8179C24.6132 59.3013 26.4948 59.1884 28.196 58.4967C29.8973 57.805 31.3238 56.5728 32.2556 54.9902L32.2918 55.0264C33.1283 55.8371 34.1837 56.3854 35.328 56.6037C36.4723 56.8219 37.6555 56.7007 38.7317 56.2548C39.8079 55.8089 40.7302 55.058 41.3849 54.0944C42.0395 53.1308 42.398 51.9968 42.4161 50.832V46.0912C43.6662 45.6192 44.7431 44.778 45.5038 43.6793C46.2645 42.5806 46.6729 41.2766 46.6748 39.9403V33.3394C46.6758 33.0264 46.6149 32.7163 46.4955 32.427C46.3761 32.1377 46.2006 31.8749 45.9791 31.6538C45.7576 31.4327 45.4945 31.2576 45.205 31.1387C44.9155 31.0198 44.6053 30.9594 44.2923 30.961Z" fill="#B2B2B2"/>
<path d="M44.2923 30.961H42.4643V29.1329C42.4643 28.5043 42.2146 27.9014 41.77 27.4568C41.3255 27.0123 40.7226 26.7626 40.0939 26.7626H37.6834C37.0543 26.7626 36.451 27.0122 36.0058 27.4566C35.5607 27.901 35.31 28.5039 35.309 29.1329V30.961H31.6088V29.1289C31.6088 28.5003 31.359 27.8973 30.9145 27.4528C30.47 27.0083 29.8671 26.7585 29.2384 26.7585H19.094C18.4653 26.7585 17.8624 27.0083 17.4178 27.4528C16.9733 27.8973 16.7236 28.5003 16.7236 29.1289V30.961V34.5005L16.3459 34.1188L15.4982 33.2711L14.6505 32.4033C14.4307 32.1829 14.1696 32.0081 13.8821 31.8888C13.5946 31.7695 13.2864 31.7081 12.9751 31.7081C12.6639 31.7081 12.3557 31.7695 12.0682 31.8888C11.7808 32.0081 11.5196 32.1829 11.2998 32.4033L10.4481 33.251L9.60037 34.0987V34.1188C8.05702 35.6491 7.17439 37.7229 7.1416 39.8961V39.9403C7.14373 42.1591 8.02611 44.2865 9.59507 45.8555C11.164 47.4244 13.2914 48.3068 15.5103 48.3089C16.0497 48.3077 16.5878 48.2552 17.1173 48.1523C16.8387 48.9719 16.6896 49.8299 16.6754 50.6954V50.7396C16.6743 52.5761 17.2774 54.362 18.3917 55.8219C19.506 57.2818 21.0696 58.3345 22.8414 58.8179C24.6132 59.3013 26.4948 59.1884 28.196 58.4967C29.8973 57.805 31.3238 56.5728 32.2556 54.9902L32.2918 55.0264C33.1283 55.8371 34.1837 56.3854 35.328 56.6037C36.4723 56.8219 37.6555 56.7007 38.7317 56.2548C39.8079 55.8089 40.7302 55.058 41.3849 54.0944C42.0395 53.1308 42.398 51.9968 42.4161 50.832V46.0912C43.6662 45.6192 44.7431 44.778 45.5038 43.6793C46.2645 42.5806 46.6729 41.2766 46.6748 39.9403V33.3394C46.6758 33.0264 46.6149 32.7163 46.4955 32.427C46.3761 32.1377 46.2006 31.8749 45.9791 31.6538C45.7576 31.4327 45.4945 31.2576 45.205 31.1387C44.9155 31.0198 44.6053 30.9594 44.2923 30.961Z" stroke="#B2B2B2" stroke-width="2.02" stroke-miterlimit="10"/>
</g>
<path d="M45.771 30.4386H43.943V28.6106C43.943 27.9819 43.6932 27.379 43.2487 26.9345C42.8042 26.49 42.2013 26.2402 41.5726 26.2402H20.5726C19.9439 26.2402 19.341 26.49 18.8965 26.9345C18.452 27.379 18.2022 27.9819 18.2022 28.6106V30.4105V33.95L17.8246 33.5683L16.9769 32.7206L16.1291 31.8729C15.909 31.6524 15.6475 31.4775 15.3597 31.3582C15.0719 31.2388 14.7634 31.1774 14.4518 31.1774C14.1402 31.1774 13.8317 31.2388 13.5439 31.3582C13.2561 31.4775 12.9946 31.6524 12.7744 31.8729L11.9267 32.7206L11.079 33.5683C9.53085 35.1032 8.64903 37.1858 8.62427 39.3657C8.62427 39.3657 8.62427 39.3938 8.62427 39.4099C8.62429 40.6455 8.8979 41.8657 9.42545 42.983C9.95299 44.1002 10.7214 45.0868 11.6755 45.8719C12.6295 46.657 13.7456 47.221 14.9435 47.5236C16.1415 47.8262 17.3915 47.8597 18.604 47.6219C18.3285 48.4421 18.1808 49.2999 18.1661 50.165V50.2092C18.1665 52.0445 18.7703 53.8287 19.8843 55.2872C20.9984 56.7456 22.561 57.7974 24.3315 58.2806C26.1021 58.7638 27.9823 58.6515 29.6828 57.9611C31.3833 57.2707 32.8097 56.0405 33.7423 54.4598L33.7825 54.496C34.619 55.3067 35.6744 55.855 36.8187 56.0733C37.963 56.2916 39.1462 56.1703 40.2224 55.7244C41.2986 55.2786 42.2209 54.5276 42.8756 53.564C43.5302 52.6005 43.8887 51.4664 43.9068 50.3016V45.5609C45.1543 45.0842 46.2274 44.2395 46.9837 43.1387C47.74 42.038 48.1438 40.7334 48.1413 39.3979V32.809C48.1413 32.4977 48.08 32.1895 47.9609 31.9019C47.8418 31.6143 47.6672 31.353 47.4471 31.1329C47.227 30.9128 46.9657 30.7382 46.6781 30.6191C46.3905 30.4999 46.0822 30.4386 45.771 30.4386Z" fill="white"/>
<path d="M16.9728 45.4244C15.7827 45.4412 14.6149 45.1006 13.6203 44.4467C12.6258 43.7929 11.8502 42.8558 11.3938 41.7565C10.9374 40.6572 10.8212 39.4464 11.0601 38.2803C11.2991 37.1143 11.8823 36.0468 12.7343 35.2157L14.4337 33.5162H14.4538H14.4739L16.1693 35.2157C16.1708 35.2188 16.1715 35.2223 16.1715 35.2257C16.1715 35.2292 16.1708 35.2326 16.1693 35.2358L14.4739 36.9312C14.068 37.3464 13.7705 37.8552 13.6076 38.4126C13.4447 38.9699 13.4214 39.5588 13.5399 40.1273C13.6583 40.6958 13.9148 41.2264 14.2867 41.6723C14.6586 42.1183 15.1345 42.4659 15.6725 42.6845C16.2105 42.9031 16.7939 42.986 17.3715 42.9259C17.9491 42.8657 18.503 42.6644 18.9844 42.3397C19.4658 42.0149 19.8599 41.5768 20.1319 41.0638C20.404 40.5508 20.5457 39.9787 20.5445 39.398V28.6107C20.5444 28.6029 20.5472 28.5953 20.5524 28.5893C20.5576 28.5834 20.5648 28.5796 20.5726 28.5786H22.9831C22.991 28.5796 22.9981 28.5834 23.0033 28.5893C23.0085 28.5953 23.0113 28.6029 23.0113 28.6107V35.6094L25.3334 36.6741C25.7621 36.8762 26.2295 36.9831 26.7034 36.9874H28.3466V32.8091C28.3466 32.8017 28.3496 32.7945 28.3549 32.7893C28.3602 32.784 28.3673 32.781 28.3748 32.781H30.7853C30.7928 32.781 30.7999 32.784 30.8052 32.7893C30.8105 32.7945 30.8135 32.8017 30.8135 32.8091V35.6215L33.1356 36.6861C33.5672 36.8871 34.0375 36.9913 34.5137 36.9915H34.9556V32.8091C34.9556 32.8017 34.9586 32.7945 34.9638 32.7893C34.9691 32.784 34.9763 32.781 34.9837 32.781H37.3943C37.4021 32.781 37.4098 32.7838 37.4157 32.789C37.4216 32.7942 37.4254 32.8013 37.4264 32.8091V37.6303C37.4254 38.1154 37.2319 38.5804 36.8884 38.9231C36.545 39.2658 36.0796 39.4583 35.5944 39.4583H34.5257C34.0415 39.4572 33.5633 39.3517 33.1236 39.1489L30.8255 38.0762V39.398C30.8255 39.4055 30.8225 39.4126 30.8173 39.4179C30.812 39.4232 30.8048 39.4261 30.7974 39.4261H26.7034C26.2193 39.4247 25.7411 39.3192 25.3013 39.1168L23.0032 38.0441V39.398C23.0032 40.9963 22.3683 42.5291 21.2382 43.6593C20.108 44.7895 18.5751 45.4244 16.9768 45.4244H16.9728Z" fill="#9E2064"/>
<path d="M22.971 28.6108V35.6095L25.3092 36.7022C25.7449 36.9041 26.2191 37.0097 26.6993 37.0116H28.3706V34.0145V32.8092H30.7812V34.0145V35.6215L33.1194 36.7143C33.5549 36.917 34.0292 37.0226 34.5095 37.0236H34.9796V34.0265V32.8212H37.3901V34.0265V37.6424C37.3901 38.1197 37.2005 38.5775 36.863 38.9151C36.5254 39.2526 36.0676 39.4422 35.5902 39.4422H34.5216C34.041 39.4432 33.5663 39.3375 33.1315 39.1329L30.7932 38.0441V39.3981H26.7033C26.2229 39.398 25.7483 39.2924 25.3132 39.0887L22.975 37.9999V39.3981C22.9917 40.3899 22.7622 41.3705 22.3069 42.2519C21.8517 43.1333 21.185 43.888 20.3664 44.4484C19.5479 45.0089 18.6032 45.3576 17.6168 45.4633C16.6304 45.569 15.6332 45.4285 14.7145 45.0542C13.7958 44.6799 12.9843 44.0836 12.3526 43.3187C11.7209 42.5538 11.2888 41.6442 11.0949 40.6713C10.9011 39.6984 10.9516 38.6926 11.2418 37.744C11.5321 36.7954 12.0531 35.9336 12.7582 35.2358L13.61 34.3841L14.4577 33.5364L15.3054 34.3841L16.1531 35.2358L15.3054 36.0835L14.4577 36.9312C14.047 37.35 13.746 37.8636 13.5811 38.4265C13.4163 38.9894 13.3928 39.5843 13.5127 40.1584C13.6326 40.7326 13.8922 41.2683 14.2685 41.7182C14.6449 42.1681 15.1263 42.5182 15.6703 42.7376C16.2142 42.9571 16.8038 43.039 17.387 42.9762C17.9702 42.9134 18.5289 42.7078 19.0136 42.3776C19.4983 42.0473 19.8942 41.6027 20.1661 41.083C20.438 40.5633 20.5776 39.9846 20.5725 39.3981V36.3969V28.6108H22.983M22.983 28.5505H20.5725C20.5565 28.5505 20.5412 28.5569 20.5299 28.5682C20.5186 28.5795 20.5122 28.5948 20.5122 28.6108V39.4181C20.5275 40.0059 20.3964 40.5882 20.1306 41.1126C19.8648 41.637 19.4726 42.087 18.9896 42.4221C18.5065 42.7572 17.9476 42.9668 17.3633 43.0321C16.779 43.0974 16.1877 43.0163 15.6425 42.796C15.0974 42.5758 14.6157 42.2234 14.2407 41.7706C13.8657 41.3178 13.6093 40.7787 13.4945 40.2021C13.3798 39.6255 13.4103 39.0294 13.5833 38.4675C13.7564 37.9056 14.0665 37.3956 14.4858 36.9835L15.3335 36.1358L16.1812 35.2881C16.1872 35.2828 16.192 35.2763 16.1953 35.269C16.1986 35.2617 16.2003 35.2538 16.2003 35.2459C16.2003 35.2379 16.1986 35.23 16.1953 35.2227C16.192 35.2154 16.1872 35.209 16.1812 35.2037L15.3335 34.356L14.4858 33.5083C14.4729 33.5033 14.4586 33.5033 14.4456 33.5083C14.4393 33.5054 14.4325 33.5039 14.4255 33.5039C14.4186 33.5039 14.4118 33.5054 14.4055 33.5083L13.5537 34.356L12.706 35.2037C12.0122 35.9099 11.5031 36.7762 11.2236 37.7259C10.9441 38.6757 10.903 39.6797 11.1037 40.6491C11.3045 41.6186 11.741 42.5236 12.3746 43.2843C13.0083 44.0449 13.8196 44.6378 14.7368 45.0104C15.6541 45.383 16.649 45.5238 17.6336 45.4206C18.6182 45.3173 19.5622 44.973 20.3821 44.4182C21.2021 43.8634 21.8727 43.1152 22.3348 42.2396C22.7968 41.364 23.036 40.3881 23.0312 39.3981V38.0923L25.2851 39.1409C25.7283 39.3465 26.2108 39.4534 26.6993 39.4543H30.7732C30.7881 39.4543 30.8024 39.4484 30.8129 39.4378C30.8235 39.4273 30.8294 39.413 30.8294 39.3981V38.0923L33.0873 39.1409C33.5303 39.3469 34.0129 39.4538 34.5015 39.4543H35.5702C36.0628 39.4543 36.5353 39.2589 36.8841 38.9109C37.2328 38.5629 37.4293 38.0908 37.4303 37.5982V32.7771C37.4293 32.7618 37.4225 32.7475 37.4113 32.737C37.4001 32.7266 37.3854 32.7208 37.37 32.7208H34.9595C34.9446 32.7208 34.9303 32.7267 34.9197 32.7373C34.9092 32.7478 34.9032 32.7621 34.9032 32.7771V36.9192H34.5015C34.0298 36.9184 33.5638 36.8157 33.1355 36.6179L30.8294 35.5412V32.8092C30.8294 32.7943 30.8235 32.78 30.8129 32.7694C30.8024 32.7589 30.7881 32.7529 30.7732 32.7529H28.3626C28.3477 32.7529 28.3334 32.7589 28.3228 32.7694C28.3123 32.78 28.3063 32.7943 28.3063 32.8092V36.9513H26.6993C26.2289 36.9505 25.7642 36.8477 25.3373 36.65L23.0312 35.5733V28.6108C23.0312 28.5948 23.0249 28.5795 23.0136 28.5682C23.0023 28.5569 22.987 28.5505 22.971 28.5505H22.983Z" fill="#9E2064"/>
<path d="M39.158 43.6366C39.1506 43.6366 39.1434 43.6336 39.1381 43.6283C39.1328 43.623 39.1299 43.6159 39.1299 43.6084V41.1979C39.1299 41.1904 39.1328 41.1833 39.1381 41.178C39.1434 41.1727 39.1506 41.1698 39.158 41.1698H41.5686C42.0381 41.1687 42.4882 40.9817 42.8202 40.6496C43.1523 40.3176 43.3393 39.8676 43.3403 39.398V32.8091C43.3403 32.8017 43.3433 32.7945 43.3486 32.7892C43.3538 32.784 43.361 32.781 43.3685 32.781H45.779C45.7865 32.781 45.7936 32.784 45.7989 32.7892C45.8042 32.7945 45.8071 32.8017 45.8071 32.8091V39.398C45.8082 39.9549 45.6993 40.5065 45.4866 41.0213C45.274 41.536 44.9618 42.0037 44.568 42.3975C44.1742 42.7913 43.7066 43.1034 43.1919 43.3161C42.6771 43.5287 42.1255 43.6376 41.5686 43.6366H39.158Z" fill="#9E2064"/>
<path d="M45.7709 32.809V34.0143V39.3979C45.7725 39.9506 45.6649 40.4982 45.4544 41.0092C45.2439 41.5202 44.9345 41.9846 44.5441 42.3758C44.1536 42.767 43.6898 43.0773 43.1792 43.2888C42.6685 43.5003 42.1212 43.6089 41.5685 43.6084H39.1579V41.1978H41.5685C42.0455 41.1967 42.5027 41.0068 42.84 40.6694C43.1773 40.3321 43.3673 39.8749 43.3684 39.3979V34.0103V32.805H45.7789M45.7789 32.7488H43.3684C43.3531 32.7487 43.3383 32.7545 43.3271 32.765C43.3159 32.7754 43.3091 32.7897 43.3081 32.805V39.3979C43.3081 39.8593 43.1248 40.3018 42.7986 40.628C42.4723 40.9542 42.0299 41.1375 41.5685 41.1375H39.1579C39.1419 41.1375 39.1266 41.1439 39.1153 41.1552C39.104 41.1665 39.0977 41.1818 39.0977 41.1978V43.6084C39.0977 43.6243 39.104 43.6397 39.1153 43.651C39.1266 43.6623 39.1419 43.6686 39.1579 43.6686H41.5685C42.6973 43.6665 43.7793 43.2171 44.5775 42.4189C45.3756 41.6207 45.825 40.5388 45.8271 39.41V32.809C45.8261 32.7938 45.8193 32.7795 45.8081 32.769C45.7969 32.7586 45.7822 32.7528 45.7669 32.7528L45.7789 32.7488Z" fill="#9E2064"/>
<path d="M41.5725 28.5786H39.17C39.1544 28.5786 39.1418 28.5912 39.1418 28.6067V39.4101C39.1418 39.4256 39.1544 39.4382 39.17 39.4382H41.5725C41.588 39.4382 41.6006 39.4256 41.6006 39.4101V28.6067C41.6006 28.5912 41.588 28.5786 41.5725 28.5786Z" fill="#9E2064"/>
<path d="M41.5685 28.6108V39.3981H39.1579V28.6108H41.5685ZM41.5685 28.5505H39.1579C39.1419 28.5505 39.1266 28.5569 39.1153 28.5682C39.104 28.5795 39.0977 28.5948 39.0977 28.6108V39.3981C39.0976 39.4058 39.0992 39.4134 39.1023 39.4205C39.1054 39.4276 39.1099 39.434 39.1155 39.4393C39.1212 39.4446 39.1279 39.4486 39.1352 39.4512C39.1425 39.4538 39.1502 39.4549 39.1579 39.4543H41.5685C41.5834 39.4543 41.5977 39.4484 41.6082 39.4378C41.6188 39.4273 41.6247 39.413 41.6247 39.3981V28.6108C41.6248 28.5955 41.619 28.5807 41.6085 28.5695C41.5981 28.5584 41.5838 28.5516 41.5685 28.5505Z" fill="#9E2064"/>
<path d="M26.5107 56.2358C25.3216 56.2501 24.1555 55.9078 23.1628 55.253C22.1701 54.5982 21.3964 53.6609 20.9415 52.5622C20.4867 51.4635 20.3714 50.2536 20.6107 49.0888C20.8501 47.9239 21.4329 46.8575 22.2842 46.0271L23.9796 44.3276H23.9997H24.0198L25.7192 46.0271C25.7213 46.0336 25.7213 46.0406 25.7192 46.0472C25.7192 46.0472 25.7192 46.0472 25.7192 46.0673L24.0198 47.7627C23.5205 48.2545 23.1795 48.8841 23.0404 49.571C22.9012 50.2578 22.9703 50.9705 23.2387 51.6179C23.5072 52.2652 23.9627 52.8177 24.5471 53.2045C25.1314 53.5913 25.8179 53.7949 26.5187 53.7891C27.4355 53.7704 28.3222 53.4593 29.0498 52.9012C29.3719 52.6653 29.6339 52.3569 29.8147 52.0009C29.9955 51.645 30.0899 51.2515 30.0903 50.8522V45.4244C30.0903 45.417 30.0933 45.4098 30.0986 45.4046C30.1039 45.3993 30.111 45.3963 30.1185 45.3963H32.529C32.5365 45.3963 32.5436 45.3993 32.5489 45.4046C32.5542 45.4098 32.5572 45.417 32.5572 45.4244V47.1962H36.1288H36.2493C37.6675 47.0395 39.0616 45.4847 39.1058 45.4164H41.5164C41.5239 45.4164 41.531 45.4194 41.5363 45.4246C41.5416 45.4299 41.5445 45.4371 41.5445 45.4445V50.2656C41.561 51.2278 41.1947 52.1571 40.526 52.8492C39.8573 53.5412 38.9411 53.9393 37.9789 53.9558C37.0167 53.9723 36.0874 53.6059 35.3954 52.9373C34.7033 52.2686 34.3053 51.3524 34.2887 50.3902V50.3139C34.2887 50.3139 34.2887 50.2255 34.3128 50.2255L34.2887 49.6871H32.5451V50.2576C32.5324 51.8489 31.8907 53.3706 30.7602 54.4906C29.6297 55.6106 28.102 56.238 26.5107 56.2358ZM39.0817 48.1725C38.3981 48.7866 37.5934 49.2506 36.7194 49.5345L36.7475 50.2456C36.7682 50.5444 36.9025 50.8239 37.1227 51.0269C37.3429 51.2299 37.6324 51.341 37.9319 51.3374C38.2314 51.3338 38.5182 51.2158 38.7334 51.0076C38.9487 50.7993 39.0762 50.5166 39.0898 50.2174L39.0817 48.1725Z" fill="#9E2064"/>
<path d="M23.9915 44.3476L24.8392 45.1994L25.6869 46.0471L24.8392 46.8948L23.9915 47.7425C23.4808 48.2347 23.1303 48.8694 22.9859 49.5638C22.8414 50.2582 22.9096 50.98 23.1816 51.6351C23.4536 52.2901 23.9167 52.8479 24.5106 53.2358C25.1044 53.6236 25.8014 53.8234 26.5105 53.8091C27.4338 53.792 28.327 53.4779 29.0577 52.9132C29.3841 52.675 29.6496 52.3631 29.8325 52.0028C30.0155 51.6426 30.1106 51.2441 30.1103 50.8401V45.4244H32.5208V47.2242H36.1367H36.2612C37.7196 47.0635 39.1338 45.4364 39.1378 45.4364H41.5484V50.2575C41.4799 51.1559 41.0785 51.9963 40.4228 52.6142C39.7671 53.2321 38.9044 53.5829 38.0035 53.598C37.1027 53.6131 36.2287 53.2913 35.5527 52.6957C34.8767 52.1001 34.4474 51.2736 34.3488 50.378V50.3138C34.3488 50.2937 34.3488 50.2736 34.3488 50.2575V49.6549H32.549V50.2575C32.5515 51.2441 32.3107 52.2162 31.8481 53.0876C31.3854 53.959 30.715 54.7029 29.8963 55.2535C29.0776 55.8041 28.1358 56.1444 27.1543 56.2443C26.1727 56.3442 25.1817 56.2005 24.2689 55.8261C23.356 55.4517 22.5496 54.858 21.9209 54.0977C21.2922 53.3373 20.8606 52.4337 20.6643 51.4668C20.4681 50.4999 20.5132 49.4995 20.7957 48.5542C21.0782 47.6089 21.5894 46.7478 22.284 46.0471L23.1317 45.1994L23.9794 44.3476M37.9004 51.4066C38.2201 51.4066 38.5266 51.2796 38.7527 51.0535C38.9787 50.8275 39.1057 50.5209 39.1057 50.2013V48.1001C38.4094 48.7304 37.588 49.2068 36.6951 49.4982V50.2455C36.7045 50.5588 36.8357 50.8562 37.0607 51.0745C37.2857 51.2927 37.5869 51.4147 37.9004 51.4146M23.9794 44.2994C23.9731 44.2968 23.9662 44.2954 23.9593 44.2954C23.9525 44.2954 23.9456 44.2968 23.9393 44.2994L23.0875 45.1552L22.2358 46.0029C21.5404 46.708 21.0295 47.5736 20.7483 48.5232C20.4671 49.4728 20.4242 50.477 20.6235 51.4471C20.8228 52.4172 21.2581 53.3232 21.8909 54.085C22.5236 54.8468 23.3344 55.441 24.2514 55.8149C25.1685 56.1888 26.1635 56.3309 27.1486 56.2287C28.1336 56.1265 29.0783 55.7831 29.8991 55.2289C30.7198 54.6747 31.3913 53.9267 31.8542 53.0512C32.3171 52.1757 32.5571 51.1996 32.553 50.2093V49.6669H34.2364V50.3298C34.2364 50.3298 34.2364 50.3298 34.2364 50.3499C34.2534 51.3196 34.6549 52.2427 35.3526 52.9163C36.0503 53.5899 36.987 53.9587 37.9567 53.9417C38.9263 53.9246 39.8494 53.5231 40.523 52.8254C41.1966 52.1277 41.5654 51.191 41.5484 50.2214V45.4244C41.5484 45.409 41.5426 45.3943 41.5322 45.3831C41.5217 45.3719 41.5074 45.3651 41.4921 45.3641H39.0816C39.0685 45.3603 39.0545 45.3603 39.0414 45.3641C38.9771 45.4364 37.5991 46.9711 36.201 47.1399H36.0804H32.5691V45.4244C32.5691 45.409 32.5633 45.3943 32.5528 45.3831C32.5424 45.3719 32.5281 45.3651 32.5128 45.3641H30.1022C30.087 45.3651 30.0727 45.3719 30.0622 45.3831C30.0518 45.3943 30.046 45.409 30.046 45.4244V50.8561C30.0424 51.2483 29.9472 51.6342 29.7679 51.983C29.5886 52.3318 29.3303 52.6338 29.0135 52.8649C28.2922 53.4198 27.4123 53.7295 26.5025 53.7488C25.8054 53.7621 25.1206 53.5652 24.537 53.1837C23.9535 52.8022 23.4984 52.2539 23.2309 51.6101C22.9634 50.9663 22.8959 50.2569 23.0373 49.5742C23.1787 48.8915 23.5224 48.2673 24.0236 47.7827L24.8754 46.935L25.7231 46.0873C25.7325 46.0752 25.7377 46.0604 25.7377 46.0451C25.7377 46.0298 25.7325 46.0149 25.7231 46.0029L24.8754 45.1552L24.0236 44.3075C24.0173 44.3046 24.0105 44.3031 24.0035 44.3031C23.9966 44.3031 23.9898 44.3046 23.9835 44.3075L23.9794 44.2994ZM36.7594 49.5585C37.5995 49.2758 38.3751 48.8292 39.0414 48.2447V50.2173C39.0446 50.52 38.9274 50.8114 38.7157 51.0277C38.504 51.2439 38.2151 51.3672 37.9125 51.3704C37.6098 51.3736 37.3184 51.2565 37.1021 51.0447C36.8859 50.833 36.7626 50.5441 36.7594 50.2414V49.5585Z" fill="#9E2064"/>
<path d="M26.8924 50.7275H26.8723L25.1769 49.0402C25.1742 49.0375 25.1721 49.0344 25.1707 49.031C25.1692 49.0275 25.1685 49.0238 25.1685 49.0201C25.1685 49.0163 25.1692 49.0126 25.1707 49.0092C25.1721 49.0057 25.1742 49.0026 25.1769 49L26.8723 47.3005H26.8924H26.9165L28.6119 49C28.6146 49.0026 28.6167 49.0057 28.6182 49.0092C28.6196 49.0126 28.6204 49.0163 28.6204 49.0201C28.6204 49.0238 28.6196 49.0275 28.6182 49.031C28.6167 49.0344 28.6146 49.0375 28.6119 49.0402L26.9165 50.7396L26.8924 50.7275Z" fill="#9E2064"/>
<path d="M26.8922 47.3045L27.7439 48.1522L28.5916 48.9999L27.7439 49.8436L26.8922 50.6913L26.0444 49.8436L25.1967 48.9959L26.0444 48.1482L26.8922 47.3005M26.8922 47.2402C26.879 47.237 26.8652 47.237 26.852 47.2402L26.0043 48.092L25.1566 48.9397C25.1507 48.9446 25.1459 48.9507 25.1426 48.9577C25.1394 48.9646 25.1377 48.9722 25.1377 48.9798C25.1377 48.9875 25.1394 48.9951 25.1426 49.002C25.1459 49.009 25.1507 49.0151 25.1566 49.02L26.0043 49.8677L26.852 50.7195C26.8652 50.7227 26.879 50.7227 26.8922 50.7195C26.9066 50.7234 26.9219 50.7234 26.9363 50.7195L27.7841 49.8677L28.6318 49.0401C28.6347 49.0338 28.6362 49.027 28.6362 49.02C28.6362 49.0131 28.6347 49.0062 28.6318 48.9999C28.6344 48.9936 28.6358 48.9867 28.6358 48.9798C28.6358 48.973 28.6344 48.9661 28.6318 48.9598L27.7841 48.112L26.9363 47.2603C26.9219 47.2564 26.9066 47.2564 26.8922 47.2603V47.2402Z" fill="#9E2064"/>
<path d="M37.3661 43.6245C34.9128 43.3406 32.435 43.3406 29.9817 43.6245H29.9576C29.9549 43.6167 29.9549 43.6082 29.9576 43.6004V41.2139C31.19 41.0157 32.4383 40.9337 33.686 40.9689C34.9245 40.9417 36.1633 41.0143 37.3902 41.1858L37.4143 42.4152V43.6004C37.4171 43.6082 37.4171 43.6167 37.4143 43.6245H37.3902H37.3661Z" fill="#9E2064"/>
<path d="M33.6741 41.0049C34.91 40.9769 36.1461 41.0494 37.3702 41.2218V43.6083C34.9129 43.3244 32.4311 43.3244 29.9739 43.6083V41.2218C31.1993 41.0495 32.4368 40.9769 33.6741 41.0049ZM33.6741 40.9486C32.4328 40.9189 31.1911 40.9914 29.9618 41.1656C29.9483 41.1675 29.936 41.1743 29.9271 41.1847C29.9182 41.195 29.9134 41.2082 29.9136 41.2218V43.6083C29.9135 43.6171 29.9157 43.6258 29.92 43.6335C29.9242 43.6412 29.9303 43.6477 29.9377 43.6525C29.9495 43.6555 29.962 43.6555 29.9739 43.6525C32.4231 43.3686 34.8969 43.3686 37.3461 43.6525C37.3593 43.6563 37.3732 43.6563 37.3863 43.6525C37.3927 43.6471 37.3979 43.6403 37.4014 43.6327C37.4048 43.625 37.4066 43.6167 37.4064 43.6083V41.2218C37.4067 41.2088 37.4025 41.196 37.3944 41.1858C37.3863 41.1755 37.375 41.1684 37.3622 41.1656C36.1328 40.9916 34.8912 40.919 33.65 40.9486H33.6741Z" fill="#9E2064"/>
<path d="M32.1915 31.0374C29.7385 30.7481 27.2601 30.7481 24.8071 31.0374V28.6268C26.0397 28.4305 27.2879 28.3498 28.5355 28.3858C29.7739 28.3579 31.0126 28.4291 32.2397 28.5987L32.2638 29.8281V31.0333L32.1915 31.0374Z" fill="#9E2064"/>
<path d="M28.4994 28.4058C29.7365 28.3772 30.9739 28.4484 32.1996 28.6188V31.0293C29.7413 30.7401 27.2575 30.7401 24.7992 31.0293V28.6188C26.0249 28.4485 27.2623 28.3773 28.4994 28.4058ZM28.4994 28.3456C27.2581 28.318 26.0167 28.3906 24.7871 28.5625C24.7747 28.566 24.7637 28.5733 24.7558 28.5834C24.7478 28.5935 24.7433 28.6059 24.7429 28.6188V31.0293C24.7429 31.0443 24.7489 31.0586 24.7594 31.0691C24.7699 31.0797 24.7843 31.0856 24.7992 31.0856C27.2484 30.8017 29.7222 30.8017 32.1715 31.0856C32.1864 31.0856 32.2007 31.0797 32.2112 31.0691C32.2218 31.0586 32.2277 31.0443 32.2277 31.0293V28.6188C32.2273 28.6059 32.2228 28.5935 32.2149 28.5834C32.2069 28.5733 32.1959 28.566 32.1835 28.5625C30.954 28.3904 29.7125 28.3179 28.4713 28.3456H28.4994Z" fill="#9E2064"/>
</g>
<g clip-path="url(#clip2_1862_6223)">
<path d="M73.5874 42.208L71.4868 44.2035L73.5874 46.199L75.6879 44.2035L73.5874 42.208Z" fill="#191C1D"/>
<path d="M93.2889 38.5783L91.4781 40.2985L89.6672 38.5783L87.8564 40.2985L89.6672 42.0188L91.4781 40.2985L93.2889 42.0188L95.0997 40.2985L93.2889 38.5783ZM91.4781 36.1011L89.794 37.7009L91.4781 39.318L93.1621 37.7181L91.4781 36.1011Z" fill="#191C1D"/>
<path d="M104.932 51.6865L103.121 53.4068L101.311 51.6865L99.4998 53.4068L101.311 55.1271L103.121 53.4068L104.932 55.1271L106.743 53.4068L104.932 51.6865Z" fill="#191C1D"/>
<path d="M124.199 51.6865L122.388 53.4068L120.578 51.6865L118.767 53.4068L120.578 55.1271L122.388 53.4068L124.199 55.1271L126.01 53.4068L124.199 51.6865Z" fill="#191C1D"/>
<path d="M138.414 52.1682L136.603 53.8885L134.792 52.1682L132.982 53.8885L134.792 55.6088L136.603 53.8885L138.414 55.6088L140.225 53.8885L138.414 52.1682ZM136.603 54.8862L134.919 56.4689L136.621 58.0859L138.305 56.4861L136.603 54.8862Z" fill="#191C1D"/>
<path d="M140.714 46.7323C140.73 47.4276 140.575 48.1169 140.261 48.745C139.966 49.2922 139.538 49.7642 139.011 50.1212C138.464 50.4889 137.85 50.7571 137.201 50.9125C136.455 51.0892 135.688 51.1759 134.919 51.1706H132.873H132.311C132.07 51.1317 131.833 51.0682 131.605 50.9814C131.385 50.8955 131.173 50.7919 130.972 50.6717C130.783 50.5636 130.613 50.4303 130.464 50.2761C130.142 50.5992 129.736 50.8365 129.287 50.9642C128.655 51.1511 127.994 51.2383 127.332 51.2222H126.662C126.421 51.2392 126.179 51.2392 125.937 51.2222C125.643 51.1738 125.352 51.1047 125.068 51.0158C124.815 50.9255 124.572 50.8103 124.344 50.6717C124.151 50.5498 123.979 50.3987 123.837 50.2245C123.635 50.4253 123.396 50.5886 123.131 50.7061C122.818 50.8486 122.49 50.9582 122.153 51.033C121.771 51.1231 121.384 51.192 120.994 51.2394C120.571 51.2394 120.155 51.2394 119.745 51.2394H118.604C117.84 51.2426 117.082 51.1264 116.358 50.8954C115.626 50.6657 114.953 50.2904 114.385 49.7944C114.137 50.0499 113.857 50.2753 113.552 50.4653C113.25 50.643 112.928 50.7873 112.592 50.8954C112.271 51.0153 111.937 51.1018 111.596 51.1534C111.255 51.2076 110.91 51.2364 110.564 51.2394H107.395C107.148 51.2555 106.9 51.2555 106.652 51.2394C106.364 51.1889 106.08 51.1199 105.801 51.033C105.548 50.9428 105.305 50.8275 105.077 50.689C104.879 50.5722 104.707 50.4203 104.57 50.2417C104.365 50.4386 104.126 50.6015 103.864 50.7233C103.551 50.8658 103.223 50.9754 102.886 51.0502C102.504 51.1403 102.117 51.2092 101.727 51.2566C101.311 51.2566 100.894 51.2566 100.459 51.2566H99.3368C98.7821 51.2591 98.231 51.1718 97.7071 50.9986C97.1618 50.8134 96.6712 50.5066 96.2765 50.104C96.089 50.2891 95.8828 50.4562 95.6609 50.6029C95.4429 50.7611 95.2058 50.8939 94.9546 50.9986C94.3886 51.2524 93.7697 51.3818 93.1438 51.3771C92.8346 51.3787 92.5277 51.3262 92.2384 51.2222C91.9647 51.1391 91.7031 51.0234 91.4598 50.8782C91.2303 50.7472 91.0176 50.5913 90.826 50.4137L90.4095 49.9492C90.2857 50.1311 90.1398 50.2985 89.9749 50.4481C89.7897 50.6255 89.5831 50.7814 89.3593 50.9125C89.1114 51.0452 88.8507 51.1546 88.5806 51.2394C88.2741 51.3226 87.9577 51.3689 87.639 51.3771C87.3503 51.3804 87.063 51.3398 86.7879 51.2566C86.5255 51.1893 86.2753 51.0849 86.0455 50.947C85.8294 50.827 85.6339 50.6761 85.466 50.4997C85.3022 50.358 85.1672 50.1889 85.0677 50.0008C84.9627 50.1903 84.8215 50.3595 84.6512 50.4997C84.468 50.6683 84.253 50.8025 84.0174 50.8954C83.748 51.023 83.4617 51.1156 83.1663 51.1706C82.8378 51.2283 82.5044 51.2571 82.1704 51.2566H81.4823H81.102C81.0672 51.7871 80.97 52.3122 80.8123 52.8221C80.6452 53.3365 80.4206 53.8325 80.1423 54.3015C79.8507 54.7718 79.4979 55.2053 79.092 55.5917C78.6602 55.9961 78.173 56.3433 77.6434 56.6239C77.0687 56.9123 76.4611 57.1374 75.8326 57.2948C75.0904 57.4579 74.3308 57.5387 73.5691 57.5356C72.5134 57.55 71.4621 57.4048 70.4545 57.1055C69.5691 56.8579 68.7485 56.4359 68.0461 55.8669C67.3693 55.3034 66.842 54.5962 66.5069 53.8026C66.1114 52.8866 65.9202 51.9024 65.9456 50.9125C65.9552 49.8949 66.1324 48.8849 66.4707 47.9193C66.8493 46.8399 67.3598 45.8064 67.9918 44.84L70.7261 46.7151C70.5528 46.9816 70.3956 47.2573 70.2553 47.5408C70.078 47.8938 69.9208 48.2556 69.7845 48.6246C69.6425 49.0141 69.5216 49.4103 69.4223 49.8116C69.3326 50.1959 69.2841 50.5878 69.2775 50.9814C69.2683 51.395 69.388 51.802 69.6215 52.1511C69.8536 52.501 70.155 52.8048 70.5088 53.0457C70.8953 53.3128 71.3229 53.5216 71.7764 53.665C72.7865 54.0238 73.899 54.0238 74.9091 53.665C75.4311 53.5058 75.9254 53.2739 76.3758 52.9769C76.7775 52.6961 77.1264 52.353 77.408 51.9619C77.6644 51.586 77.8141 51.1533 77.8426 50.7061C77.8178 50.3096 77.7448 49.917 77.6253 49.5364C77.4987 49.1158 77.3476 48.7023 77.1726 48.2978C76.9915 47.8849 76.8104 47.4892 76.6112 47.0935C76.412 46.6979 76.2309 46.3195 76.0861 45.9926L79.2007 44.2723L79.418 44.6852C79.418 44.8916 79.6352 45.1152 79.7439 45.3733L80.1061 46.0958L80.3777 46.6635C80.5267 46.982 80.7647 47.2557 81.0658 47.4548C81.3149 47.6218 81.612 47.7119 81.9169 47.7129H82.0255C82.3889 47.7266 82.7444 47.6099 83.0215 47.386C83.327 47.1608 83.5747 46.8726 83.7458 46.5431C83.9657 46.1427 84.1416 45.7219 84.2709 45.2873C84.4158 44.8056 84.5787 44.3067 84.7236 43.7734L87.8925 44.3412C87.8925 44.5648 87.7658 44.8056 87.7114 45.0809C87.6571 45.3561 87.5847 45.6313 87.5304 45.9066C87.476 46.1818 87.4217 46.4399 87.3855 46.6979C87.3493 46.956 87.3855 47.1796 87.3855 47.386C87.3825 47.5562 87.4132 47.7255 87.476 47.8849C87.476 48.0053 87.6028 48.0741 87.7295 48.0741C87.9502 48.0576 88.1625 47.9864 88.3452 47.8677C88.5288 47.726 88.6877 47.5576 88.816 47.3688C88.9678 47.1467 89.0953 46.9103 89.1963 46.6635C89.3083 46.3951 89.3991 46.1191 89.4679 45.8378C89.4679 45.5453 89.6128 45.2529 89.6852 44.9432L89.8482 44.0831L92.673 44.2723C92.673 44.4616 92.673 44.7024 92.673 44.9604C92.673 45.2185 92.673 45.4937 92.5644 45.769C92.5463 46.0439 92.5463 46.3197 92.5644 46.5947C92.534 46.8347 92.534 47.0772 92.5644 47.3172C92.6155 47.509 92.715 47.6861 92.8541 47.8333C92.9231 47.9035 93.0076 47.9584 93.1015 47.9941C93.1954 48.0298 93.2964 48.0454 93.3973 48.0397C93.5948 48.0268 93.781 47.9475 93.9225 47.8161C94.0819 47.665 94.2054 47.4831 94.2847 47.2828C94.3934 47.0443 94.4782 46.7967 94.5382 46.5431C94.5382 46.2851 94.5382 46.0098 94.6649 45.7346C94.7917 45.4593 94.6649 45.2013 94.6649 44.9432C94.6649 44.6852 94.6649 44.4616 94.6649 44.2723L97.7433 43.8423C97.7433 44.5418 97.8157 45.1439 97.9606 45.6485C98.0374 46.0607 98.1588 46.4642 98.3227 46.8527C98.4326 47.1024 98.5996 47.3257 98.8117 47.5065C98.9915 47.6427 99.2154 47.7157 99.4454 47.7129H100.496H101.546C101.805 47.702 102.061 47.6556 102.307 47.5752C102.492 47.518 102.656 47.4104 102.777 47.2656C102.899 47.0983 102.968 46.9013 102.976 46.6979C103.02 46.4012 103.02 46.1001 102.976 45.8033C102.976 45.4593 102.85 45.0292 102.741 44.5131L106.091 43.7218C106.169 43.9933 106.23 44.2691 106.272 44.5476C106.272 44.8572 106.272 45.1841 106.399 45.5109C106.416 45.8318 106.416 46.1534 106.399 46.4743C106.421 46.7434 106.421 47.0137 106.399 47.2828C106.453 47.3916 106.542 47.4817 106.652 47.5408C106.755 47.6108 106.872 47.6579 106.996 47.6785H107.341H110.111C110.441 47.6809 110.77 47.6404 111.089 47.5581C111.296 47.501 111.488 47.4011 111.65 47.2656C111.774 47.171 111.868 47.0461 111.922 46.9043C111.937 46.7844 111.937 46.6631 111.922 46.5431C111.913 46.3337 111.857 46.1285 111.759 45.941C111.622 45.6727 111.464 45.4139 111.288 45.1669C111.091 44.8557 110.874 44.5569 110.636 44.2723L109.839 43.3434L109.025 42.4316L108.264 41.5887L108.644 38.5438L117.336 35.1033L118.712 38.2342L111.831 40.935C112.387 41.4683 112.895 42.0437 113.352 42.6553C113.769 43.223 114.131 43.739 114.439 44.2551L115.272 45.6485C115.501 46.0381 115.768 46.4067 116.069 46.7495C116.334 47.0467 116.653 47.2971 117.01 47.4892C117.411 47.6726 117.852 47.7611 118.296 47.7473H119.745H120.795C121.048 47.7347 121.298 47.6884 121.537 47.6097C121.725 47.5564 121.89 47.448 122.008 47.3C122.13 47.1327 122.199 46.9357 122.207 46.7323C122.242 46.4351 122.242 46.135 122.207 45.8378C122.207 45.4937 122.062 45.0637 121.954 44.5476L125.322 43.7562C125.322 43.9971 125.43 44.2551 125.485 44.582C125.539 44.9088 125.485 45.2185 125.63 45.5453C125.647 45.8662 125.647 46.1878 125.63 46.5087C125.659 46.7774 125.659 47.0484 125.63 47.3172C125.677 47.4247 125.76 47.5151 125.865 47.5752C125.969 47.6425 126.086 47.6893 126.209 47.7129H126.553H127.277C127.535 47.7125 127.787 47.6408 128.002 47.5065C128.173 47.3644 128.298 47.1796 128.364 46.9732C128.44 46.7217 128.477 46.4608 128.473 46.199C128.473 45.9066 128.473 45.6141 128.473 45.2873V43.9455C128.473 43.4638 128.473 42.9649 128.473 42.4316C128.473 41.8984 128.473 41.3823 128.473 40.849V39.3007C128.473 38.8019 128.473 38.3374 128.473 37.8902C128.473 37.4429 128.473 37.0472 128.473 36.6859L132.239 36.0495L132.366 46.87C132.348 47.0928 132.42 47.3137 132.565 47.4892C132.641 47.5657 132.734 47.6253 132.838 47.6639C132.941 47.7025 133.052 47.7193 133.163 47.7129H135.426H136.024L136.621 47.6097C136.802 47.5681 136.977 47.5105 137.146 47.4376C137.286 47.3854 137.415 47.3096 137.527 47.214C137.571 47.1777 137.607 47.1329 137.632 47.0825C137.657 47.0321 137.67 46.9773 137.671 46.9216C137.652 46.7248 137.597 46.5328 137.509 46.3538C137.4 46.0958 137.273 45.8033 137.11 45.4765C136.947 45.1496 136.766 44.7884 136.567 44.4099C136.368 44.0315 136.187 43.653 135.987 43.2918L139.374 41.7092C139.573 42.122 139.754 42.5521 139.935 42.9994C140.116 43.4466 140.261 43.8939 140.406 44.3412C140.544 44.7769 140.659 45.219 140.75 45.6657C140.762 46.0216 140.75 46.3779 140.714 46.7323Z" fill="#191C1D"/>
<path d="M141.746 50.8953C141.746 50.4996 141.746 50.0868 141.746 49.6567C141.746 49.2266 141.746 48.7793 141.746 48.332V47.0591C141.746 46.629 141.746 46.2505 141.746 45.8893C141.746 44.8055 141.746 43.7905 141.746 42.8616C141.746 41.9327 141.637 41.1414 141.565 40.3672C141.492 39.5931 141.42 38.991 141.329 38.4233C141.239 37.8556 141.184 37.4084 141.13 37.0299L144.752 35.8945C144.897 36.7719 145.023 37.6148 145.096 38.4577C145.168 39.3006 145.259 40.178 145.295 40.8317C145.331 41.4854 145.295 42.2767 145.404 42.896C145.512 43.5153 145.404 44.0486 145.404 44.4787V45.7689C145.404 46.2505 145.404 46.7494 145.404 47.2655V48.8309C145.404 49.3642 145.404 49.8803 145.404 50.362L141.746 50.8953Z" fill="#191C1D"/>
<path d="M162.226 51.1705C161.629 51.1705 160.995 51.1705 160.415 51.1705C159.727 51.1354 159.043 51.0491 158.369 50.9124C157.702 50.7755 157.047 50.5856 156.413 50.3448C155.797 50.1165 155.223 49.7972 154.711 49.3986C154.211 48.9971 153.799 48.5061 153.498 47.9536C153.169 47.3336 152.99 46.6521 152.973 45.9581C152.969 45.6047 153.012 45.2522 153.1 44.9087C153.183 44.558 153.292 44.2131 153.426 43.8765C153.572 43.5229 153.741 43.1782 153.933 42.8444L154.512 41.8294L157.319 44.083L156.975 44.6163L156.667 45.2184C156.582 45.397 156.509 45.581 156.45 45.7689C156.397 45.919 156.367 46.0753 156.359 46.2333C156.374 46.3776 156.429 46.5156 156.518 46.6333C156.607 46.7511 156.727 46.8445 156.866 46.9042C157.288 47.1132 157.739 47.2638 158.206 47.3515C158.805 47.463 159.409 47.5434 160.017 47.5923C160.723 47.5923 161.466 47.6784 162.226 47.6784C162.624 47.6784 163.095 47.6784 163.638 47.6784C164.182 47.6784 164.725 47.5924 165.304 47.5063C165.884 47.438 166.459 47.3345 167.025 47.1967C167.563 47.0857 168.09 46.9303 168.6 46.7322C168.455 46.4914 168.328 46.2506 168.202 46.0097L167.803 45.3044L167.314 44.513L166.663 43.5325L169.596 41.8123L170.049 42.552L170.538 43.4293C170.683 43.7562 170.845 44.0658 170.99 44.3927C171.147 44.7105 171.28 45.038 171.389 45.3732C171.497 45.6825 171.581 45.9987 171.642 46.3194C171.676 46.6052 171.676 46.8937 171.642 47.1795C171.614 47.566 171.496 47.9418 171.298 48.2804C171.078 48.6278 170.803 48.941 170.483 49.2094C170.125 49.493 169.736 49.7409 169.324 49.9491C168.871 50.1621 168.405 50.3516 167.93 50.5168C167.423 50.6716 166.916 50.8092 166.391 50.9297C165.866 51.0501 165.359 51.1361 164.852 51.2049C164.366 51.2746 163.876 51.3205 163.385 51.3425L162.226 51.1705ZM162.226 55.7292L160.126 53.7337L162.226 51.7554L164.308 53.7337L162.226 55.7292Z" fill="#191C1D"/>
<path d="M172.204 54.0262C172.934 53.8902 173.654 53.7063 174.358 53.4758C174.978 53.2925 175.583 53.0683 176.169 52.8048C176.645 52.5786 177.099 52.3138 177.527 52.0135C177.866 51.7822 178.16 51.497 178.397 51.1706H177.183C176.565 51.12 175.956 50.9928 175.373 50.7921C174.855 50.6226 174.381 50.3531 173.978 50.0008C173.577 49.6584 173.262 49.2352 173.055 48.7622C172.836 48.2132 172.731 47.6289 172.747 47.0419C172.751 46.6369 172.8 46.2334 172.892 45.8378C172.999 45.4172 173.151 45.008 173.344 44.6163C173.525 44.2275 173.75 43.8584 174.014 43.5154C174.26 43.1763 174.553 42.8698 174.884 42.6036C175.179 42.3434 175.515 42.1286 175.88 41.9672C176.226 41.8179 176.603 41.7416 176.984 41.7435C177.499 41.7394 178.008 41.8515 178.469 42.0704C178.934 42.2879 179.356 42.5787 179.718 42.9305C180.104 43.3143 180.439 43.7419 180.714 44.2035C181.009 44.692 181.258 45.2043 181.457 45.7346C181.646 46.2619 181.791 46.8026 181.891 47.3516C181.997 47.8675 182.051 48.3915 182.054 48.917C182.063 49.668 181.953 50.4161 181.728 51.1362C181.518 51.8111 181.207 52.4541 180.805 53.0457C180.405 53.6213 179.93 54.1472 179.393 54.6111C178.84 55.0923 178.232 55.5134 177.582 55.8669C176.908 56.2437 176.198 56.5605 175.463 56.8131C174.709 57.0852 173.934 57.3037 173.145 57.4667L172.204 54.0262ZM176.857 45.1497C176.674 45.1568 176.497 45.2168 176.35 45.3217C176.189 45.4437 176.048 45.5887 175.934 45.7517C175.822 45.9249 175.731 46.1096 175.662 46.3022C175.608 46.4756 175.578 46.6548 175.572 46.8355C175.571 46.8933 175.585 46.9504 175.614 47.0016C175.642 47.0527 175.684 47.0962 175.735 47.128C175.867 47.2233 176.013 47.2987 176.169 47.3516L176.803 47.4892L177.509 47.5752H178.215H178.831C178.806 47.2868 178.739 47.0031 178.632 46.7323C178.528 46.4448 178.381 46.1726 178.197 45.9238C178.037 45.6964 177.834 45.4983 177.6 45.3389C177.376 45.2101 177.119 45.1445 176.857 45.1497Z" fill="#191C1D"/>
</g>
<defs>
<clipPath id="clip0_1862_6223">
<rect width="57.4118" height="16" fill="white" transform="translate(125 6)"/>
</clipPath>
<clipPath id="clip1_1862_6223">
<rect width="57" height="57" fill="white" transform="translate(0 13)"/>
</clipPath>
<clipPath id="clip2_1862_6223">
<rect width="116" height="23" fill="white" transform="translate(66 35)"/>
</clipPath>
</defs>
</svg>
