<?xml version="1.0" encoding="utf-8"?> 
<svg width="48" height="48" viewBox="0 0 48 48" fill="none" xmlns="http://www.w3.org/2000/svg">
<g clip-path="url(#clip0_4766_51739)">
<mask id="mask0_4766_51739" style="mask-type:luminance" maskUnits="userSpaceOnUse" x="0" y="0" width="48" height="48">
<path d="M48 0H0V48H48V0Z" fill="white"/>
</mask>
<g mask="url(#mask0_4766_51739)">
<mask id="mask1_4766_51739" style="mask-type:luminance" maskUnits="userSpaceOnUse" x="18" y="4" width="26" height="33">
<path d="M43.9999 4H18.7329V36.1284H43.9999V4Z" fill="white"/>
</mask>
<g mask="url(#mask1_4766_51739)">
<path d="M38.7276 36.1284H23.9947C21.0902 36.1284 18.7329 33.7711 18.7329 30.8666V9.26177C18.7329 6.35727 21.0902 4 23.9947 4H31.94C33.729 4 35.4443 4.69455 36.7176 5.95738L41.8321 10.9666C43.2107 12.3346 43.9894 14.1868 43.9999 16.1336V30.8666C43.9999 33.7711 41.6427 36.1284 38.7382 36.1284C38.7382 36.1284 38.7382 36.1284 38.7276 36.1284ZM23.9842 6.10471C22.2373 6.10471 20.8271 7.51486 20.8271 9.26177V30.8245C20.8271 32.5714 22.2373 33.9816 23.9842 33.9816H38.7171C40.464 33.9816 41.8742 32.5714 41.8742 30.8245V16.0916C41.8742 14.713 41.3059 13.3975 40.3272 12.4294L35.2338 7.46225C34.3499 6.58879 33.1712 6.10471 31.9294 6.10471H23.9842Z" fill="#899294"/>
</g>
<path d="M24.8453 13.4712H17.8825C11.3178 13.4712 8.03547 13.4712 5.99611 15.5781C4.59195 17.0289 4.15459 19.0883 4.01837 22.4442C3.99135 23.1098 3.97784 23.4426 4.09784 23.6645C4.21783 23.8865 4.69686 24.1636 5.65491 24.7178C6.71893 25.3331 7.43816 26.509 7.43816 27.8583C7.43816 29.2078 6.71893 30.3836 5.65492 30.999C4.69687 31.5532 4.21783 31.8301 4.09783 32.0522C3.97784 32.2742 3.99135 32.607 4.01837 33.2725C4.15459 36.6284 4.59195 38.6879 5.99611 40.1386C8.03547 42.2456 11.3178 42.2456 17.8825 42.2456H24.8453C31.4099 42.2456 34.6922 42.2456 36.7316 40.1386C38.1358 38.6879 38.5731 36.6284 38.7094 33.2725C38.7363 32.607 38.7499 32.2742 38.6298 32.0522C38.5099 31.8301 38.0308 31.5532 37.0728 30.999C36.0087 30.3836 35.2896 29.2078 35.2896 27.8583C35.2896 26.509 36.0087 25.3331 37.0728 24.7178C38.0308 24.1636 38.5099 23.8865 38.6298 23.6645C38.7499 23.4426 38.7363 23.1098 38.7094 22.4443C38.5731 19.0884 38.1358 17.0289 36.7316 15.5781C34.6922 13.4712 31.4099 13.4712 24.8453 13.4712Z" fill="#A72B77"/>
<path d="M15.8309 34.5744L16.0427 34.2922C16.1367 34.1648 16.2529 34.0609 16.3841 33.987C16.5152 33.9131 16.6584 33.8709 16.8047 33.8631C16.9509 33.8552 17.097 33.8819 17.2337 33.9414C17.3704 34.0008 17.4948 34.0918 17.5989 34.2086L18.5197 35.1074C18.8696 34.773 19.2011 34.4385 19.5418 34.125C19.7172 33.9502 19.9404 33.8496 20.1736 33.8401C20.4068 33.8306 20.6358 33.9128 20.8217 34.0727C20.9241 34.1611 21.0224 34.2553 21.1164 34.3549L21.8991 35.1074L22.8199 34.2295C22.9183 34.1062 23.0384 34.0076 23.1724 33.9401C23.3064 33.8726 23.4514 33.8378 23.598 33.8378C23.7446 33.8378 23.8896 33.8726 24.0236 33.9401C24.1576 34.0076 24.2777 34.1062 24.3761 34.2295L25.2969 35.1074L26.2177 34.2086C26.3196 34.0949 26.4407 34.0058 26.5737 33.9467C26.7068 33.8876 26.849 33.8596 26.9918 33.8645C27.1346 33.8694 27.2751 33.907 27.4047 33.9751C27.5344 34.0432 27.6505 34.1404 27.7462 34.2609L28.0409 34.5953V22.1578C28.0621 22.0173 28.0525 21.8731 28.0129 21.7378C27.9733 21.6026 27.905 21.4805 27.814 21.3824C27.723 21.2842 27.612 21.213 27.491 21.1751C27.37 21.1371 27.2426 21.1336 27.1201 21.1649H16.6597C16.0427 21.1649 15.7389 21.4784 15.7389 22.2101V34.5744H15.8309ZM29.2748 24.0286V35.0343C29.3009 35.3451 29.2194 35.6553 29.0475 35.8992C28.8757 36.143 28.6269 36.3014 28.354 36.3407C28.1929 36.3665 28.0287 36.3465 27.8761 36.2827C27.7234 36.2189 27.5871 36.1131 27.4792 35.9749C27.3042 35.7868 27.1477 35.5778 26.9728 35.3687L26.0519 36.2676C25.9543 36.3794 25.8382 36.4683 25.7102 36.5289C25.5821 36.5895 25.4448 36.6207 25.3061 36.6207C25.1674 36.6207 25.03 36.5895 24.902 36.5289C24.774 36.4683 24.6578 36.3794 24.5602 36.2676L23.6394 35.4105H23.575L22.6542 36.2989C22.5556 36.4127 22.4381 36.5031 22.3085 36.5647C22.1788 36.6264 22.0396 36.6582 21.8991 36.6582C21.7585 36.6582 21.6194 36.6264 21.4897 36.5647C21.3601 36.5031 21.2426 36.4127 21.144 36.2989L20.2232 35.4001C19.9194 35.6927 19.6247 35.9749 19.3024 36.2676C19.2022 36.3948 19.0795 36.4967 18.9422 36.5664C18.805 36.6361 18.6563 36.6722 18.5059 36.6722C18.3555 36.6722 18.2069 36.6361 18.0696 36.5664C17.9323 36.4967 17.8096 36.3948 17.7094 36.2676L16.7886 35.4105C16.6228 35.6091 16.4755 35.8077 16.3098 35.9958C16.1672 36.1883 15.9733 36.323 15.7574 36.3795C15.5415 36.4361 15.3152 36.4115 15.1127 36.3094C14.9075 36.2145 14.7344 36.0478 14.6184 35.8335C14.5025 35.6192 14.4498 35.3685 14.4682 35.1179V22.1682C14.4536 21.8509 14.4979 21.5337 14.5983 21.2371C14.6986 20.9405 14.8528 20.6711 15.0507 20.4465C15.2486 20.2218 15.4859 20.0468 15.7473 19.9329C16.0086 19.819 16.2881 19.7687 16.5676 19.7853H27.1569C27.4357 19.7688 27.7143 19.8189 27.975 19.9322C28.2356 20.0455 28.4725 20.2195 28.6702 20.443C28.868 20.6665 29.0224 20.9346 29.1233 21.2299C29.2243 21.5253 29.2696 21.8413 29.2564 22.1578V24.0286H29.2748Z" fill="white"/>
<path fill-rule="evenodd" clip-rule="evenodd" d="M19.9168 27.4148C19.9168 26.9789 20.2701 26.6256 20.706 26.6256H25.8362C26.2721 26.6256 26.6255 26.9789 26.6255 27.4148C26.6255 27.8507 26.2721 28.2041 25.8362 28.2041H20.706C20.2701 28.2041 19.9168 27.8507 19.9168 27.4148Z" fill="white"/>
<path fill-rule="evenodd" clip-rule="evenodd" d="M17.1543 27.4148C17.1543 26.9789 17.5077 26.6256 17.9436 26.6256H18.3382C18.7741 26.6256 19.1275 26.9789 19.1275 27.4148C19.1275 27.8507 18.7741 28.2041 18.3382 28.2041H17.9436C17.5077 28.2041 17.1543 27.8507 17.1543 27.4148Z" fill="white"/>
<path fill-rule="evenodd" clip-rule="evenodd" d="M17.1543 24.6524C17.1543 24.2165 17.5077 23.8631 17.9436 23.8631H18.3382C18.7741 23.8631 19.1275 24.2165 19.1275 24.6524C19.1275 25.0883 18.7741 25.4417 18.3382 25.4417H17.9436C17.5077 25.4417 17.1543 25.0883 17.1543 24.6524Z" fill="white"/>
<path fill-rule="evenodd" clip-rule="evenodd" d="M17.1543 30.1773C17.1543 29.7414 17.5077 29.388 17.9436 29.388H18.3382C18.7741 29.388 19.1275 29.7414 19.1275 30.1773C19.1275 30.6132 18.7741 30.9665 18.3382 30.9665H17.9436C17.5077 30.9665 17.1543 30.6132 17.1543 30.1773Z" fill="white"/>
<path fill-rule="evenodd" clip-rule="evenodd" d="M19.9168 24.6524C19.9168 24.2165 20.2701 23.8631 20.706 23.8631H25.8362C26.2721 23.8631 26.6255 24.2165 26.6255 24.6524C26.6255 25.0883 26.2721 25.4417 25.8362 25.4417H20.706C20.2701 25.4417 19.9168 25.0883 19.9168 24.6524Z" fill="white"/>
<path fill-rule="evenodd" clip-rule="evenodd" d="M19.9168 30.1773C19.9168 29.7414 20.2701 29.388 20.706 29.388H25.8362C26.2721 29.388 26.6255 29.7414 26.6255 30.1773C26.6255 30.6132 26.2721 30.9665 25.8362 30.9665H20.706C20.2701 30.9665 19.9168 30.6132 19.9168 30.1773Z" fill="white"/>
</g>
</g>
<defs>
<clipPath id="clip0_4766_51739">
<rect width="48" height="48" fill="white"/>
</clipPath>
</defs>
</svg>
