<?xml version="1.0" encoding="utf-8"?><svg width="24" height="24" viewBox="0 0 24 24" fill="none" xmlns="http://www.w3.org/2000/svg">
<path d="M20.985 5.43669C20.98 3.73051 20.262 3.01251 18.5608 3C14.1911 3 9.82641 3 5.46671 3C3.75052 3 3.01251 3.718 3 5.40167C3 9.80473 3 14.2128 3 18.6259C3 20.2495 3.75052 20.9825 5.35914 20.9925C7.56067 21.01 9.7647 20.9925 11.9662 20.9925C14.1277 20.9925 16.2892 20.9925 18.4507 20.9925C20.2595 20.9925 20.97 20.302 20.975 18.5333C20.99 14.1686 20.9933 9.80306 20.985 5.43669ZM7.50313 17.9754C6.58749 17.9754 6.0246 17.43 6.01459 16.5119C6.00459 15.5937 6.55997 15.0384 7.47561 15.0108C8.39124 14.9833 8.85156 15.6013 9.00667 16.4093C8.9016 17.3825 8.43878 17.9729 7.50313 17.9754ZM13.0645 17.9754C12.2039 18.0379 12.0338 17.3975 11.9612 16.647C11.7111 14.0752 9.92981 12.2915 7.37304 12.0363C6.63753 11.9612 5.96956 11.8261 6.0246 10.953C6.07964 10.0799 6.76011 9.95233 7.43558 10.0224C10.8304 10.185 13.785 13.1395 13.9726 16.4869C14.0227 17.2024 13.9401 17.9029 13.0745 17.9654L13.0645 17.9754ZM17.0347 17.9754C16.1716 18.0179 16.0115 17.3675 15.9615 16.622C15.6338 11.8161 12.1839 8.36623 7.40806 8.0335C6.67755 7.98346 5.99708 7.86338 6.0246 6.98777C6.05212 6.11216 6.73009 6.00208 7.4706 6.00208C12.9394 6.08214 17.8778 11.0056 17.9779 16.5369C18.0429 17.2349 17.9104 17.9229 17.0448 17.9654L17.0347 17.9754Z" fill="#3F484A"/>
</svg>
