<?xml version="1.0" encoding="utf-8"?>
<svg width="96" height="96" viewBox="0 0 96 96" fill="none" xmlns="http://www.w3.org/2000/svg">
<path d="M14 48.0378C14 35.5053 14 22.9728 14 10.4402C14 5.45886 17.2814 1.35712 22.1442 0.269918C22.8756 0.101895 23.6366 0.0228254 24.3878 0.0228254C35.2895 0.00305803 46.1912 -0.0167094 57.0929 0.0228254C61.6691 0.0425928 66.0673 0.981544 70.1987 3.02747C76.4155 6.11118 80.2899 11.1024 82.1085 17.7443C82.7312 20.0175 83.1661 22.3402 83.1859 24.6925C83.2649 33.3704 83.2847 42.0483 83.2946 50.7262C83.3143 62.3395 83.3045 73.943 83.2946 85.5563C83.2946 90.3895 80.2207 94.4319 75.5952 95.6278C74.7155 95.8551 73.7766 95.9836 72.8673 95.9836C56.7074 96.0034 40.5575 96.0034 24.3976 95.9935C19.4261 95.9935 15.3442 92.7319 14.257 87.8889C14.0791 87.1081 14 86.2976 14 85.497C14 73.004 14 60.5209 14 48.0378ZM18.7738 47.9686C18.7738 47.9686 18.7837 47.9686 18.7738 47.9686C18.7738 60.5308 18.7738 73.1029 18.7837 85.665C18.7837 88.7389 21.2349 91.1999 24.2988 91.1999C40.5377 91.1999 56.7766 91.1999 73.0155 91.1999C76.0597 91.1999 78.5208 88.7488 78.5208 85.7145C78.5306 65.9866 78.5306 46.2489 78.5208 26.521C78.5208 23.9809 78.2045 21.4704 77.5324 19.0193C76.0103 13.4844 72.7684 9.3728 67.4807 6.98095C64.1795 5.49839 60.7005 4.78677 57.0929 4.77688C46.2406 4.767 35.3883 4.767 24.5261 4.767C21.1459 4.767 18.7738 7.13909 18.7738 10.5094C18.7738 23.0024 18.7738 35.4855 18.7738 47.9686Z" fill="#A72B77"/>
<path fill-rule="evenodd" clip-rule="evenodd" d="M40.3248 41.729L34.4406 39.7806C33.9273 40.6055 33.2525 41.2667 32.416 41.7643C31.5795 42.2618 30.6465 42.5106 29.617 42.5106C28.0568 42.5106 26.7305 41.9647 25.6383 40.8729C24.5461 39.7812 24 38.4555 24 36.8959C24 35.3363 24.5459 34.0098 25.6376 32.9165C26.7294 31.8233 28.0551 31.2766 29.6147 31.2766C31.1743 31.2766 32.5008 31.8227 33.594 32.9149C34.6873 34.0071 35.234 35.3333 35.234 36.8936C35.234 37.0141 35.2307 37.1149 35.2242 37.196C35.2177 37.2772 35.2144 37.3584 35.2144 37.4396L41.079 39.4782C41.642 38.436 42.4151 37.5418 43.3985 36.7955C44.3817 36.0492 45.5097 35.57 46.7824 35.3578V29.0886C45.4678 28.7796 44.4059 28.1151 43.5968 27.0952C42.7876 26.0752 42.383 24.9131 42.383 23.6089C42.383 22.0562 42.9289 20.7332 44.0207 19.6399C45.1124 18.5466 46.4381 18 47.9977 18C49.5574 18 50.8838 18.5461 51.9771 19.6383C53.0704 20.7305 53.617 22.0567 53.617 23.617C53.617 24.9158 53.2072 26.0752 52.3875 27.0952C51.5679 28.1151 50.5113 28.7796 49.2177 29.0886V35.3578C50.4903 35.57 51.615 36.0492 52.5918 36.7955C53.5685 37.5418 54.345 38.436 54.9211 39.4782L60.7857 37.4396C60.7726 37.3453 60.766 37.2609 60.766 37.1862V36.8936C60.766 35.3333 61.3119 34.0071 62.4037 32.9149C63.4954 31.8227 64.8211 31.2766 66.3807 31.2766C67.9404 31.2766 69.2668 31.8225 70.3601 32.9142C71.4534 34.006 72 35.3317 72 36.8913C72 38.4509 71.4539 39.7774 70.3617 40.8706C69.2695 41.9639 67.9433 42.5106 66.383 42.5106C65.3578 42.5106 64.4206 42.2618 63.5715 41.7643C62.7224 41.2667 62.0518 40.6055 61.5595 39.7806L55.6752 41.729V44H52.7136V43.0212C52.7136 41.7093 52.256 40.5957 51.3408 39.6804C50.4255 38.7653 49.312 38.3077 48 38.3077C46.6881 38.3077 45.5745 38.7653 44.6593 39.6805C43.7441 40.5957 43.2865 41.7093 43.2865 43.0213V44H40.3248V41.729ZM31.4259 38.7024C30.9296 39.1987 30.3267 39.4468 29.617 39.4468C28.9074 39.4468 28.3044 39.1987 27.8082 38.7025C27.312 38.2062 27.0638 37.6032 27.0638 36.8936C27.0638 36.1839 27.3119 35.581 27.8081 35.0847C28.3044 34.5885 28.9074 34.3403 29.617 34.3403C30.3267 34.3403 30.9296 34.5884 31.4259 35.0846C31.9222 35.5809 32.1703 36.1839 32.1703 36.8935C32.1703 37.6032 31.9222 38.2061 31.4259 38.7024ZM49.8089 25.4258C49.3126 25.9221 48.7097 26.1702 48 26.1702C47.2904 26.1702 46.6874 25.9221 46.1911 25.4259C45.6949 24.9296 45.4468 24.3266 45.4468 23.617C45.4468 22.9073 45.6949 22.3044 46.1911 21.8081C46.6874 21.3119 47.2904 21.0637 48 21.0637C48.7097 21.0637 49.3126 21.3118 49.8089 21.808C50.3052 22.3043 50.5533 22.9073 50.5533 23.6169C50.5533 24.3266 50.3052 24.9295 49.8089 25.4258ZM68.1919 38.7024C67.6956 39.1987 67.0927 39.4468 66.383 39.4468C65.6734 39.4468 65.0704 39.1987 64.5741 38.7025C64.0779 38.2062 63.8298 37.6032 63.8298 36.8936C63.8298 36.1839 64.0779 35.581 64.5741 35.0847C65.0704 34.5885 65.6734 34.3403 66.383 34.3403C67.0927 34.3403 67.6956 34.5884 68.1919 35.0846C68.6881 35.5809 68.9363 36.1839 68.9363 36.8935C68.9363 37.6032 68.6881 38.2061 68.1919 38.7024Z" fill="#A72B77"/>
<path fill-rule="evenodd" clip-rule="evenodd" d="M32.0155 62.9915C32.0155 61.8562 32.0129 60.7209 32.0103 59.5853C32.0045 57.0298 31.9986 54.4729 32.0224 51.9131C32.0498 49.2447 34.1009 46.7752 36.7144 46.1921C37.2632 46.0687 37.8463 46.0138 38.4088 46.0138C41.1458 46.0079 43.8841 46.0096 46.6225 46.0113C50.2738 46.0135 53.9255 46.0157 57.5748 46.0001C60.9361 45.9863 63.3027 48.3255 63.824 50.8842C63.9269 51.3849 63.9886 51.8994 63.9886 52.4139C64.0024 59.4794 64.0024 66.5449 63.9955 73.6035C63.9955 76.6972 62.0816 79.1462 59.1388 79.839C58.6655 79.9487 58.1716 80.0105 57.6846 80.0105C52.8455 80.0208 48.0027 80.0195 43.1617 80.0182H43.1531C41.5394 80.0178 39.9258 80.0173 38.3127 80.0173C35.0887 80.0173 32.4683 77.7399 32.0361 74.5433C31.9968 74.2401 31.9989 73.9278 32.0009 73.6175C32.0014 73.5487 32.0018 73.4799 32.0018 73.4114V62.9847C32.0087 62.9915 32.0155 62.9915 32.0155 62.9915ZM38.4346 60.0587C38.2865 60.1869 38.1493 60.3057 38.0178 60.4329C37.0711 61.3452 36.6527 62.4702 36.8996 63.7598C37.2289 65.461 38.3333 66.5106 39.9865 66.8673C40.6675 67.0147 41.3861 67.0114 42.1005 67.0082C42.3504 67.0071 42.6 67.006 42.847 67.0113C43.0528 67.0182 43.2792 66.9565 43.4712 66.8741C46.2288 65.708 48.9864 65.708 51.7441 66.8741C51.9293 66.9496 52.1351 67.0045 52.334 67.0045C53.2738 67.0251 54.2067 67.0319 55.1465 67.0182C56.0931 67.0045 56.9712 66.7232 57.7257 66.147C58.7547 65.365 59.3377 64.3223 59.2829 63.0258C59.2074 61.1463 57.7532 59.548 55.8873 59.3285C55.1092 59.2349 54.3205 59.2403 53.5313 59.2458C53.2213 59.2479 52.9111 59.25 52.6015 59.2461C52.4986 59.2461 52.382 59.3079 52.286 59.3628C50.9003 60.0967 49.4186 60.4535 47.8546 60.4946C46.0848 60.5358 44.411 60.1859 42.847 59.349C42.4217 59.1227 42.2091 58.91 42.2159 58.3338C42.2394 56.2637 42.2211 54.1903 42.2028 52.1181C42.1944 51.1624 42.186 50.2063 42.1816 49.2516C42.1816 48.9703 42.1062 48.8811 41.8181 48.8811C41.1401 48.889 40.4599 48.8879 39.78 48.8867C39.2701 48.8859 38.7595 48.8851 38.251 48.888C36.3509 48.8949 34.8692 50.3834 34.8623 52.2836C34.8577 54.1128 34.8593 55.9421 34.8608 57.7713L34.8608 57.7779C34.8616 58.6903 34.8623 59.6028 34.8623 60.5152C34.8623 60.5929 34.8684 60.6706 34.8745 60.7483C34.8775 60.7872 34.8806 60.8262 34.8829 60.865C34.8966 60.8685 34.9121 60.8736 34.9275 60.8788C34.9429 60.8839 34.9584 60.889 34.9721 60.8925C35.466 59.7538 36.2411 58.8483 37.2632 58.1143C37.6523 58.5747 38.0283 59.0263 38.4086 59.4831L38.6969 59.8292C38.6054 59.9108 38.5182 59.9864 38.4346 60.0587ZM61.046 60.5675L61.0561 60.5632C61.0681 60.5581 61.0801 60.5529 61.0938 60.5495C61.1007 60.4946 61.1076 60.4397 61.1076 60.3849C61.1076 59.5526 61.1094 58.721 61.1113 57.8896L61.1113 57.8854C61.1156 55.9431 61.1199 54.0015 61.1007 52.0572C61.087 50.3971 59.5847 48.9154 57.9178 48.8949C57.1133 48.8836 56.3087 48.8847 55.5053 48.8857C54.8359 48.8865 54.1673 48.8874 53.5001 48.8811C53.2395 48.8811 53.1709 48.9635 53.1709 49.2104L53.1709 49.2186C53.1777 51.6853 53.1846 54.1453 53.1709 56.612C53.1709 56.8864 53.2532 56.955 53.5207 56.9619C53.6761 56.9656 53.8315 56.9684 53.9868 56.9713C54.6882 56.984 55.3888 56.9968 56.0794 57.0922C58.1579 57.3803 59.7493 58.4573 60.8332 60.2614C60.864 60.3128 60.8948 60.3658 60.9256 60.4189C60.9565 60.4721 60.9875 60.5255 61.0184 60.5769C61.0282 60.5745 61.0372 60.5711 61.046 60.5675ZM53.1915 77.1225H53.5413C54.0106 77.1225 54.4792 77.1233 54.9475 77.124L54.9602 77.1241C55.9046 77.1256 56.8479 77.1271 57.7943 77.1225C59.619 77.1157 61.1076 75.634 61.1076 73.8093C61.1121 72.0903 61.1106 70.3683 61.1091 68.6473V68.645C61.1083 67.7847 61.1076 66.9239 61.1076 66.0647C61.1076 66 61.1021 65.9352 61.0947 65.8466C61.0903 65.7944 61.0852 65.7336 61.0801 65.66C61.0491 65.7065 61.0225 65.7458 60.9993 65.7801C60.9405 65.8672 60.9039 65.9214 60.8743 65.9755C59.962 67.5738 58.6038 68.5959 56.834 69.0761C55.9384 69.3209 55.0273 69.3214 54.1141 69.322C53.9781 69.3221 53.842 69.3222 53.7059 69.3231C53.5999 69.3231 53.494 69.3287 53.3843 69.3346C53.324 69.3378 53.2614 69.3412 53.1983 69.3436C53.1915 71.9435 53.1915 74.509 53.1915 77.1225ZM42.1816 77.1225C42.1816 76.8685 42.1808 76.6217 42.1801 76.3795C42.1785 75.9089 42.1771 75.4557 42.1816 75.0029C42.1953 73.2334 42.2091 71.463 42.2434 69.6935C42.2502 69.3848 42.1542 69.3025 41.8524 69.3093C41.4339 69.3231 41.0086 69.3025 40.5833 69.2682C38.0932 69.0624 36.2411 67.8757 35.0887 65.6394C35.0645 65.5951 35.0356 65.5532 34.9978 65.4983C34.9713 65.4597 34.9403 65.4148 34.9035 65.3581C34.8949 65.4153 34.8875 65.457 34.8818 65.4892C34.8738 65.5342 34.8692 65.5605 34.8692 65.5845C34.8692 66.3785 34.8669 67.172 34.8647 67.9652C34.8591 69.9474 34.8535 71.928 34.8829 73.9122C34.9103 75.6957 36.4195 77.1157 38.203 77.1225C38.9479 77.1271 39.6928 77.1256 40.4398 77.1241L40.449 77.124C40.8201 77.1233 41.1918 77.1225 41.5642 77.1225H42.1816ZM44.3973 53.2096H44.411C44.411 53.544 44.4115 53.8783 44.4119 54.2127C44.4132 55.216 44.4145 56.2193 44.4042 57.2225C44.4042 57.4558 44.4659 57.593 44.6991 57.689C46.709 58.4916 48.6983 58.4847 50.6808 57.6067C50.8866 57.5175 50.9689 57.4077 50.9689 57.1745C50.9552 54.5335 50.9552 51.8925 50.962 49.2584C50.962 48.9772 50.8866 48.888 50.5985 48.888C48.6435 48.9017 46.6885 48.9017 44.7334 48.888C44.459 48.888 44.3836 48.9703 44.3836 49.2378C44.4 50.2912 44.399 51.349 44.3979 52.4112L44.3973 53.2096ZM44.3973 77.102C44.4641 77.1049 44.5235 77.109 44.5781 77.1128C44.6526 77.118 44.7182 77.1225 44.7815 77.1225C45.2653 77.1225 45.7487 77.1221 46.2318 77.1217C47.6805 77.1204 49.1273 77.1191 50.5779 77.1294C50.8797 77.1294 50.9689 77.0471 50.962 76.7453C50.9552 74.2895 50.9552 71.8269 50.9689 69.3711C50.9689 69.1241 50.8866 69.0075 50.6671 68.9115C48.7121 68.0677 46.757 68.0471 44.7746 68.8292C44.4933 68.9389 44.4042 69.083 44.4042 69.3779C44.411 71.8131 44.4042 74.2483 44.3973 76.6835V77.102Z" fill="#A72B77"/>
</svg>
