<?xml version="1.0" encoding="utf-8"?>
<svg xmlns="http://www.w3.org/2000/svg" width="70" height="40" fill="none">
  <path fill="#58595B" fill-rule="evenodd" d="M19.565 20.76h.703c.686 0 1.241-.588 1.241-1.315v-.824h-1.944v2.14Zm2.491 0h.703c.685 0 1.241-.588 1.241-1.315v-.824h-1.944v2.14Zm8.037-5.122c0 .55-.028 1-.102 1.374-.084.402-.223.726-.436 1-.666.815-.86.275-.86 1.512v1.246c.073-.01.148-.03.222-.04a.54.54 0 0 1 .148-.029c.055-.02.102-.029.148-.039a3.7 3.7 0 0 0 .722-.314c.037-.02.084-.049.13-.078.046-.03.092-.06.13-.089.222-.157.435-.343.638-.559l.167-.186c.046-.06.093-.108.139-.167l.074-.098c.055-.079.12-.167.176-.265.055-.098.111-.187.148-.275.046-.088.093-.187.13-.285.194-.5.305-1.04.305-1.629V10.31h-.685c-.667 0-1.213.579-1.213 1.286v1.393c.019 1.698.01.923.019 2.65Zm-1.833-2.493V9.73h.008V5h-.703c-.685 0-1.24.589-1.24 1.315v10.589h1.953v-2.032l-.019-1.727Zm-9.13-6.879h-.704c-.685 0-1.24.599-1.24 1.315v.834h1.944v-2.15Zm-2.5 0h-.704c-.685 0-1.24.599-1.24 1.315v.834h1.944v-2.15Z" clip-rule="evenodd"/>
  <path fill="#58595B" fill-rule="evenodd" d="M22.768 12.92v.235c0 1.374-1.333 1.963-2.425 1.668-.695-.196-1.213-.863-1.213-1.668 0-.942.009-1.894.009-2.846h-.704c-.685 0-1.25.589-1.24 1.315 0 .245.009.461.018.687v.844c0 .952-.732 1.717-1.62 1.717h-2.667c-.852 0-1.546-.706-1.611-1.58v-1.805h-.01V5h-.675c-.686 0-1.241.589-1.241 1.315v10.687c0 .942-.732 1.717-1.62 1.717H5.574c-.889 0-1.62-.775-1.62-1.717V12.86H3.25c-.685 0-1.25.588-1.25 1.314.01 1.021.028 2.032.028 3.052 0 1.944 1.5 3.533 3.333 3.533h2.611c1.834 0 3.334-1.59 3.334-3.533v-.657a3.11 3.11 0 0 0 1.407.334h3.083c.926 0 1.769-.413 2.37-1.06.491.53 1.149.903 1.88 1.02.445.07 1.278.079 1.723.01 1.638-.216 2.916-1.707 2.916-3.503v-3.072h-.703c-.686 0-1.25.59-1.241 1.315.009.461.027.864.027 1.305Z" clip-rule="evenodd"/>
  <path fill="#58595B" d="M31.99 26.416v-1.168h-.462c-.454 0-.824.393-.824.873v7.625H32v-7.33h-.01Zm-14.333 6.329v-2.453c0-.383.093-.687.278-.922a.84.84 0 0 1 .695-.344c.194 0 .333.06.416.167.084.108.13.265.13.451v4.112h1.296V29.36c0-.461-.13-.825-.38-1.09-.25-.274-.583-.412-1.018-.412-.296 0-.556.07-.806.197a2.1 2.1 0 0 0-.62.5v-3.307l-.01.02v-.02h-.471c-.454 0-.824.393-.824.873v7.625h1.296l.018-1Zm2.926-7.085v1.296h1.853v6.8h1.36v-6.8h1.834v-.471c0-.452-.352-.825-.778-.825h-4.269Zm6.371 3.641c.139-.235.333-.343.564-.343.14 0 .26.039.362.108a.782.782 0 0 1 .231.294c.065.118.102.255.13.422.027.157.046.324.046.49h-1.602c.047-.412.14-.735.269-.971Zm2.231 4.19c.195-.078.361-.157.426-.186l-.166-.412a49.803 49.803 0 0 0-.278-.687c-.611.235-1.204.608-1.824.353a.89.89 0 0 1-.361-.285 1.137 1.137 0 0 1-.195-.46 3.694 3.694 0 0 1-.083-.6h2.648a.266.266 0 0 0 .204-.088c.055-.059.074-.127.074-.216 0-1.03-.185-1.796-.547-2.286-.36-.49-.888-.746-1.574-.746-.342 0-.639.069-.907.216a1.95 1.95 0 0 0-.676.608c-.185.265-.324.57-.426.933a4.46 4.46 0 0 0-.157 1.207c0 1.01.213 1.766.63 2.267.453.54 1 .745 1.564.765.611.01 1.074-.147 1.648-.383Zm-15.509-2.63c0-.628-.074-1.099-.222-1.383-.148-.295-.352-.442-.62-.442-.306 0-.52.128-.658.383-.158.284-.24.755-.24 1.442 0 .334.018.609.055.834.037.226.092.403.166.53a.74.74 0 0 0 .287.285.81.81 0 0 0 .38.088c.278 0 .482-.137.62-.402.167-.265.232-.707.232-1.335Zm-1.093 5.368c-.583-.078-1.472-.432-2.009-.677l.167-.422.277-.687.77.285c.258.098.75.275 1 .255.295-.03.508-.118.629-.294.139-.187.203-.471.203-.835v-.804a1.494 1.494 0 0 1-.463.52c-.203.147-.453.216-.74.216-.25 0-.482-.05-.713-.148a1.5 1.5 0 0 1-.593-.49c-.167-.226-.296-.53-.398-.913a6.243 6.243 0 0 1-.148-1.452c0-.5.046-.962.13-1.355a2.3 2.3 0 0 1 .5-1.02c.13-.137.296-.275.5-.383a1.41 1.41 0 0 1 .675-.167c.287 0 .547.07.778.216.204.118.37.295.5.5a.836.836 0 0 1 .806-.676h.472v1.432h-.01v4.426c0 .295-.018.59-.046.883-.037.285-.12.55-.259.785a1.426 1.426 0 0 1-.648.57 2.307 2.307 0 0 1-1.38.235Zm-4.37-2.473h1.296v-5.858h-.472c-.463 0-.833.392-.833.883v.197l.009.666v4.112ZM9.51 25.66h-.473c-.454 0-.824.393-.824.874v.55h1.296V25.66Z"/>
  <path fill="#58595B" fill-rule="evenodd" d="M3.352 32.647v1.11H2.009v-7.214c0-.48.37-.873.824-.873h1.491c.482 0 .88.069 1.185.206.306.137.547.314.722.53.176.216.288.442.352.687.065.245.093.471.093.677 0 .5-.13.922-.38 1.266-.25.353-.63.579-1.12.677-.046.02-.074.02-.093.02.241.059.463.196.658.383.194.186.352.412.472.667.056.118.12.284.204.5.083.216.166.442.259.687.093.246.185.481.268.726.093.246.167.452.241.638.01.03.12.393.12.412H5.732a88.886 88.886 0 0 1-.425-1.432 7.556 7.556 0 0 0-.39-1.08 2.54 2.54 0 0 0-.472-.706.948.948 0 0 0-.722-.295h-.38v2.414h.01Zm0-3.513v-2.218h.926c.176 0 .324.03.454.089a.881.881 0 0 1 .49.559c.037.128.056.255.056.383 0 .343-.102.628-.296.854-.195.225-.473.333-.834.333h-.796Z" clip-rule="evenodd"/>
  <g clip-path="url(#a)">
    <path fill="#9C2776" fill-rule="evenodd" d="M51.988 4C43.156 4 36 11.156 36 19.988c0 8.833 7.156 15.988 15.988 15.988 8.833 0 15.988-7.155 15.988-15.988C68 11.156 60.844 4 51.988 4Zm6.022 24.443a11.828 11.828 0 0 1-8.43 3.495 11.885 11.885 0 0 1-8.432-3.495 11.884 11.884 0 0 1-3.495-8.455c0-3.306 1.346-6.282 3.495-8.43a11.927 11.927 0 0 1 8.431-3.496c3.283 0 6.282 1.346 8.431 3.495a11.927 11.927 0 0 1 3.495 8.431c0 3.306-1.322 6.282-3.495 8.455Z" clip-rule="evenodd"/>
    <path fill="url(#b)" d="M51.161 11.18a8.809 8.809 0 0 1 0 17.617c-4.84 0-8.785-3.944-8.785-8.809 0-4.865 3.944-8.809 8.785-8.809Zm-13.177 8.808c0 6.4 5.195 11.596 11.595 11.596s11.596-5.196 11.596-11.596S55.979 8.393 49.579 8.393c-6.4.023-11.595 5.195-11.595 11.595Z"/>
  </g>
  <defs>
    <linearGradient id="b" x1="37.992" x2="61.173" y1="19.997" y2="19.997" gradientUnits="userSpaceOnUse">
      <stop stop-color="#9F2373"/>
      <stop offset="1" stop-color="#E9CCE2"/>
    </linearGradient>
    <clipPath id="a">
      <path fill="white" d="M0 0h32v32H0z" transform="translate(36 4)"/>
    </clipPath>
  </defs>
</svg>
