<?xml version="1.0" encoding="utf-8"?><svg width="24" height="24" viewBox="0 0 24 24" fill="none" xmlns="http://www.w3.org/2000/svg">
<path d="M7.29596 4.33921C7.39573 4.20063 7.55094 4.20063 7.69645 4.16599C8.7247 4.45839 9.56726 5.11802 10.5054 5.5878C10.8544 5.76152 11.1926 5.95588 11.5185 6.16983C11.7443 6.3195 11.9938 6.47055 11.9342 6.81284C11.7305 7.21749 11.3147 7.35745 10.9683 7.55701C10.0675 8.06975 9.1931 8.63099 8.28957 9.13958C8.04983 9.27816 7.79761 9.41674 7.77821 9.7424C7.73525 11.2668 7.81008 12.7911 7.7408 14.3155C7.72143 14.4 7.68251 14.4788 7.62716 14.5455C7.59675 14.5769 7.55568 14.5957 7.51206 14.5983C7.46845 14.6009 7.42546 14.587 7.39158 14.5594C7.32873 14.4984 7.28124 14.4233 7.253 14.3404C7.05622 12.7385 7.14491 11.1323 7.20311 9.5276C7.18856 9.44183 7.18856 9.35422 7.20311 9.26846C7.09779 7.87297 7.17539 6.47332 7.15045 5.07645C7.1673 4.8255 7.2162 4.57774 7.29596 4.33921Z" fill="#8E8E8E"/>
<path d="M16.7193 19.5746C15.497 20.2675 14.2789 20.9604 13.0525 21.6408C12.7373 21.8387 12.3659 21.9277 11.9952 21.8944C11.9171 21.8264 11.8548 21.7422 11.8127 21.6476C11.7706 21.5531 11.7496 21.4505 11.7513 21.347C11.7513 19.9612 11.6335 18.5643 11.8178 17.1772C11.8371 17.098 11.873 17.0239 11.9231 16.9596C11.9503 16.9323 11.9831 16.9113 12.0192 16.8979C12.0553 16.8845 12.0939 16.8791 12.1323 16.882C13.3061 17.507 14.4134 18.2484 15.5816 18.8858C16.1359 19.1879 16.1858 19.163 16.1927 18.5228C16.2052 17.5361 16.1927 16.548 16.1927 15.5613C16.1927 15.244 16.1553 14.9155 16.341 14.6231C16.3653 14.5918 16.398 14.568 16.4352 14.5545C16.4725 14.541 16.5129 14.5384 16.5516 14.5469L16.6486 14.6245L16.7138 14.7312C16.9355 15.402 16.8315 16.0949 16.826 16.7753C16.8205 17.7079 16.9452 18.6502 16.7193 19.5746Z" fill="#8F8F8F"/>
<path d="M16.4186 4.20063L16.5669 4.32258C16.7254 4.49376 16.8156 4.71711 16.8205 4.95034C16.8205 6.3098 16.9119 7.66926 16.7706 9.02456C16.7539 9.10524 16.7259 9.18315 16.6874 9.25598C16.6447 9.32314 16.5823 9.37542 16.5087 9.40565C16.4374 9.42736 16.3623 9.43396 16.2883 9.42505C14.8319 8.65178 13.3671 7.89237 12.0672 6.85996C12.0438 6.79476 12.0353 6.72516 12.0423 6.65625C12.1296 6.35692 12.3929 6.24051 12.6285 6.10193C13.6484 5.51851 14.6794 4.9545 15.7049 4.3794C15.9239 4.25745 16.147 4.12441 16.4186 4.20063Z" fill="#707070"/>
<path d="M7.4345 14.5843H7.57308C7.65691 14.5445 7.74992 14.528 7.84233 14.5366C7.93475 14.5451 8.02316 14.5784 8.09829 14.6328C9.28452 15.2897 10.4805 15.9313 11.6473 16.6228C11.7704 16.6891 11.8632 16.8003 11.9064 16.9333C11.9619 17.1993 11.8233 17.3698 11.6196 17.5014C10.4514 18.2581 9.21108 18.8872 8.03039 19.6272C7.88622 19.6985 7.72448 19.7264 7.56476 19.7076C7.50976 19.7141 7.45404 19.7055 7.40353 19.6828C7.35301 19.6601 7.3096 19.6241 7.2779 19.5787C7.10607 17.9435 7.00075 16.3069 7.33056 14.6772L7.4345 14.5843Z" fill="#8E8E8E"/>
<path d="M20.8656 7.63738C21.043 7.88267 20.9931 8.16675 20.9931 8.43698C20.9931 10.779 20.9931 13.1214 20.9931 15.4643C20.9931 15.9729 20.9529 16.4732 20.6785 16.9222C20.4762 17.112 20.285 16.979 20.1145 16.882C19.0585 16.2819 18.0095 15.6708 16.9743 15.0333C16.7953 14.9271 16.6568 14.7643 16.5807 14.5705L16.5627 14.5802C16.5472 14.5642 16.5355 14.5449 16.5283 14.5239C16.5211 14.5028 16.5187 14.4804 16.5211 14.4582C16.5211 14.4153 16.5322 14.3931 16.5406 14.3931C17.3263 13.7446 18.2769 13.3704 19.1417 12.8521C19.4964 12.6401 19.8623 12.4447 20.217 12.234C20.4374 12.1024 20.6619 11.9721 20.6231 11.6562C20.5372 10.5392 20.5843 9.42366 20.5954 8.30949C20.5995 8.05866 20.6369 7.80506 20.8656 7.63738Z" fill="#474747"/>
<path d="M7.56476 19.7007C8.81197 18.8068 10.1978 18.1569 11.4893 17.331C11.6417 17.234 11.8316 17.1799 11.8607 16.9624C11.8675 16.9499 11.8775 16.9396 11.8897 16.9323C11.9019 16.9251 11.9158 16.9213 11.93 16.9213C11.9442 16.9213 11.9581 16.9251 11.9703 16.9323C11.9825 16.9396 11.9925 16.9499 11.9993 16.9624L11.991 21.893C11.5785 21.8991 11.1723 21.7912 10.8172 21.5812C9.72797 20.9604 8.64706 20.3284 7.56476 19.7007Z" fill="#7A7A7A"/>
<path d="M7.4151 9.32528L7.39709 9.46385C7.29608 9.69633 7.1199 9.88813 6.89682 10.0085C5.85748 10.6238 4.80844 11.2238 3.77048 11.8446C3.54598 11.9832 3.29931 12.1578 3.01523 11.9458C3.01523 10.657 2.99305 9.36824 3.01523 8.08084C3.02215 7.74963 3.05126 7.38794 3.28545 7.10247C3.50857 6.91816 3.73168 7.01794 3.92846 7.13157C4.94979 7.71638 5.98497 8.27623 7.00491 8.86381C7.18615 8.97141 7.32949 9.13267 7.4151 9.32528Z" fill="#4D4D4D"/>
<path d="M7.39711 14.4458L7.43036 14.5843L7.41373 14.5733C7.31733 14.8067 7.14949 15.0037 6.93425 15.1359C5.9642 15.6902 4.99415 16.257 4.0241 16.8279C3.82732 16.9443 3.62776 17.0732 3.38248 16.9568C3.03187 16.5937 3.02079 16.117 3.01109 15.6694C2.98614 14.522 3.01109 13.3732 3.01109 12.2243C3.11363 11.9929 3.30764 12.0151 3.47255 12.1024C4.75995 12.7953 6.06952 13.4397 7.26684 14.285C7.31752 14.3323 7.36137 14.3864 7.39711 14.4458Z" fill="#333333"/>
<path d="M16.4186 4.20063L12.1226 6.68673C11.79 6.5731 11.7415 6.25853 11.7305 5.97583C11.6972 4.85472 11.7 3.73362 11.7305 2.61252C11.7315 2.49675 11.7566 2.38247 11.8044 2.277C11.8521 2.17152 11.9213 2.07718 12.0076 2C12.8114 2.02772 13.4613 2.47117 14.132 2.84672C14.9053 3.2777 15.6578 3.74748 16.4186 4.20063Z" fill="#989898"/>
<path d="M7.41512 9.32527C6.27185 8.68088 5.13134 8.03233 3.98391 7.39626C3.75878 7.28672 3.52741 7.19047 3.29102 7.10801C3.46701 6.55924 3.93956 6.29594 4.38579 6.01878C5.34337 5.43675 6.32589 4.89491 7.29594 4.33782C7.45392 4.4764 7.43452 4.66903 7.43452 4.85056C7.42713 6.3426 7.42066 7.83416 7.41512 9.32527Z" fill="#707070"/>
<path d="M7.39712 14.4458C6.01965 13.8416 4.78214 12.9796 3.44485 12.2992C3.30627 12.2243 3.18294 12.1163 3.01526 12.2243V11.9472C4.40105 11.3513 5.6053 10.445 6.92595 9.73824C7.08532 9.65232 7.24053 9.5567 7.39712 9.46108V14.4458Z" fill="#3E3E3E"/>
<path d="M16.5918 9.3225L16.5669 4.32258C17.864 4.90322 19.0461 5.68619 20.2351 6.45392C20.3524 6.5257 20.4543 6.62015 20.5347 6.73174C20.6151 6.84333 20.6725 6.96984 20.7035 7.10385C19.8581 7.86604 18.8077 8.29563 17.8363 8.84856C17.4538 9.06752 17.1143 9.45277 16.5918 9.3225Z" fill="#515151"/>
<path d="M16.5918 9.3225C17.9776 8.60189 19.2553 7.69836 20.7034 7.10524C20.7735 7.17312 20.8251 7.25771 20.8535 7.35104C20.8819 7.44437 20.886 7.54339 20.8656 7.63877L20.8545 11.9527C20.6826 12.1038 20.4983 12.0414 20.3445 11.9444C19.1611 11.1919 17.8792 10.6044 16.7415 9.77565C16.6475 9.70885 16.5721 9.61918 16.5225 9.51513C16.51 9.4826 16.5061 9.44739 16.5112 9.41291C16.5163 9.37843 16.5302 9.34586 16.5516 9.31834L16.5918 9.3225Z" fill="#3D3D3D"/>
<path d="M16.5807 14.5705L20.6771 16.9263C20.4803 17.3725 20.0923 17.6331 19.707 17.8659C18.719 18.4507 17.7157 19.0092 16.7193 19.5787C16.553 19.4401 16.5682 19.2531 16.5696 19.0701C16.5715 17.5679 16.5752 16.0681 16.5807 14.5705Z" fill="#707070"/>
<path d="M12.0076 2C12.0076 3.34699 12.0076 4.69397 12.0076 6.03957C12.0076 6.2613 11.9481 6.50242 12.1462 6.68673C12.1573 6.72549 12.1629 6.76561 12.1628 6.80591C12.1456 6.82913 12.1231 6.84799 12.0972 6.86099C12.0714 6.87398 12.0428 6.88075 12.0139 6.88075C11.9849 6.88075 11.9564 6.87398 11.9305 6.86099C11.9047 6.84799 11.8822 6.82913 11.8649 6.80591C11.4533 6.14489 10.7078 6.01878 10.1299 5.63492C9.48135 5.21919 8.77183 4.88798 8.08586 4.52629C7.92234 4.44037 7.75881 4.36 7.69507 4.16737C9.07393 3.33036 10.3613 2.31735 12.0076 2Z" fill="#ADADAD"/>
<path d="M3.38251 16.9568L7.41515 14.5733C7.41515 16.0459 7.41931 17.5199 7.42762 18.9953C7.42762 19.1976 7.46642 19.411 7.27796 19.5718C6.32592 19.0244 5.35587 18.4909 4.41076 17.9227C4.0075 17.6788 3.55435 17.4571 3.38251 16.9568Z" fill="#707070"/>
<path d="M11.8469 6.79898H12.1448L16.3022 9.2934C16.4407 9.49988 16.341 9.66479 16.1733 9.75902C14.8124 10.5295 13.5181 11.422 12.0339 11.9624C11.8247 11.9771 11.6163 11.9242 11.4394 11.8114C10.2615 11.0852 9.00461 10.4976 7.82808 9.76872C7.74116 9.6673 7.66151 9.55987 7.58972 9.44722C7.63684 9.20748 7.85441 9.15621 8.02625 9.05366L11.8469 6.79898Z" fill="#FEFEFE"/>
<path d="M7.84058 9.59412C9.0767 10.2274 10.3017 10.8815 11.4866 11.6104C11.648 11.6925 11.8158 11.7615 11.9882 11.8169C12.2377 12.0082 12.2654 12.2881 12.2654 12.5652C12.2802 13.7616 12.2802 14.958 12.2654 16.1544C12.2654 16.4316 12.2238 16.7088 11.9882 16.9055L11.9979 16.9637H11.8594L7.57312 14.5774V14.4388C7.69507 13.0281 7.58698 11.616 7.63825 10.2052C7.64934 9.99877 7.45256 9.68558 7.84058 9.59412Z" fill="#E0E0E0"/>
<path d="M7.84056 9.59412C7.63131 9.80337 7.70198 10.0708 7.70198 10.3161C7.70198 11.4455 7.70198 12.5749 7.70198 13.7044C7.70198 13.951 7.77405 14.2171 7.58142 14.4347C7.58142 12.7717 7.58142 11.1088 7.58142 9.44584L7.84056 9.59412Z" fill="#E4E4E4"/>
<path d="M11.9882 16.9055V11.8169C13.3851 11.0561 14.7834 10.2926 16.1761 9.53037C16.2398 9.49573 16.2578 9.37655 16.2966 9.29617C16.3389 9.29736 16.3806 9.3058 16.42 9.32112C16.4574 9.40704 16.438 9.29202 16.4518 9.38071C16.7551 11.1026 16.7485 12.8648 16.4324 14.5843C16.3148 14.7803 16.15 14.9437 15.953 15.0597C14.9178 15.6597 13.8798 16.232 12.8391 16.8141C12.6229 16.936 12.3956 17.0691 12.1268 16.9527L11.9882 16.9055Z" fill="#F5F5F5"/>
<path d="M12.131 16.9582L16.4269 14.5871C16.4269 16.0768 16.4269 17.5666 16.4269 19.0563C16.4269 19.3819 16.3895 19.6466 15.9724 19.4027C14.8074 18.7228 13.6452 18.0382 12.4857 17.349C12.3347 17.2603 12.1532 17.1744 12.131 16.9582Z" fill="#989898"/>
<path d="M16.4325 14.5843L16.42 9.31835C16.4661 9.31385 16.5125 9.31385 16.5586 9.31835L16.6001 9.46801C16.7582 9.74632 16.844 10.0598 16.8496 10.3799C16.8426 11.4538 16.8496 12.5264 16.8496 13.6004C16.8675 13.898 16.7802 14.1923 16.6029 14.4319L16.5724 14.5705L16.4325 14.5843Z" fill="#989898"/>
<path d="M16.5946 14.4347V9.46663L20.8545 11.9513C20.7367 12.41 20.2753 12.4419 19.9593 12.6179C18.8479 13.2401 17.7781 13.9455 16.5946 14.4347Z" fill="#333333"/>
</svg>
