<?xml version="1.0" encoding="utf-8"?> 
<svg width="48" height="48" viewBox="0 0 48 48" fill="none" xmlns="http://www.w3.org/2000/svg">
<g clip-path="url(#clip0_4766_51603)">
<mask id="mask0_4766_51603" style="mask-type:luminance" maskUnits="userSpaceOnUse" x="0" y="0" width="48" height="48">
<path d="M48 0H0V48H48V0Z" fill="white"/>
</mask>
<g mask="url(#mask0_4766_51603)">
<mask id="mask1_4766_51603" style="mask-type:luminance" maskUnits="userSpaceOnUse" x="18" y="4" width="26" height="33">
<path d="M43.9999 4H18.7329V36.1284H43.9999V4Z" fill="white"/>
</mask>
<g mask="url(#mask1_4766_51603)">
<path d="M38.7276 36.1284H23.9947C21.0902 36.1284 18.7329 33.7711 18.7329 30.8666V9.26177C18.7329 6.35727 21.0902 4 23.9947 4H31.94C33.729 4 35.4443 4.69455 36.7176 5.95738L41.8321 10.9666C43.2107 12.3346 43.9894 14.1868 43.9999 16.1336V30.8666C43.9999 33.7711 41.6427 36.1284 38.7382 36.1284C38.7382 36.1284 38.7382 36.1284 38.7276 36.1284ZM23.9842 6.10471C22.2373 6.10471 20.8271 7.51486 20.8271 9.26177V30.8245C20.8271 32.5714 22.2373 33.9816 23.9842 33.9816H38.7171C40.464 33.9816 41.8742 32.5714 41.8742 30.8245V16.0916C41.8742 14.713 41.3059 13.3975 40.3272 12.4294L35.2338 7.46225C34.3499 6.58879 33.1712 6.10471 31.9294 6.10471H23.9842Z" fill="#899294"/>
</g>
<path d="M24.8453 13.4712H17.8825C11.3178 13.4712 8.03548 13.4712 5.99611 15.5781C4.59195 17.0289 4.15459 19.0883 4.01837 22.4442C3.99135 23.1098 3.97784 23.4426 4.09784 23.6645C4.21783 23.8865 4.69686 24.1636 5.65491 24.7178C6.71893 25.3331 7.43816 26.509 7.43816 27.8583C7.43816 29.2078 6.71893 30.3836 5.65492 30.999C4.69687 31.5532 4.21783 31.8301 4.09783 32.0522C3.97784 32.2742 3.99135 32.607 4.01837 33.2725C4.15459 36.6285 4.59195 38.6879 5.99611 40.1386C8.03548 42.2456 11.3178 42.2456 17.8825 42.2456H24.8453C31.4099 42.2456 34.6922 42.2456 36.7316 40.1386C38.1358 38.6879 38.5731 36.6285 38.7094 33.2725C38.7363 32.607 38.7499 32.2742 38.6298 32.0522C38.5099 31.8301 38.0308 31.5532 37.0728 30.999C36.0087 30.3836 35.2896 29.2078 35.2896 27.8583C35.2896 26.509 36.0087 25.3331 37.0728 24.7178C38.0308 24.1636 38.5099 23.8865 38.6298 23.6645C38.7499 23.4426 38.7363 23.1098 38.7094 22.4443C38.5731 19.0884 38.1358 17.0289 36.7316 15.5781C34.6922 13.4712 31.4099 13.4712 24.8453 13.4712Z" fill="#A72B77"/>
<path fill-rule="evenodd" clip-rule="evenodd" d="M15.4004 25.2011C15.031 25.5698 14.7865 26.1263 14.7865 26.8702V33.0028C14.7865 33.7467 15.031 34.3032 15.4004 34.6719C15.7699 35.0408 16.3268 35.2838 17.0675 35.2838H21.9768C22.7175 35.2838 23.2743 35.0408 23.6439 34.6719C24.0133 34.3032 24.2577 33.7467 24.2577 33.0028V28.7487C24.2577 28.1455 24.0176 27.5651 23.5897 27.1368C23.5895 27.1366 23.5898 27.137 23.5897 27.1368L21.704 25.259L21.7028 25.2578C21.2745 24.8295 20.6938 24.5892 20.0904 24.5892H17.0675C16.3268 24.5892 15.7699 24.8322 15.4004 25.2011ZM14.2852 24.0839C14.991 23.3794 15.9692 23.0107 17.0675 23.0107H20.0904C21.1126 23.0107 22.0944 23.4174 22.8184 24.141C22.8186 24.1412 22.8182 24.1408 22.8184 24.141L24.7053 26.0201C25.4294 26.7441 25.8363 27.7262 25.8363 28.7487V33.0028C25.8363 34.1058 25.4651 35.0844 24.7591 35.7891C24.0533 36.4936 23.075 36.8623 21.9768 36.8623H17.0675C15.9692 36.8623 14.991 36.4936 14.2852 35.7891C13.5792 35.0844 13.208 34.1058 13.208 33.0028V26.8702C13.208 25.7673 13.5792 24.7886 14.2852 24.0839Z" fill="white"/>
<path fill-rule="evenodd" clip-rule="evenodd" d="M19.5411 23.0109H20.0904C21.1126 23.0109 22.0944 23.4176 22.8184 24.1412C22.8186 24.1414 22.8182 24.141 22.8184 24.1412L24.7053 26.0203C25.4294 26.7443 25.8363 27.7264 25.8363 28.7488V31.7796H26.7123C27.4516 31.7796 28.0087 31.5356 28.379 31.1653C28.7493 30.795 28.9933 30.2379 28.9933 29.4986V25.2445C28.9933 24.6411 28.753 24.0604 28.3247 23.6321L26.4384 21.7458C26.0101 21.3175 25.4294 21.0772 24.826 21.0772H21.8031C21.0638 21.0772 20.5067 21.3212 20.1365 21.6915C19.8266 22.0014 19.6051 22.4421 19.5411 23.0109ZM19.0203 20.5753C19.7254 19.8702 20.7034 19.4986 21.8031 19.4986H24.826C25.8485 19.4986 26.8306 19.9056 27.5546 20.6296L29.4409 22.5159C30.165 23.2399 30.5719 24.222 30.5719 25.2445V29.4986C30.5719 30.5983 30.2003 31.5764 29.4952 32.2815C28.7901 32.9866 27.8121 33.3582 26.7123 33.3582H25.047C24.6111 33.3582 24.2577 33.0048 24.2577 32.5689V28.7488C24.2577 28.1457 24.0176 27.5652 23.5897 27.137C23.5895 27.1368 23.5898 27.1372 23.5897 27.137L21.704 25.2592L21.7028 25.258C21.2745 24.8297 20.6938 24.5894 20.0904 24.5894H18.7329C18.297 24.5894 17.9436 24.236 17.9436 23.8001V23.3582C17.9436 22.2584 18.3152 21.2804 19.0203 20.5753Z" fill="white"/>
</g>
</g>
<defs>
<clipPath id="clip0_4766_51603">
<rect width="48" height="48" fill="white"/>
</clipPath>
</defs>
</svg>
