<?xml version="1.0" encoding="utf-8"?><svg width="24" height="24" viewBox="0 0 24 24" fill="none" xmlns="http://www.w3.org/2000/svg">
<path d="M20.9437 10.9872C20.8873 10.4607 20.7815 9.94065 20.6277 9.43397C20.4811 8.92592 20.2867 8.4329 20.047 7.96153C19.7566 7.38409 19.4052 6.83941 18.9988 6.33682C18.2811 5.44911 17.4004 4.70679 16.404 4.14982C15.98 3.91716 15.5421 3.70294 15.0837 3.54624C14.674 3.39265 14.2524 3.27315 13.823 3.18896C13.3944 3.08757 12.9544 3.06231 12.5187 3H11.498C11.3573 3.02544 11.2122 3.03687 11.0693 3.0507C9.3421 3.22546 7.70345 3.90065 6.35447 4.99342C6.10319 5.18681 5.87054 5.40122 5.64471 5.62023C5.15156 6.1202 4.7045 6.67105 4.3404 7.2702C4.0729 7.69451 3.8453 8.14268 3.6605 8.60898C3.46147 9.08483 3.30867 9.57872 3.20422 10.0838C3.10983 10.4918 3.05674 10.9088 3.01987 11.3236C2.97839 12.0127 2.99922 12.7041 3.10744 13.3838C3.20154 13.9891 3.35822 14.583 3.57496 15.156C4.11713 16.5877 5.01526 17.8577 6.18456 18.8459C7.35385 19.8341 8.75572 20.5081 10.2578 20.804C11.9791 21.1451 13.8042 20.9722 15.4266 20.2971C16.1341 20.6682 16.8276 21.0667 17.5374 21.4354H17.6827C17.7133 21.3904 17.741 21.3435 17.7656 21.295C17.8047 20.4928 17.7841 19.6819 17.7795 18.8775C18.8579 17.972 19.7294 16.8152 20.2775 15.5155C20.5768 14.8233 20.7845 14.095 20.8951 13.3491C21.016 12.5674 21.0324 11.7731 20.9437 10.9872ZM15.6782 13.9208C15.6166 14.4086 15.4625 14.8802 15.2241 15.3103C14.6182 16.3427 13.5812 17.0801 12.4496 17.4374C10.8481 17.9535 9.01139 17.6307 7.67721 16.6054C7.3039 16.292 6.90975 15.9671 6.66787 15.5361C6.85684 15.5662 7.01354 15.6768 7.19089 15.7343C8.01126 16.004 8.96991 15.8565 9.63358 15.2964C10.0991 14.9255 10.4333 14.3861 10.5485 13.8032C10.6614 13.2617 10.5762 12.7017 10.4217 12.1785C10.288 11.6763 10.0969 11.1877 9.99768 10.6762C9.91712 10.1968 9.91251 9.70589 10.0069 9.22897C10.1332 8.60999 10.4138 8.03293 10.8227 7.55134C11.5671 6.71253 12.6917 6.21016 13.8184 6.30916C13.83 6.31838 13.8507 6.3346 13.8599 6.34142C13.3207 6.75161 13.0395 7.49604 13.2654 8.1505C13.4152 8.60659 13.6848 9.01696 13.9729 9.3995C14.2793 9.83494 14.6204 10.2451 14.9085 10.6968C15.1574 11.1186 15.3694 11.5657 15.5145 12.0358C15.685 12.6463 15.7608 13.2894 15.6782 13.9208Z" fill="#3F484A"/>
</svg>
