<?xml version="1.0" encoding="utf-8"?>
<svg width="48" height="48" viewBox="0 0 48 48" fill="none" xmlns="http://www.w3.org/2000/svg">
<g clip-path="url(#clip0_6706_3950)">
<mask id="mask0_6706_3950" style="mask-type:luminance" maskUnits="userSpaceOnUse" x="0" y="0" width="48" height="48">
<path d="M48 0H0V48H48V0Z" fill="white"/>
</mask>
<g mask="url(#mask0_6706_3950)">
<mask id="mask1_6706_3950" style="mask-type:luminance" maskUnits="userSpaceOnUse" x="18" y="4" width="26" height="33">
<path d="M44 4H18.733V36.1284H44V4Z" fill="white"/>
</mask>
<g mask="url(#mask1_6706_3950)">
<path d="M38.7277 36.1284H23.9947C21.0902 36.1284 18.733 33.7711 18.733 30.8666V9.26177C18.733 6.35727 21.0902 4 23.9947 4H31.94C33.729 4 35.4444 4.69455 36.7177 5.95738L41.8322 10.9666C43.2107 12.3346 43.9895 14.1868 44 16.1336V30.8666C44 33.7711 41.6427 36.1284 38.7382 36.1284C38.7382 36.1284 38.7382 36.1284 38.7277 36.1284ZM23.9842 6.10471C22.2373 6.10471 20.8272 7.51486 20.8272 9.26177V30.8245C20.8272 32.5714 22.2373 33.9816 23.9842 33.9816H38.7172C40.4641 33.9816 41.8743 32.5714 41.8743 30.8245V16.0916C41.8743 14.713 41.306 13.3975 40.3273 12.4294L35.2339 7.46225C34.3499 6.58879 33.1713 6.10471 31.9295 6.10471H23.9842Z" fill="#3F484A"/>
</g>
<path d="M24.8453 13.4712H17.8825C11.3178 13.4712 8.03548 13.4712 5.99611 15.5781C4.59195 17.0289 4.15459 19.0883 4.01837 22.4442C3.99135 23.1098 3.97784 23.4426 4.09784 23.6645C4.21783 23.8866 4.69686 24.1636 5.65491 24.7178C6.71893 25.3331 7.43816 26.509 7.43816 27.8584C7.43816 29.2078 6.71893 30.3836 5.65492 30.999C4.69687 31.5532 4.21783 31.8301 4.09783 32.0522C3.97784 32.2742 3.99135 32.607 4.01837 33.2725C4.15459 36.6285 4.59195 38.6879 5.99611 40.1386C8.03548 42.2456 11.3178 42.2456 17.8825 42.2456H24.8453C31.4099 42.2456 34.6922 42.2456 36.7316 40.1386C38.1358 38.6879 38.5731 36.6285 38.7094 33.2725C38.7363 32.607 38.7499 32.2742 38.6298 32.0522C38.5099 31.8301 38.0308 31.5532 37.0728 30.999C36.0087 30.3836 35.2896 29.2078 35.2896 27.8584C35.2896 26.509 36.0087 25.3331 37.0728 24.7178C38.0308 24.1636 38.5099 23.8866 38.6298 23.6645C38.7499 23.4426 38.7363 23.1098 38.7094 22.4443C38.5731 19.0884 38.1358 17.0289 36.7316 15.5781C34.6922 13.4712 31.4099 13.4712 24.8453 13.4712Z" fill="#3F484A"/>
<path fill-rule="evenodd" clip-rule="evenodd" d="M14.7945 26.7993C15.2304 26.7993 15.5838 27.1526 15.5838 27.5885V31.1323C15.5838 32.8259 15.928 33.8075 16.5059 34.3854C17.0838 34.9633 18.0653 35.3075 19.759 35.3075H24.0131C25.7067 35.3075 26.6883 34.9633 27.2662 34.3854C27.8441 33.8075 28.1883 32.8259 28.1883 31.1323V27.5885C28.1883 27.1526 28.5417 26.7993 28.9776 26.7993C29.4135 26.7993 29.7669 27.1526 29.7669 27.5885V31.1323C29.7669 32.9825 29.4008 34.4832 28.3824 35.5016C27.364 36.52 25.8633 36.8861 24.0131 36.8861H19.759C17.9088 36.8861 16.4081 36.52 15.3897 35.5016C14.3713 34.4832 14.0052 32.9825 14.0052 31.1323V27.5885C14.0052 27.1526 14.3586 26.7993 14.7945 26.7993Z" fill="#FBFCFD"/>
<path fill-rule="evenodd" clip-rule="evenodd" d="M19.2657 20.2327C19.3061 19.8293 19.6456 19.5222 20.051 19.5222H23.7369C24.1427 19.5222 24.4824 19.83 24.5223 20.2339L25.0432 25.5062C25.2308 27.4129 23.8026 28.9934 21.89 28.9934C19.9774 28.9934 18.5492 27.4133 18.7367 25.5065L19.2657 20.2327ZM20.7651 21.1007L20.3077 25.661V25.661C20.2115 26.6427 20.9141 27.4149 21.89 27.4149C22.866 27.4149 23.5687 26.6432 23.4723 25.6614L23.0217 21.1007H20.7651Z" fill="#FBFCFD"/>
<path fill-rule="evenodd" clip-rule="evenodd" d="M23.1201 19.7818C23.2698 19.6165 23.4823 19.5222 23.7053 19.5222H26.1126C27.2274 19.5222 28.1825 19.7315 28.8876 20.3829C29.5824 21.0246 29.8856 21.9606 30.0356 23.0446C30.037 23.054 30.0381 23.0634 30.039 23.0729L30.2602 25.2452C30.4641 27.2945 28.933 28.9934 26.8703 28.9934C25.1635 28.9934 23.6483 27.63 23.4727 25.9251L23.4724 25.9227L22.9199 20.3899C22.8978 20.168 22.9705 19.9472 23.1201 19.7818ZM24.5773 21.1007L25.0429 25.7633L25.043 25.7645C25.1363 26.6637 25.9728 27.4149 26.8703 27.4149C27.9959 27.4149 28.8008 26.5254 28.6895 25.4023V25.4023L28.4701 23.2473C28.3358 22.2884 28.1031 21.807 27.8166 21.5424C27.5391 21.2861 27.0657 21.1007 26.1126 21.1007H24.5773Z" fill="#FBFCFD"/>
<path fill-rule="evenodd" clip-rule="evenodd" d="M14.845 20.3828C15.5501 19.7315 16.5053 19.5222 17.6201 19.5222H20.0273C20.2503 19.5222 20.4629 19.6165 20.6125 19.7819C20.7622 19.9472 20.8349 20.1681 20.8127 20.39L20.2604 25.9204V25.9204C20.0941 27.6296 18.5757 28.9934 16.8703 28.9934C14.8078 28.9934 13.2766 27.2948 13.4802 25.2457V25.2457L13.6933 23.0757C13.6943 23.0653 13.6955 23.0549 13.6969 23.0446C13.8471 21.9606 14.1502 21.0246 14.845 20.3828ZM15.2627 23.2459L15.0511 25.4004C14.9393 26.5239 15.7443 27.4149 16.8703 27.4149C17.7691 27.4149 18.6025 26.6629 18.6893 25.7681L18.6895 25.7661L19.1552 21.1007H17.6201C16.667 21.1007 16.1935 21.2861 15.9161 21.5424C15.6297 21.8069 15.3971 22.2879 15.2627 23.2459Z" fill="#FBFCFD"/>
<path fill-rule="evenodd" clip-rule="evenodd" d="M19.851 32.0847C20.3804 31.5553 21.1105 31.3612 21.89 31.3612C22.6695 31.3612 23.3996 31.5553 23.9289 32.0847C24.4583 32.614 24.6524 33.3441 24.6524 34.1236V36.0968C24.6524 36.5327 24.2991 36.8861 23.8632 36.8861H19.9168C19.4809 36.8861 19.1276 36.5327 19.1276 36.0968V34.1236C19.1276 33.3441 19.3217 32.614 19.851 32.0847ZM20.9672 33.2009C20.8395 33.3286 20.7061 33.5851 20.7061 34.1236V35.3075H23.0739V34.1236C23.0739 33.5851 22.9405 33.3286 22.8128 33.2009C22.685 33.0732 22.4286 32.9397 21.89 32.9397C21.3514 32.9397 21.0949 33.0732 20.9672 33.2009Z" fill="#FBFCFD"/>
</g>
</g>
<defs>
<clipPath id="clip0_6706_3950">
<rect width="48" height="48" fill="white"/>
</clipPath>
</defs>
</svg>
