<?xml version="1.0" encoding="utf-8"?><svg width="24" height="24" viewBox="0 0 24 24" fill="none" xmlns="http://www.w3.org/2000/svg">
<path d="M21.6343 4.03182C20.8193 4.41682 19.4323 5.13882 18.7353 5.27682C18.7083 5.28382 18.6863 5.29282 18.6603 5.29982C17.8473 4.49782 16.7333 4.00082 15.5003 4.00082C13.0153 4.00082 11.0003 6.01582 11.0003 8.50082C11.0003 8.63182 10.9893 8.87282 11.0003 9.00082C7.78232 9.00082 5.43232 7.32182 3.67332 5.16382C3.43832 4.87382 3.18832 5.02482 3.13632 5.23082C3.01932 5.69682 2.97932 6.47582 2.97932 7.03182C2.97932 8.43282 4.07432 9.80882 5.77932 10.6618C5.46532 10.7428 5.11932 10.8008 4.75932 10.8008C4.33532 10.8008 3.84732 10.6898 3.42032 10.4658C3.26232 10.3828 2.92132 10.4058 3.02232 10.8098C3.42732 12.4288 5.27532 13.5658 6.92632 13.8968C6.55132 14.1178 5.75132 14.0728 5.38332 14.0728C5.24732 14.0728 4.77432 14.0408 4.46832 14.0028C4.18932 13.9688 3.76032 14.0408 4.11932 14.5848C4.89032 15.7518 6.63432 16.4848 8.13532 16.5128C6.75332 17.5968 4.49332 17.9928 2.32832 17.9928C1.89032 17.9828 1.91232 18.4818 2.26532 18.6668C3.86232 19.5048 6.47832 20.0008 8.34732 20.0008C15.7773 20.0008 20.0003 14.3378 20.0003 8.99982C20.0003 8.91382 19.9983 8.73382 19.9953 8.55282C19.9953 8.53482 20.0003 8.51782 20.0003 8.49982C20.0003 8.47282 19.9923 8.44682 19.9923 8.41982C19.9893 8.28382 19.9863 8.15682 19.9833 8.09082C20.5723 7.66582 21.4743 6.92782 21.9303 6.36282C22.0853 6.17082 21.9603 5.93782 21.7493 6.01082C21.2063 6.19982 20.2673 6.56582 19.6793 6.63582C20.8563 5.85682 21.4383 5.17882 21.9383 4.42582C22.1093 4.16882 21.8953 3.90782 21.6343 4.03182Z" fill="#3F484A"/>
</svg>
