<?xml version="1.0" encoding="utf-8"?>
<svg width="48" height="48" viewBox="0 0 48 48" fill="none" xmlns="http://www.w3.org/2000/svg">
<path d="M7 24.0189C7 17.7526 7 11.4864 7 5.22012C7 2.72943 8.60978 0.678562 10.9953 0.134959C11.3542 0.0509475 11.7275 0.0114127 12.096 0.0114127C17.4442 0.00152901 22.7923 -0.00835468 28.1404 0.0114127C30.3854 0.0212964 32.5431 0.490772 34.5698 1.51373C37.6197 3.05559 39.5204 5.55122 40.4126 8.87215C40.718 10.0088 40.9314 11.1701 40.9411 12.3463C40.9799 16.6852 40.9896 21.0241 40.9944 25.3631C41.0041 31.1698 40.9992 36.9715 40.9944 42.7782C40.9944 45.1947 39.4864 47.2159 37.2172 47.8139C36.7857 47.9276 36.3251 47.9918 35.879 47.9918C27.9513 48.0017 20.0285 48.0017 12.1009 47.9968C9.66195 47.9968 7.65943 46.3659 7.12607 43.9444C7.03879 43.554 7 43.1488 7 42.7485C7 36.502 7 30.2605 7 24.0189ZM9.34193 23.9843C9.34193 30.2654 9.34193 36.5514 9.34678 42.8325C9.34678 44.3694 10.5493 45.6 12.0524 45.6C20.0188 45.6 27.9853 45.6 35.9517 45.6C37.4451 45.6 38.6525 44.3744 38.6525 42.8572C38.6573 32.9933 38.6573 23.1244 38.6525 13.2605C38.6525 11.9905 38.4973 10.7352 38.1676 9.50964C37.4209 6.74221 35.8305 4.6864 33.2364 3.49047C31.617 2.7492 29.9102 2.39338 28.1404 2.38844C22.8165 2.3835 17.4926 2.3835 12.1639 2.3835C10.5056 2.3835 9.34193 3.56954 9.34193 5.25471C9.34193 11.5012 9.34193 17.7428 9.34193 23.9843Z" fill="#A72B77"/>
<path d="M16.0756 21.8853C16.2103 21.648 16.3382 21.4229 16.466 21.2098C16.7663 20.7219 17.1791 20.5718 17.5919 20.7969C18.0047 21.0221 18.0798 21.4725 17.8171 21.9979C17.6294 22.3732 17.4043 22.7485 17.1791 23.1238V23.2364H18.5302C19.0931 23.2364 19.4684 23.5741 19.4684 24.0245C19.4684 24.5124 19.1306 24.7751 18.5302 24.8126H17.2541C17.2379 24.8126 17.2286 24.8197 17.2142 24.8308C17.1954 24.8452 17.1677 24.8664 17.104 24.8877C17.2166 25.0753 17.3292 25.2723 17.4417 25.4693C17.5543 25.6663 17.667 25.8635 17.7796 26.0511C18.0798 26.5765 17.9672 27.0269 17.5544 27.2896C17.1416 27.5147 16.7287 27.3646 16.4285 26.8392C16.2034 26.4641 15.978 26.0884 15.7154 25.6383C15.4528 26.0884 15.2277 26.4636 15.0026 26.8388C14.7024 27.3642 14.2893 27.5147 13.8765 27.2896C13.4261 27.0644 13.3511 26.5765 13.6513 26.0511C13.7639 25.8634 13.8671 25.6758 13.9703 25.4881C14.0735 25.3005 14.1767 25.1129 14.2893 24.9252V24.8126H12.9007C12.3753 24.8126 12 24.5124 12 24.062C12 23.6117 12.3378 23.2739 12.9007 23.2739H14.3644C14.2534 23.0679 14.1425 22.8753 14.0344 22.6875C13.8865 22.4307 13.7439 22.183 13.6138 21.9228C13.3511 21.3974 13.5762 20.7969 14.1392 20.7219C14.5145 20.6844 14.7772 20.8345 14.9648 21.1722C15.2651 21.5475 15.4903 21.9228 15.753 22.4482C15.8665 22.2537 15.9731 22.0659 16.0756 21.8853Z" fill="#A72B77"/>
<path d="M21.361 24.51C21.2346 24.6267 21.1714 24.7726 21.1714 24.9476C21.1714 25.1227 21.2346 25.2698 21.361 25.3889C21.4874 25.5056 21.6503 25.5639 21.8497 25.5639C22.0515 25.5639 22.2143 25.5056 22.3383 25.3889C22.4647 25.2698 22.528 25.1227 22.528 24.9476C22.528 24.7726 22.4647 24.6267 22.3383 24.51C22.2143 24.3909 22.0515 24.3313 21.8497 24.3313C21.6503 24.3313 21.4874 24.3909 21.361 24.51Z" fill="#A72B77"/>
<path d="M23.622 24.51C23.4955 24.6267 23.4323 24.7726 23.4323 24.9476C23.4323 25.1227 23.4955 25.2698 23.622 25.3889C23.7484 25.5056 23.9113 25.5639 24.1106 25.5639C24.3124 25.5639 24.4753 25.5056 24.5993 25.3889C24.7257 25.2698 24.7889 25.1227 24.7889 24.9476C24.7889 24.7726 24.7257 24.6267 24.5993 24.51C24.4753 24.3909 24.3124 24.3313 24.1106 24.3313C23.9113 24.3313 23.7484 24.3909 23.622 24.51Z" fill="#A72B77"/>
<path d="M25.8829 24.51C25.7565 24.6267 25.6933 24.7726 25.6933 24.9476C25.6933 25.1227 25.7565 25.2698 25.8829 25.3889C26.0093 25.5056 26.1722 25.5639 26.3716 25.5639C26.5733 25.5639 26.7362 25.5056 26.8602 25.3889C26.9866 25.2698 27.0498 25.1227 27.0498 24.9476C27.0498 24.7726 26.9866 24.6267 26.8602 24.51C26.7362 24.3909 26.5733 24.3313 26.3716 24.3313C26.1722 24.3313 26.0093 24.3909 25.8829 24.51Z" fill="#A72B77"/>
<path fill-rule="evenodd" clip-rule="evenodd" d="M31.4046 20.0046C31.4807 20.014 31.5541 20.0384 31.6208 20.0763C31.6874 20.1142 31.746 20.1648 31.793 20.2253C31.8401 20.2858 31.8748 20.355 31.8951 20.4289C31.9154 20.5028 31.921 20.58 31.9114 20.6561L31.7745 21.7507H33.3211L33.4763 20.5114C33.4955 20.3578 33.5749 20.2182 33.697 20.1232C33.8192 20.0282 33.9741 19.9856 34.1277 20.0048C34.2812 20.0239 34.4209 20.1034 34.5159 20.2255C34.6109 20.3477 34.6535 20.5025 34.6343 20.6561L34.4974 21.7507H35.4165C35.5713 21.7507 35.7197 21.8122 35.8291 21.9216C35.9385 22.031 36 22.1794 36 22.3342C36 22.4889 35.9385 22.6373 35.8291 22.7467C35.7197 22.8562 35.5713 22.9176 35.4165 22.9176H34.3515L34.157 24.4735H35.222C35.3768 24.4735 35.5252 24.535 35.6346 24.6444C35.744 24.7539 35.8055 24.9023 35.8055 25.057C35.8055 25.2118 35.744 25.3602 35.6346 25.4696C35.5252 25.579 35.3768 25.6405 35.222 25.6405H34.0112L33.8563 26.8798C33.8371 27.0333 33.7577 27.173 33.6356 27.268C33.5134 27.363 33.3586 27.4056 33.205 27.3864C33.0514 27.3672 32.9118 27.2878 32.8168 27.1657C32.7218 27.0435 32.6792 26.8886 32.6983 26.7351L32.8349 25.6405H31.2883L31.1335 26.8798C31.124 26.9558 31.0996 27.0292 31.0617 27.0958C31.0238 27.1624 30.9732 27.2209 30.9127 27.268C30.8523 27.315 30.7831 27.3497 30.7092 27.37C30.6353 27.3903 30.5582 27.3959 30.4821 27.3864C30.4061 27.3769 30.3327 27.3525 30.2661 27.3147C30.1995 27.2768 30.141 27.2262 30.0939 27.1657C30.0469 27.1052 30.0122 27.036 29.9919 26.9621C29.9716 26.8883 29.966 26.8111 29.9755 26.7351L30.112 25.6405H29.3874C29.2326 25.6405 29.0842 25.579 28.9748 25.4696C28.8654 25.3602 28.8039 25.2118 28.8039 25.057C28.8039 24.9023 28.8654 24.7539 28.9748 24.6444C29.0842 24.535 29.2326 24.4735 29.3874 24.4735H30.2579L30.4524 22.9176H29.5818C29.4271 22.9176 29.2787 22.8562 29.1693 22.7467C29.0599 22.6373 28.9984 22.4889 28.9984 22.3342C28.9984 22.1794 29.0599 22.031 29.1693 21.9216C29.2787 21.8122 29.4271 21.7507 29.5818 21.7507H30.5982L30.7535 20.5114C30.7629 20.4353 30.7872 20.3619 30.825 20.2952C30.8629 20.2285 30.9135 20.17 30.9739 20.1229C31.0344 20.0758 31.1036 20.041 31.1775 20.0207C31.2514 20.0003 31.3285 19.9951 31.4046 20.0046ZM32.9815 24.4735L33.176 22.9176H31.629L31.4346 24.4735H32.9815Z" fill="#A72B77"/>
</svg>
