<?xml version="1.0" encoding="utf-8"?><svg width="24" height="24" viewBox="0 0 24 24" fill="none" xmlns="http://www.w3.org/2000/svg">
<path d="M3.60017 19.0655C3.62417 18.3667 3.56529 17.68 3.63092 16.9962C3.72169 16.0586 4.47746 15.191 5.45076 15.0485C5.68631 15.014 5.90497 15.068 6.12889 15.0402C6.41619 15.0046 6.708 14.9746 6.99155 15.0136C7.29386 15.0553 7.59167 14.9975 7.89172 15.0361C8.05638 15.0575 8.22928 15.0177 8.39694 15.0095C8.58035 15.0005 8.76076 15.0305 8.94754 15.017C9.15965 15 9.37261 14.9963 9.58516 15.0061C9.98724 15.0279 10.3901 15.0245 10.7921 15.0342C11.1593 15.0429 11.5292 15.0046 11.8982 15.005C13.1251 15.005 14.0466 14.4731 14.6595 13.4166C15.2679 12.3664 15.1058 10.9449 14.3043 10.0304C13.6792 9.31755 12.8965 8.96061 11.9564 8.95961C11.0753 8.95961 10.3511 9.3238 9.74344 9.95504C9.34999 10.3642 9.12833 10.8668 9.01431 11.3964C8.89316 11.959 8.97117 12.531 9.17371 13.0843C9.34174 13.5433 9.63917 13.8963 9.97974 14.2267C10.0266 14.2725 10.0945 14.3017 10.1155 14.3745C10.0529 14.424 9.98161 14.4004 9.91598 14.4008C8.5541 14.4008 7.19184 14.4139 5.82996 14.3974C4.9943 14.3873 4.28992 14.6562 3.71269 15.2582C3.69175 15.2759 3.66943 15.292 3.64593 15.3062C3.42221 14.7687 3.25771 14.2084 3.15533 13.6352C2.83615 11.8814 3.00531 10.173 3.69581 8.52903C4.46283 6.70206 5.70694 5.27417 7.41501 4.2596C8.6403 3.52346 10.0284 3.10115 11.456 3.03012C12.6049 2.97086 13.7541 3.02112 14.9029 3.00011C15.0436 2.99786 15.0297 3.07963 15.0297 3.16927C15.0297 4.16658 15.0364 5.16465 15.0278 6.16196C15.0188 7.18215 15.4756 7.95667 16.2888 8.52678C16.7126 8.82383 17.2092 8.95211 17.7317 8.95248C18.75 8.95248 19.7687 8.95661 20.787 8.94948C20.9464 8.94948 20.9993 8.98061 20.9978 9.15239C20.9884 10.1373 21.0147 11.1234 20.9873 12.1076C20.9573 13.1953 20.7795 14.2646 20.3624 15.2818C19.8921 16.4299 19.241 17.461 18.3513 18.3311C17.8164 18.8488 17.2242 19.3039 16.5862 19.6874C15.3414 20.4454 13.9877 20.8463 12.5355 20.9356C12.2857 20.9506 12.0366 20.9574 11.7872 20.9574C9.1317 20.9574 6.47621 20.9587 3.82071 20.9615C3.65605 20.9615 3.59079 20.93 3.60017 20.7496C3.62042 20.3647 3.57391 19.9758 3.66918 19.5959C3.84771 18.8832 4.27904 18.3754 4.95867 18.0982C5.23586 17.9834 5.53331 17.9255 5.83334 17.9279C6.39594 17.935 6.95855 17.9302 7.52115 17.9279C7.57104 17.9279 7.6213 17.9279 7.67118 17.9245C7.68221 17.9247 7.69315 17.9226 7.70337 17.9185C7.71358 17.9143 7.72286 17.9082 7.73066 17.9004C7.73846 17.8926 7.74461 17.8833 7.74876 17.8731C7.75291 17.8629 7.75497 17.8519 7.75482 17.8409C7.75482 17.7981 7.72181 17.7749 7.68506 17.7633C7.65542 17.7541 7.62456 17.7496 7.59354 17.7498C6.88803 17.7629 6.18103 17.7122 5.47739 17.7749C4.67549 17.8529 4.09113 18.2655 3.69806 18.9579C3.67781 18.9935 3.67518 19.0437 3.60017 19.0655Z" fill="#3F484A"/>
<path d="M17.7501 3.00578C18.375 3.00578 18.9994 3.00578 19.6254 3.00578C20.4378 3.00803 20.9869 3.55563 20.9881 4.36954C20.9907 5.6414 20.9858 6.91289 20.9929 8.18438C20.9929 8.33216 20.9479 8.35428 20.814 8.35353C19.8085 8.34791 18.8025 8.35353 17.797 8.34978C16.5967 8.34453 15.6452 7.40686 15.6347 6.20663C15.6257 5.19057 15.6347 4.1745 15.6302 3.15844C15.6302 3.03729 15.6594 3.00128 15.7843 3.00241C16.4385 3.00916 17.0945 3.00578 17.7501 3.00578Z" fill="#191C1D"/>
<path d="M11.9961 9.57401C13.3434 9.57401 14.4078 10.6343 14.4086 11.979C14.4093 13.3236 13.3464 14.3858 11.9991 14.3865C10.6519 14.3873 9.58705 13.3266 9.5863 11.982C9.58555 10.6373 10.6485 9.57476 11.9961 9.57401Z" fill="#191C1D"/>
</svg>
