<?xml version="1.0" encoding="utf-8"?>
<svg width="96" height="96" viewBox="0 0 96 96" fill="none" xmlns="http://www.w3.org/2000/svg">
<path d="M14 48.0378C14 35.5053 14 22.9728 14 10.4402C14 5.45886 17.2814 1.35712 22.1442 0.269918C22.8756 0.101895 23.6366 0.0228254 24.3878 0.0228254C35.2895 0.00305803 46.1912 -0.0167094 57.0929 0.0228254C61.6691 0.0425928 66.0673 0.981544 70.1987 3.02747C76.4155 6.11118 80.2899 11.1024 82.1085 17.7443C82.7312 20.0175 83.1661 22.3402 83.1859 24.6925C83.2649 33.3704 83.2847 42.0483 83.2946 50.7262C83.3143 62.3395 83.3045 73.943 83.2946 85.5563C83.2946 90.3895 80.2207 94.4319 75.5952 95.6278C74.7155 95.8551 73.7766 95.9836 72.8673 95.9836C56.7074 96.0034 40.5575 96.0034 24.3976 95.9935C19.4261 95.9935 15.3442 92.7319 14.257 87.8889C14.0791 87.1081 14 86.2976 14 85.497C14 73.004 14 60.5209 14 48.0378ZM18.7738 47.9686C18.7738 47.9686 18.7837 47.9686 18.7738 47.9686C18.7738 60.5308 18.7738 73.1029 18.7837 85.665C18.7837 88.7389 21.2349 91.1999 24.2988 91.1999C40.5377 91.1999 56.7766 91.1999 73.0155 91.1999C76.0597 91.1999 78.5208 88.7488 78.5208 85.7145C78.5306 65.9866 78.5306 46.2489 78.5208 26.521C78.5208 23.9809 78.2045 21.4704 77.5324 19.0193C76.0103 13.4844 72.7684 9.3728 67.4807 6.98095C64.1795 5.49839 60.7005 4.78677 57.0929 4.77688C46.2406 4.767 35.3883 4.767 24.5261 4.767C21.1459 4.767 18.7738 7.13909 18.7738 10.5094C18.7738 23.0024 18.7738 35.4855 18.7738 47.9686Z" fill="#3F484A"/>
<path d="M70.5647 27.6959V30.1595C70.5647 31.1289 70.4504 31.9717 70.222 32.688C69.9997 33.4042 69.6786 33.997 69.2588 34.4662C68.8451 34.9355 68.3511 35.2843 67.7769 35.5128C67.2027 35.7412 66.5698 35.8555 65.8783 35.8555C65.3226 35.8555 64.8039 35.7845 64.3223 35.6424C63.8407 35.4943 63.4054 35.272 63.0164 34.9756C62.6336 34.6731 62.3032 34.2964 62.0254 33.8457C61.7475 33.395 61.5345 32.8639 61.3863 32.2527C61.2382 31.6352 61.1641 30.9375 61.1641 30.1595V27.6959C61.1641 26.7204 61.2752 25.8776 61.4975 25.1675C61.7259 24.4513 62.0501 23.8585 62.47 23.3893C62.8898 22.92 63.3869 22.5711 63.9611 22.3427C64.5353 22.1142 65.1682 22 65.8597 22C66.4154 22 66.931 22.0741 67.4064 22.2223C67.888 22.3643 68.3233 22.5866 68.7123 22.8891C69.1013 23.1855 69.4317 23.559 69.7033 24.0098C69.9812 24.4605 70.1942 24.9946 70.3424 25.6121C70.4906 26.2233 70.5647 26.918 70.5647 27.6959ZM67.4435 30.5393V27.2977C67.4435 26.8655 67.4188 26.4888 67.3694 26.1678C67.3262 25.8467 67.2582 25.575 67.1656 25.3527C67.0792 25.1304 66.9711 24.9514 66.8415 24.8155C66.7118 24.6735 66.5636 24.5717 66.3969 24.5099C66.2364 24.442 66.0573 24.408 65.8597 24.408C65.6128 24.408 65.3905 24.4605 65.1929 24.5655C65.0015 24.6643 64.8379 24.8248 64.702 25.0471C64.5662 25.2694 64.4612 25.5657 64.3871 25.9362C64.3192 26.3067 64.2852 26.7605 64.2852 27.2977V30.5393C64.2852 30.9777 64.3069 31.3605 64.3501 31.6877C64.3995 32.0088 64.4674 32.2835 64.5538 32.512C64.6465 32.7343 64.7576 32.9164 64.8873 33.0584C65.0169 33.1943 65.1651 33.2931 65.3318 33.3548C65.4985 33.4166 65.6807 33.4474 65.8783 33.4474C66.1191 33.4474 66.3352 33.398 66.5266 33.2992C66.718 33.2005 66.8816 33.0399 67.0174 32.8176C67.1595 32.5892 67.2644 32.2897 67.3323 31.9193C67.4064 31.5426 67.4435 31.0826 67.4435 30.5393Z" fill="#3F484A"/>
<path d="M59.4671 27.6959V30.1595C59.4671 31.1289 59.3528 31.9717 59.1244 32.688C58.9021 33.4042 58.581 33.997 58.1612 34.4662C57.7475 34.9355 57.2535 35.2843 56.6793 35.5128C56.1051 35.7412 55.4722 35.8555 54.7807 35.8555C54.225 35.8555 53.7063 35.7845 53.2247 35.6424C52.7431 35.4943 52.3078 35.272 51.9188 34.9756C51.536 34.6731 51.2057 34.2964 50.9278 33.8457C50.65 33.395 50.4369 32.8639 50.2887 32.2527C50.1406 31.6352 50.0665 30.9375 50.0665 30.1595V27.6959C50.0665 26.7204 50.1776 25.8776 50.3999 25.1675C50.6283 24.4513 50.9525 23.8585 51.3724 23.3893C51.7922 22.92 52.2893 22.5711 52.8635 22.3427C53.4377 22.1142 54.0706 22 54.7621 22C55.3178 22 55.8334 22.0741 56.3088 22.2223C56.7904 22.3643 57.2257 22.5866 57.6147 22.8891C58.0037 23.1855 58.3341 23.559 58.6057 24.0098C58.8836 24.4605 59.0966 24.9946 59.2448 25.6121C59.393 26.2233 59.4671 26.918 59.4671 27.6959ZM56.3459 30.5393V27.2977C56.3459 26.8655 56.3212 26.4888 56.2718 26.1678C56.2286 25.8467 56.1607 25.575 56.068 25.3527C55.9816 25.1304 55.8735 24.9514 55.7439 24.8155C55.6142 24.6735 55.466 24.5717 55.2993 24.5099C55.1388 24.442 54.9597 24.408 54.7621 24.408C54.5152 24.408 54.2929 24.4605 54.0953 24.5655C53.9039 24.6643 53.7403 24.8248 53.6044 25.0471C53.4686 25.2694 53.3636 25.5657 53.2895 25.9362C53.2216 26.3067 53.1877 26.7605 53.1877 27.2977V30.5393C53.1877 30.9777 53.2093 31.3605 53.2525 31.6877C53.3019 32.0088 53.3698 32.2835 53.4562 32.512C53.5489 32.7343 53.66 32.9164 53.7897 33.0584C53.9193 33.1943 54.0675 33.2931 54.2342 33.3548C54.4009 33.4166 54.5831 33.4474 54.7807 33.4474C55.0215 33.4474 55.2376 33.398 55.429 33.2992C55.6204 33.2005 55.784 33.0399 55.9198 32.8176C56.0619 32.5892 56.1668 32.2897 56.2347 31.9193C56.3088 31.5426 56.3459 31.0826 56.3459 30.5393Z" fill="#3F484A"/>
<path d="M45.9147 22.1852V35.6702H42.7935V25.7047L39.7186 26.6031V24.2321L45.6276 22.1852H45.9147Z" fill="#3F484A"/>
<path d="M29.8158 22.1852L32.0201 26.6679L34.2244 22.1852H37.929L34.1688 28.8722L38.0309 35.6702H34.2892L32.0201 31.1042L29.751 35.6702H26L29.8714 28.8722L26.1019 22.1852H29.8158Z" fill="#3F484A"/>
<path fill-rule="evenodd" clip-rule="evenodd" d="M32.0155 62.9915C32.0155 61.8562 32.0129 60.7209 32.0103 59.5853C32.0045 57.0298 31.9986 54.4729 32.0224 51.9131C32.0498 49.2447 34.1009 46.7752 36.7144 46.1921C37.2632 46.0687 37.8463 46.0138 38.4088 46.0138C41.1458 46.0079 43.8841 46.0096 46.6225 46.0113C50.2738 46.0135 53.9255 46.0157 57.5748 46.0001C60.9361 45.9863 63.3027 48.3255 63.824 50.8842C63.9269 51.3849 63.9886 51.8994 63.9886 52.4139C64.0024 59.4794 64.0024 66.5449 63.9955 73.6035C63.9955 76.6972 62.0816 79.1462 59.1388 79.839C58.6655 79.9487 58.1716 80.0105 57.6846 80.0105C52.8455 80.0208 48.0027 80.0195 43.1617 80.0182H43.1531C41.5394 80.0178 39.9258 80.0173 38.3127 80.0173C35.0887 80.0173 32.4683 77.7399 32.0361 74.5433C31.9968 74.2401 31.9989 73.9278 32.0009 73.6175C32.0014 73.5487 32.0018 73.4799 32.0018 73.4114V62.9847C32.0087 62.9915 32.0155 62.9915 32.0155 62.9915ZM38.4346 60.0587C38.2865 60.1869 38.1493 60.3057 38.0178 60.4329C37.0711 61.3452 36.6527 62.4702 36.8996 63.7598C37.2289 65.461 38.3333 66.5106 39.9865 66.8673C40.6675 67.0147 41.3861 67.0114 42.1005 67.0082C42.3504 67.0071 42.6 67.006 42.847 67.0113C43.0528 67.0182 43.2792 66.9565 43.4712 66.8741C46.2288 65.708 48.9864 65.708 51.7441 66.8741C51.9293 66.9496 52.1351 67.0045 52.334 67.0045C53.2738 67.0251 54.2067 67.0319 55.1465 67.0182C56.0931 67.0045 56.9712 66.7232 57.7257 66.147C58.7547 65.365 59.3377 64.3223 59.2829 63.0258C59.2074 61.1463 57.7532 59.548 55.8873 59.3285C55.1092 59.2349 54.3205 59.2403 53.5313 59.2458C53.2213 59.2479 52.9111 59.25 52.6015 59.2461C52.4986 59.2461 52.382 59.3079 52.286 59.3628C50.9003 60.0967 49.4186 60.4535 47.8546 60.4946C46.0848 60.5358 44.411 60.1859 42.847 59.349C42.4217 59.1227 42.2091 58.91 42.2159 58.3338C42.2394 56.2637 42.2211 54.1903 42.2028 52.1181C42.1944 51.1624 42.186 50.2063 42.1816 49.2516C42.1816 48.9703 42.1062 48.8811 41.8181 48.8811C41.1401 48.889 40.4599 48.8879 39.78 48.8867C39.2701 48.8859 38.7595 48.8851 38.251 48.888C36.3509 48.8949 34.8692 50.3834 34.8623 52.2836C34.8577 54.1128 34.8593 55.9421 34.8608 57.7713L34.8608 57.7779C34.8616 58.6903 34.8623 59.6028 34.8623 60.5152C34.8623 60.5929 34.8684 60.6706 34.8745 60.7483C34.8775 60.7872 34.8806 60.8262 34.8829 60.865C34.8966 60.8685 34.9121 60.8736 34.9275 60.8788C34.9429 60.8839 34.9584 60.889 34.9721 60.8925C35.466 59.7538 36.2411 58.8483 37.2632 58.1143C37.6523 58.5747 38.0283 59.0263 38.4086 59.4831L38.6969 59.8292C38.6054 59.9108 38.5182 59.9864 38.4346 60.0587ZM61.046 60.5675L61.0561 60.5632C61.0681 60.5581 61.0801 60.5529 61.0938 60.5495C61.1007 60.4946 61.1076 60.4397 61.1076 60.3849C61.1076 59.5526 61.1094 58.721 61.1113 57.8896L61.1113 57.8854C61.1156 55.9431 61.1199 54.0015 61.1007 52.0572C61.087 50.3971 59.5847 48.9154 57.9178 48.8949C57.1133 48.8836 56.3087 48.8847 55.5053 48.8857C54.8359 48.8865 54.1673 48.8874 53.5001 48.8811C53.2395 48.8811 53.1709 48.9635 53.1709 49.2104L53.1709 49.2186C53.1777 51.6853 53.1846 54.1453 53.1709 56.612C53.1709 56.8864 53.2532 56.955 53.5207 56.9619C53.6761 56.9656 53.8315 56.9684 53.9868 56.9713C54.6882 56.984 55.3888 56.9968 56.0794 57.0922C58.1579 57.3803 59.7493 58.4573 60.8332 60.2614C60.864 60.3128 60.8948 60.3658 60.9256 60.4189C60.9565 60.4721 60.9875 60.5255 61.0184 60.5769C61.0282 60.5745 61.0372 60.5711 61.046 60.5675ZM53.1915 77.1225H53.5413C54.0106 77.1225 54.4792 77.1233 54.9475 77.124L54.9602 77.1241C55.9046 77.1256 56.8479 77.1271 57.7943 77.1225C59.619 77.1157 61.1076 75.634 61.1076 73.8093C61.1121 72.0903 61.1106 70.3683 61.1091 68.6473V68.645C61.1083 67.7847 61.1076 66.9239 61.1076 66.0647C61.1076 66 61.1021 65.9352 61.0947 65.8466C61.0903 65.7944 61.0852 65.7336 61.0801 65.66C61.0491 65.7065 61.0225 65.7458 60.9993 65.7801C60.9405 65.8672 60.9039 65.9214 60.8743 65.9755C59.962 67.5738 58.6038 68.5959 56.834 69.0761C55.9384 69.3209 55.0273 69.3214 54.1141 69.322C53.9781 69.3221 53.842 69.3222 53.7059 69.3231C53.5999 69.3231 53.494 69.3287 53.3843 69.3346C53.324 69.3378 53.2614 69.3412 53.1983 69.3436C53.1915 71.9435 53.1915 74.509 53.1915 77.1225ZM42.1816 77.1225C42.1816 76.8685 42.1808 76.6217 42.1801 76.3795C42.1785 75.9089 42.1771 75.4557 42.1816 75.0029C42.1953 73.2334 42.2091 71.463 42.2434 69.6935C42.2502 69.3848 42.1542 69.3025 41.8524 69.3093C41.4339 69.3231 41.0086 69.3025 40.5833 69.2682C38.0932 69.0624 36.2411 67.8757 35.0887 65.6394C35.0645 65.5951 35.0356 65.5532 34.9978 65.4983C34.9713 65.4597 34.9403 65.4148 34.9035 65.3581C34.8949 65.4153 34.8875 65.457 34.8818 65.4892C34.8738 65.5342 34.8692 65.5605 34.8692 65.5845C34.8692 66.3785 34.8669 67.172 34.8647 67.9652C34.8591 69.9474 34.8535 71.928 34.8829 73.9122C34.9103 75.6957 36.4195 77.1157 38.203 77.1225C38.9479 77.1271 39.6928 77.1256 40.4398 77.1241L40.449 77.124C40.8201 77.1233 41.1918 77.1225 41.5642 77.1225H42.1816ZM44.3973 53.2096H44.411C44.411 53.544 44.4115 53.8783 44.4119 54.2127C44.4132 55.216 44.4145 56.2193 44.4042 57.2225C44.4042 57.4558 44.4659 57.593 44.6991 57.689C46.709 58.4916 48.6983 58.4847 50.6808 57.6067C50.8866 57.5175 50.9689 57.4077 50.9689 57.1745C50.9552 54.5335 50.9552 51.8925 50.962 49.2584C50.962 48.9772 50.8866 48.888 50.5985 48.888C48.6435 48.9017 46.6885 48.9017 44.7334 48.888C44.459 48.888 44.3836 48.9703 44.3836 49.2378C44.4 50.2912 44.399 51.349 44.3979 52.4112L44.3973 53.2096ZM44.3973 77.102C44.4641 77.1049 44.5235 77.109 44.5781 77.1128C44.6526 77.118 44.7182 77.1225 44.7815 77.1225C45.2653 77.1225 45.7487 77.1221 46.2318 77.1217C47.6805 77.1204 49.1273 77.1191 50.5779 77.1294C50.8797 77.1294 50.9689 77.0471 50.962 76.7453C50.9552 74.2895 50.9552 71.8269 50.9689 69.3711C50.9689 69.1241 50.8866 69.0075 50.6671 68.9115C48.7121 68.0677 46.757 68.0471 44.7746 68.8292C44.4933 68.9389 44.4042 69.083 44.4042 69.3779C44.411 71.8131 44.4042 74.2483 44.3973 76.6835V77.102Z" fill="#3F484A"/>
</svg>
